<svg width="90" height="90" fill="none" xmlns="http://www.w3.org/2000/svg"><path fill-rule="evenodd" clip-rule="evenodd" d="M45.253 40.485c-.36 0-.72-.137-.995-.411L41 36.814a1.406 1.406 0 111.99-1.988l3.258 3.259a1.406 1.406 0 01-.994 2.4zm7.031-3.028c-.36 0-.72-.137-.994-.412l-5.26-5.26a1.406 1.406 0 011.988-1.99l5.26 5.261a1.406 1.406 0 01-.994 2.4zm3.029-7.031c-.36 0-.72-.137-.995-.412l-3.259-3.259a1.406 1.406 0 011.989-1.989l3.259 3.26a1.407 1.407 0 01-.995 2.4zm7.031-3.029c-.36 0-.72-.137-.995-.412l-5.26-5.26a1.407 1.407 0 011.989-1.989l5.26 5.26a1.406 1.406 0 01-.994 2.401zm3.028-7.031c-.36 0-.72-.137-.994-.412l-3.26-3.259a1.407 1.407 0 011.99-1.989l3.258 3.259a1.406 1.406 0 01-.994 2.4zM13.416 34.55H2.372a1.406 1.406 0 01-.995-2.401l8.644-8.644h-7.65a1.406 1.406 0 010-2.813h11.045a1.406 1.406 0 01.994 2.4l-8.644 8.644h7.65a1.406 1.406 0 010 2.813zm6.173 16.86h-6.173a1.406 1.406 0 01-.995-2.4l3.773-3.773h-2.778a1.406 1.406 0 010-2.812h6.173a1.406 1.406 0 01.995 2.4l-3.773 3.773h2.778a1.406 1.406 0 110 2.813z" fill="#071328"/><path fill-rule="evenodd" clip-rule="evenodd" d="M40.855 56.875c-2.404 0-4.585-.87-6.206-2.49-1.793-1.793-2.667-4.273-2.46-6.984.202-2.63 1.405-5.17 3.39-7.155l30.57-30.57a1.407 1.407 0 011.989 1.99l-30.57 30.57c-3.058 3.057-3.475 7.616-.93 10.16 1.204 1.205 2.902 1.788 4.781 1.645 1.96-.15 3.871-1.064 5.38-2.573l30.57-30.57a1.406 1.406 0 011.99 1.989l-30.57 30.57c-1.985 1.984-4.526 3.187-7.155 3.388-.262.02-.522.03-.779.03zM87.629 11.27c-.36 0-.72-.137-.995-.411L78.176 2.4a1.407 1.407 0 011.99-1.99l8.457 8.459a1.406 1.406 0 01-.994 2.4z" fill="#071328"/><path fill-rule="evenodd" clip-rule="evenodd" d="M26.375 64.066a1.406 1.406 0 01-.994-2.4l8.68-8.68a1.406 1.406 0 111.988 1.988l-8.68 8.68a1.402 1.402 0 01-.994.412zm46.772-46.772a1.406 1.406 0 01-.994-2.4l9.859-9.86A1.407 1.407 0 0184 7.025l-9.86 9.858a1.401 1.401 0 01-.994.412z" fill="#071328"/><path fill-rule="evenodd" clip-rule="evenodd" d="M9.327 90c-.95 0-1.856-.454-2.425-1.25a27.021 27.021 0 01-1.208-1.853c-1.701-2.854-2.116-6.095-2.555-9.526a106.55 106.55 0 00-.375-2.744c-.102-.66-.416-1.41-.748-2.204-.493-1.177-1.051-2.51-1.051-3.945v-.047a9.652 9.652 0 011.688-5.454 9.538 9.538 0 014.479-3.547 8.925 8.925 0 013.206-.604c1.45 0 2.942.478 4.526 1.455.419.258.95.258 1.37 0 1.583-.977 3.076-1.455 4.526-1.455a8.93 8.93 0 013.206.604 9.539 9.539 0 014.479 3.547 9.654 9.654 0 011.687 5.455v.046c0 1.434-.558 2.768-1.05 3.944-.333.794-.647 1.544-.749 2.204-.142.93-.26 1.852-.375 2.745-.439 3.43-.853 6.672-2.555 9.525a27.088 27.088 0 01-1.208 1.853 2.977 2.977 0 01-3.087 1.176 2.99 2.99 0 01-2.29-2.4c-.528-2.987-1.144-5.569-1.78-7.467-.687-2.05-1.237-2.82-1.49-3.09-.252.27-.801 1.04-1.489 3.09-.636 1.898-1.252 4.48-1.78 7.467A2.99 2.99 0 019.327 90zm1.01-28.361c-.736 0-1.475.14-2.198.418-2.605.999-4.358 3.562-4.361 6.379v.042c0 .87.405 1.836.833 2.859.383.915.78 1.862.933 2.863.148.964.269 1.905.385 2.814.418 3.27.78 6.092 2.181 8.443.343.575.707 1.133 1.082 1.659.023.032.066.092.178.067.12-.027.134-.111.14-.147.615-3.48 1.346-6.43 2.112-8.527.7-1.914 1.867-4.458 3.927-4.458s3.228 2.544 3.927 4.458c.766 2.098 1.497 5.046 2.112 8.526.006.036.021.12.14.147.112.026.155-.034.178-.066.375-.526.74-1.085 1.082-1.66 1.401-2.35 1.762-5.173 2.181-8.442.116-.91.237-1.85.385-2.814.154-1.001.55-1.948.933-2.863.428-1.023.833-1.989.833-2.859v-.044c-.003-2.815-1.756-5.378-4.361-6.377a6.126 6.126 0 00-2.199-.418c-1.259 0-2.679.637-4.34 1.947a1.409 1.409 0 01-1.742 0c-1.661-1.31-3.081-1.947-4.34-1.947zm71.68-34.687c-.36 0-.72-.137-.994-.412L62.495 8.012a1.406 1.406 0 011.989-1.988l18.528 18.528a1.406 1.406 0 01-.995 2.4z" fill="#071328"/></svg>