<svg width="279" height="348" fill="none" xmlns="http://www.w3.org/2000/svg"><g clip-path="url(#clip0_348_3793)" fill="#fff"><path d="M32.086 175.246c2.102 5.612 5.03 7.615 5.836 6.247.806-1.368-5.718-9.412-3.345-21.154.965-4.636 8.425-5.114 7.665.803-.888 4.754 3.388 15.475 5.093 11.884 1.795-3.683-1.223-10.916 7.102-19.921 4.842-4.5 9.858.4 5.666 5.44-4.197 5.019-4.078 18.765 3.187 20.045 7.27 1.3 8.095-7.377 8.04-11.786-.055-4.409 7.213-7.923 8.641 3.929.967 7.897.003 17.602-10.855 26.94 8.636 14.552 31.094 33.488 53.546 35.582-4.217-18.57-5.634-35.102-4.078-48.261 2.871-24.386 15.24-32.631 25.131-35.281 12.915-3.461 23.049 1.404 31.189 5.352 6.841 3.305 12.232 5.916 18.304 4.289 6.071-1.627 9.434-6.583 13.685-12.86 5.103-7.474 11.462-16.781 24.356-20.236 9.891-2.65 24.704-1.689 39.405 17.989 7.948 10.612 14.981 25.616 20.598 43.834 18.419-13.045 28.379-40.667 28.582-57.588-14.072-2.657-19.738-10.586-22.871-17.903-4.689-10.978 3.383-11.574 5.519-7.723 2.157 3.846 7.21 10.948 12.856 6.187 5.673-4.746-1.119-16.705-7.263-18.952-6.165-2.242-4.278-9.015 2.187-7.545 11.713 3.636 12.715 11.409 16.111 13.701 3.272 2.257 1.593-9.16-1.531-12.838-3.623-4.766 3.077-8.082 6.237-4.528 7.925 8.982 6.297 19.21 7.679 19.992 1.383.782 2.917-2.417 1.952-8.334-.98-5.889 5.979-5.15 7.276-1.166 4.391 14.929-2.004 35.859-16.227 39.416-.335 21.149-13.058 54.765-37.098 69.317 6.425 25.006 9.735 53.15 8.887 75.819-1.055 28.07-8.065 44.648-20.337 47.936-17.314 4.64-25.451-5.046-31.43-12.084-5.693-6.746-9.44-11.203-19.974-8.38-10.534 2.822-11.551 8.555-13.13 17.25-1.616 9.073-3.863 21.541-21.177 26.181-12.25 3.282-26.631-7.565-41.559-31.352-12.068-19.208-23.274-45.237-30.213-70.105-28.095-.582-55.927-23.354-66.786-41.481-14.096 4.031-30.078-10.903-33.761-26.021-.847-4.105 4.788-8.219 6.905-2.634zm133.929 133.901c13.399 21.34 23.656 27.439 28.376 26.175 10.041-2.691 10.989-7.991 12.551-16.75 1.619-9.235 3.906-21.898 21.734-26.676 17.829-4.777 26.114 5.031 32.182 12.229 5.732 6.805 9.225 10.915 19.223 8.236 4.741-1.27 10.575-11.681 11.53-36.867.836-22.366-2.619-50.449-9.214-75.063-5.605-20.917-12.979-37.881-21.303-49.037-8.593-11.476-17.59-16.047-26.794-13.58-8.647 2.316-12.809 8.408-17.591 15.45-2.112 3.1-4.329 6.413-7.091 9.319 4.861.034 9.011 1.019 12.445 3.025.856.531.835 1.827-.073 2.3-7.663 4.012-21.041 7.551-39.067 3.095-.238-.028-.444-.111-.687-.161-4.514-1.141-8.654-3.119-12.561-4.998-7.662-3.708-14.291-6.908-22.937-4.591-9.204 2.466-14.711 10.923-16.394 25.152-1.652 13.829.45 32.229 6.049 53.124 6.595 24.615 17.66 50.635 29.574 69.608l.048.01z"/><path d="M224.389 214.107c6.598-2.067 12.563-2.974 17.035-3.02.409-.018.682-.459.471-.818-.8-1.352-2.567-2.284-4.627-2.677.924-2.045 1.16-4.596.475-7.155-1.371-5.116-5.916-8.345-10.142-7.213-4.227 1.133-6.548 6.202-5.177 11.318.593 2.214 1.784 4.084 3.283 5.387-1.17.867-1.937 2.04-2.044 3.613-.031.4.346.69.726.565zm-40.655 56.469a.783.783 0 001.315-.583 31.32 31.32 0 01.328-4.443c7.276 3.212 22.775 6.132 36.957 2.332 14.181-3.799 26.15-14.057 30.839-20.498a30.193 30.193 0 012.505 3.684c.339.577 1.231.476 1.431-.153 3.05-9.642-6.259-17.608-13.879-13.608-.545.284-.548 1.046-.047 1.372a40.996 40.996 0 013.053 2.039c-4.069 5.583-14.702 15.16-26.308 18.27-11.607 3.11-25.583.127-31.92-2.668a40.215 40.215 0 011.625-3.292.788.788 0 00-.726-1.165c-8.6.346-12.673 11.921-5.216 18.724l.043-.011zm9.954-48.242c-6.748 1.508-12.367 3.705-16.263 5.901-.363.19-.82-.056-.817-.472.016-1.571 1.081-3.262 2.668-4.632-1.822-1.309-3.302-3.401-3.988-5.959-1.371-5.116.95-10.185 5.177-11.318 4.227-1.132 8.771 2.097 10.142 7.214.593 2.214.497 4.429-.15 6.307 1.447.165 2.698.798 3.577 2.106a.548.548 0 01-.346.853zM74.783 105.028c-3.316 12.34-12.45 42.874-16.837 57.482-1.314 4.362 1.292 8.94 5.724 10.033a7.913 7.913 0 009.688-6.236c2.84-14.977 8.797-46.296 11.545-58.783.569-2.595.83-5.223.559-7.868a23.226 23.226 0 01.559-7.869l2.103-8.628c.146-.569.602-1.014 1.177-1.099 4.042-.622 7.422-3.97 7.66-8.573.18-3.62-1.901-7.094-5.203-8.605a9.004 9.004 0 00-1.675-.588 8.338 8.338 0 00-1.772-.263c-3.614-.183-7.075 1.919-8.586 5.204a9.047 9.047 0 002.85 11.149c.458.338.69.944.543 1.513l-2.103 8.628a23.575 23.575 0 01-3.12 7.24c-1.426 2.227-2.424 4.683-3.118 7.242l.006.021z"/></g><defs><clipPath id="clip0_348_3793"><path fill="#fff" transform="scale(-1 1) rotate(15 -163.965 -1228.731)" d="M0 0h334.171v301.832H0z"/></clipPath></defs></svg>