<svg width="84" height="24" fill="none" xmlns="http://www.w3.org/2000/svg"><path fill-rule="evenodd" clip-rule="evenodd" d="M10.232 2.787H8.61c-2.975 0-4.53 1.478-4.53 3.672 0 2.485 1.081 3.638 3.301 5.127l1.826 1.209-5.285 7.79H0l4.744-6.962C2.017 11.698.484 9.828.484 6.66.485 2.687 3.28 0 8.588 0h5.274v20.586h-3.629V2.787z" fill="#E63F0C"/><path fill-rule="evenodd" clip-rule="evenodd" d="M39.735 17.81h-5.037c.992-2.25 1.262-6.314 1.262-8.888v-.448h3.786v9.336h-.01zm3.572-12.112H32.895v1.276c0 3.638-.237 8.35-1.5 10.836H30.28V24h3.302v-3.403h8.012V24h3.302v-6.19h-1.589V5.698zm-18.098 5.888h-4.767V5.698H16.87v14.9h3.572v-6.225h4.767v6.224h3.572v-14.9H25.21v5.889zm55.287-3.403c1.386 0 2.727.47 3.448.918V6.112c-.755-.414-2.074-.716-3.843-.716-4.564 0-6.93 3.224-6.93 7.757 0 4.982 2.31 7.736 7.088 7.736 1.656 0 2.817-.291 3.696-.918v-2.877c-.901.627-1.983 1.007-3.482 1.007-2.547 0-3.606-1.959-3.606-5.037 0-3.224 1.296-4.88 3.629-4.88zm-7.799-2.485h-3.606l-5.037 6.873V5.698H60.48v14.9h3.573v-7.322l5.285 7.321h4.046l-5.736-8.026 5.048-6.873zm-18.256 6.101h-4.98c.09-2.373.957-3.616 2.67-3.616 1.77 0 2.31 1.456 2.31 3.314v.302zM52.2 5.396c-4.35 0-6.424 3.291-6.424 7.791 0 5.183 2.58 7.702 7.145 7.702 2.276 0 3.966-.594 5.014-1.299v-2.877c-1.115.739-2.974 1.388-4.71 1.388-2.614 0-3.606-1.209-3.753-3.705h8.61v-1.87c0-5.171-2.31-7.13-5.882-7.13z" fill="#071328"/></svg>