<svg width="90" height="90" viewBox="0 0 90 90" fill="none" xmlns="http://www.w3.org/2000/svg">
<path d="M45 0C51.0744 0 56.9679 1.1902 62.5166 3.53711C67.8752 5.80369 72.6872 9.04844 76.8193 13.1807C80.9515 17.3129 84.1963 22.1248 86.4629 27.4834C88.8099 33.0321 90 38.9256 90 45C90 51.0744 88.8098 56.9679 86.4629 62.5166C84.1963 67.8752 80.9516 72.6872 76.8193 76.8193C72.6872 80.9516 67.8752 84.1963 62.5166 86.4629C56.9678 88.8099 51.0744 90 45 90C38.9256 90 33.0321 88.8098 27.4834 86.4629C22.1247 84.1963 17.3129 80.9516 13.1807 76.8193C9.04843 72.6872 5.80369 67.8752 3.53711 62.5166C1.1902 56.9678 0 51.0744 0 45C0 38.9256 1.1902 33.0321 3.53711 27.4834C5.80369 22.1247 9.04844 17.3129 13.1807 13.1807C17.3129 9.04844 22.1248 5.80369 27.4834 3.53711C33.0321 1.1902 38.9256 0 45 0ZM45 2.8125C21.7378 2.8125 2.8125 21.7378 2.8125 45C2.8125 68.2623 21.7378 87.1875 45 87.1875C68.2623 87.1875 87.1875 68.2623 87.1875 45C87.1875 21.7378 68.2623 2.8125 45 2.8125ZM45 5.8125C50.2896 5.8125 55.4218 6.84877 60.2539 8.89258C64.9205 10.8664 69.1115 13.6916 72.71 17.29C76.3084 20.8885 79.1337 25.0795 81.1074 29.7461C83.1513 34.5782 84.1875 39.7104 84.1875 45C84.1875 50.2896 83.1512 55.4218 81.1074 60.2539C79.1336 64.9205 76.3084 69.1115 72.71 72.71C69.1115 76.3084 64.9205 79.1337 60.2539 81.1074C55.4218 83.1513 50.2896 84.1875 45 84.1875C39.7104 84.1875 34.5782 83.1512 29.7461 81.1074C25.0795 79.1336 20.8885 76.3084 17.29 72.71C13.6916 69.1115 10.8664 64.9205 8.89258 60.2539C6.84879 55.4218 5.8125 50.2896 5.8125 45C5.8125 39.7104 6.84877 34.5782 8.89258 29.7461C10.8664 25.0795 13.6916 20.8885 17.29 17.29C20.8885 13.6916 25.0795 10.8664 29.7461 8.89258C34.5782 6.84877 39.7104 5.8125 45 5.8125ZM45 8.625C24.9428 8.625 8.625 24.9428 8.625 45C8.625 65.0573 24.9428 81.375 45 81.375C65.0573 81.375 81.375 65.0573 81.375 45C81.375 24.9428 65.0573 8.625 45 8.625ZM45 40.6875C47.3779 40.6875 49.3125 42.6221 49.3125 45C49.3125 46.1525 48.8638 47.2357 48.0488 48.0498C47.2357 48.8637 46.1525 49.3125 45 49.3125C42.6221 49.3125 40.6875 47.3779 40.6875 45C40.6875 43.8474 41.1362 42.7642 41.9512 41.9502C42.7642 41.1363 43.8474 40.6875 45 40.6875ZM45 43.5C44.5992 43.5 44.2231 43.6564 43.9404 43.9395C43.6563 44.2233 43.5 44.5993 43.5 45C43.5 45.8271 44.1728 46.5 45 46.5C45.4008 46.5 45.7778 46.3446 46.0605 46.0615C46.3446 45.7778 46.5 45.4008 46.5 45C46.5 44.1729 45.827 43.5 45 43.5Z" fill="#071328"/>
<path d="M45 0C51.0744 0 56.9679 1.1902 62.5166 3.53711C67.8752 5.80369 72.6872 9.04844 76.8193 13.1807C80.9515 17.3129 84.1963 22.1248 86.4629 27.4834C88.8099 33.0321 90 38.9256 90 45C90 51.0744 88.8098 56.9679 86.4629 62.5166C84.1963 67.8752 80.9516 72.6872 76.8193 76.8193C72.6872 80.9516 67.8752 84.1963 62.5166 86.4629C56.9678 88.8099 51.0744 90 45 90C38.9256 90 33.0321 88.8098 27.4834 86.4629C22.1247 84.1963 17.3129 80.9516 13.1807 76.8193C9.04843 72.6872 5.80369 67.8752 3.53711 62.5166C1.1902 56.9678 0 51.0744 0 45C0 38.9256 1.1902 33.0321 3.53711 27.4834C5.80369 22.1247 9.04844 17.3129 13.1807 13.1807C17.3129 9.04844 22.1248 5.80369 27.4834 3.53711C33.0321 1.1902 38.9256 0 45 0ZM45 2.8125C21.7378 2.8125 2.8125 21.7378 2.8125 45C2.8125 68.2623 21.7378 87.1875 45 87.1875C68.2623 87.1875 87.1875 68.2623 87.1875 45C87.1875 21.7378 68.2623 2.8125 45 2.8125ZM45 5.8125C50.2896 5.8125 55.4218 6.84877 60.2539 8.89258C64.9205 10.8664 69.1115 13.6916 72.71 17.29C76.3084 20.8885 79.1337 25.0795 81.1074 29.7461C83.1513 34.5782 84.1875 39.7104 84.1875 45C84.1875 50.2896 83.1512 55.4218 81.1074 60.2539C79.1336 64.9205 76.3084 69.1115 72.71 72.71C69.1115 76.3084 64.9205 79.1337 60.2539 81.1074C55.4218 83.1513 50.2896 84.1875 45 84.1875C39.7104 84.1875 34.5782 83.1512 29.7461 81.1074C25.0795 79.1336 20.8885 76.3084 17.29 72.71C13.6916 69.1115 10.8664 64.9205 8.89258 60.2539C6.84879 55.4218 5.8125 50.2896 5.8125 45C5.8125 39.7104 6.84877 34.5782 8.89258 29.7461C10.8664 25.0795 13.6916 20.8885 17.29 17.29C20.8885 13.6916 25.0795 10.8664 29.7461 8.89258C34.5782 6.84877 39.7104 5.8125 45 5.8125ZM45 8.625C24.9428 8.625 8.625 24.9428 8.625 45C8.625 65.0573 24.9428 81.375 45 81.375C65.0573 81.375 81.375 65.0573 81.375 45C81.375 24.9428 65.0573 8.625 45 8.625ZM45 40.6875C47.3779 40.6875 49.3125 42.6221 49.3125 45C49.3125 46.1525 48.8638 47.2357 48.0488 48.0498C47.2357 48.8637 46.1525 49.3125 45 49.3125C42.6221 49.3125 40.6875 47.3779 40.6875 45C40.6875 43.8474 41.1362 42.7642 41.9512 41.9502C42.7642 41.1363 43.8474 40.6875 45 40.6875ZM45 43.5C44.5992 43.5 44.2231 43.6564 43.9404 43.9395C43.6563 44.2233 43.5 44.5993 43.5 45C43.5 45.8271 44.1728 46.5 45 46.5C45.4008 46.5 45.7778 46.3446 46.0605 46.0615C46.3446 45.7778 46.5 45.4008 46.5 45C46.5 44.1729 45.827 43.5 45 43.5Z" stroke="white"/>
<path d="M24.4825 24.4819C25.0317 23.9328 25.9225 23.9328 26.4717 24.4819L43.1104 41.1196C43.6914 40.836 44.3342 40.686 45.0001 40.686C47.3779 40.686 49.3124 42.6208 49.3126 44.9985C49.3126 46.1507 48.8633 47.2344 48.0489 48.0483L47.8682 48.2192C47.4374 48.6042 46.9415 48.8936 46.4063 49.0776V72.6079C46.4063 73.3846 45.7767 74.0142 45.0001 74.0142C41.0837 74.0142 37.2832 73.2473 33.7051 71.7339C30.2501 70.2724 27.1476 68.1802 24.4835 65.5161C21.8192 62.8518 19.7272 59.7486 18.2657 56.2935C16.7522 52.7154 15.9844 48.9149 15.9844 44.9985C15.9845 41.0823 16.7515 37.2824 18.2647 33.7046C19.7261 30.2494 21.8184 27.1461 24.4825 24.4819ZM25.503 27.4907C21.168 32.3063 18.797 38.4703 18.7969 44.9985C18.7969 58.9752 29.7967 70.4313 43.5938 71.1646V47.9048C43.594 47.1283 44.2235 46.4985 45.0001 46.4985C45.4008 46.4985 45.7778 46.3431 46.0606 46.0601L46.0616 46.0591C46.3445 45.7763 46.5001 45.3993 46.5001 44.9985C46.4998 44.1716 45.827 43.4985 45.0001 43.4985C44.5994 43.4985 44.2232 43.655 43.9405 43.938C43.6768 44.202 43.3185 44.35 42.9454 44.3501L42.8057 44.3433C42.4842 44.3112 42.1819 44.1693 41.9512 43.939L25.503 27.4907Z" fill="#071328"/>
<path d="M24.4825 24.4819C25.0317 23.9328 25.9225 23.9328 26.4717 24.4819L43.1104 41.1196C43.6914 40.836 44.3342 40.686 45.0001 40.686C47.3779 40.686 49.3124 42.6208 49.3126 44.9985C49.3126 46.1507 48.8633 47.2344 48.0489 48.0483L47.8682 48.2192C47.4374 48.6042 46.9415 48.8936 46.4063 49.0776V72.6079C46.4063 73.3846 45.7767 74.0142 45.0001 74.0142C41.0837 74.0142 37.2832 73.2473 33.7051 71.7339C30.2501 70.2724 27.1476 68.1802 24.4835 65.5161C21.8192 62.8518 19.7272 59.7486 18.2657 56.2935C16.7522 52.7154 15.9844 48.9149 15.9844 44.9985C15.9845 41.0823 16.7515 37.2824 18.2647 33.7046C19.7261 30.2494 21.8184 27.1461 24.4825 24.4819ZM25.503 27.4907C21.168 32.3063 18.797 38.4703 18.7969 44.9985C18.7969 58.9752 29.7967 70.4313 43.5938 71.1646V47.9048C43.594 47.1283 44.2235 46.4985 45.0001 46.4985C45.4008 46.4985 45.7778 46.3431 46.0606 46.0601L46.0616 46.0591C46.3445 45.7763 46.5001 45.3993 46.5001 44.9985C46.4998 44.1716 45.827 43.4985 45.0001 43.4985C44.5994 43.4985 44.2232 43.655 43.9405 43.938C43.6768 44.202 43.3185 44.35 42.9454 44.3501L42.8057 44.3433C42.4842 44.3112 42.1819 44.1693 41.9512 43.939L25.503 27.4907Z" stroke="white"/>
<path d="M45 24.7026C45.7767 24.7026 46.4062 25.3322 46.4062 26.1089V42.0933C46.4062 42.8699 45.7767 43.4995 45 43.4995C44.2233 43.4995 43.5938 42.8699 43.5938 42.0933V26.1089C43.5938 25.3322 44.2233 24.7026 45 24.7026Z" fill="#071328"/>
<path d="M45 24.7026C45.7767 24.7026 46.4062 25.3322 46.4062 26.1089V42.0933C46.4062 42.8699 45.7767 43.4995 45 43.4995C44.2233 43.4995 43.5938 42.8699 43.5938 42.0933V26.1089C43.5938 25.3322 44.2233 24.7026 45 24.7026Z" stroke="white"/>
<path d="M46.0609 46.0615C46.6101 45.5124 47.5 45.5124 48.0492 46.0615L63.432 61.4434C63.9811 61.9926 63.9811 62.8834 63.432 63.4326C63.1575 63.7071 62.7976 63.8446 62.4379 63.8447C62.0779 63.8447 61.7174 63.7072 61.4427 63.4326L46.0609 48.0498C45.5118 47.5006 45.5118 46.6107 46.0609 46.0615Z" fill="#071328"/>
<path d="M46.0609 46.0615C46.6101 45.5124 47.5 45.5124 48.0492 46.0615L63.432 61.4434C63.9811 61.9926 63.9811 62.8834 63.432 63.4326C63.1575 63.7071 62.7976 63.8446 62.4379 63.8447C62.0779 63.8447 61.7174 63.7072 61.4427 63.4326L46.0609 48.0498C45.5118 47.5006 45.5118 46.6107 46.0609 46.0615Z" stroke="white"/>
<path d="M45.8626 13.9871C45.117 13.9871 44.5126 13.3551 44.5126 12.5753V8.19887C44.5126 7.41917 45.117 6.78711 45.8626 6.78711C46.6082 6.78711 47.2126 7.41917 47.2126 8.19887V12.5753C47.2126 13.3551 46.6082 13.9871 45.8626 13.9871Z" fill="#071328"/>
<path d="M29.4927 18.487C28.967 18.487 28.4558 18.2459 28.1741 17.8144L25.8166 14.2043C25.3966 13.5611 25.6458 12.7387 26.3733 12.3674C27.1008 11.9961 28.031 12.2164 28.451 12.8596L30.8085 16.4697C31.2285 17.1129 30.9793 17.9353 30.2518 18.3067C30.0123 18.4289 29.7508 18.487 29.4927 18.487Z" fill="#071328"/>
<path d="M17.0664 30.187C16.8382 30.187 16.607 30.1322 16.3952 30.017L12.7851 28.0524C12.142 27.7024 11.9216 26.9272 12.2929 26.321C12.6642 25.7148 13.4866 25.507 14.1299 25.857L17.74 27.8216C18.3831 28.1716 18.6035 28.9468 18.2322 29.5531C17.9831 29.9597 17.5311 30.187 17.0664 30.187Z" fill="#071328"/>
<path d="M12.5008 45.4871H8.12429C7.34458 45.4871 6.71252 44.8827 6.71252 44.1371C6.71252 43.3915 7.34458 42.7871 8.12429 42.7871H12.5008C13.2805 42.7871 13.9125 43.3915 13.9125 44.1371C13.9125 44.8827 13.2805 45.4871 12.5008 45.4871Z" fill="#071328"/>
<path d="M13.4587 64.3873C12.994 64.3873 12.542 64.1145 12.2929 63.6266C11.9216 62.8991 12.142 61.9689 12.7851 61.5489L16.3952 59.1914C17.0384 58.7712 17.8608 59.0206 18.2322 59.7481C18.6035 60.4756 18.3831 61.4058 17.74 61.8257L14.1299 64.1832C13.9181 64.3216 13.6869 64.3873 13.4587 64.3873Z" fill="#071328"/>
<path d="M27.1324 77.8874C26.8743 77.8874 26.6129 77.8293 26.3733 77.707C25.6458 77.3357 25.3966 76.5133 25.8166 75.8701L28.1741 72.26C28.594 71.6168 29.5243 71.3965 30.2518 71.7677C30.9793 72.1391 31.2285 72.9615 30.8085 73.6047L28.451 77.2148C28.1693 77.6462 27.658 77.8874 27.1324 77.8874Z" fill="#071328"/>
<path d="M45.8626 83.2874C45.117 83.2874 44.5126 82.6553 44.5126 81.8756V77.4992C44.5126 76.7195 45.117 76.0874 45.8626 76.0874C46.6082 76.0874 47.2126 76.7195 47.2126 77.4992V81.8756C47.2126 82.6553 46.6082 83.2874 45.8626 83.2874Z" fill="#071328"/>
<path d="M63.046 77.8874C62.6079 77.8874 62.182 77.6463 61.9472 77.2148L59.9825 73.6047C59.6325 72.9616 59.8402 72.1392 60.4464 71.7679C61.0527 71.3964 61.8279 71.6169 62.1778 72.26L64.1425 75.8701C64.4925 76.5133 64.2848 77.3357 63.6786 77.707C63.479 77.8293 63.261 77.8874 63.046 77.8874Z" fill="#071328"/>
<path d="M76.4664 64.3873C76.2383 64.3873 76.0071 64.3216 75.7953 64.1832L72.1851 61.8257C71.542 61.4057 71.3216 60.4755 71.693 59.7481C72.0642 59.0205 72.8866 58.7713 73.5298 59.1914L77.14 61.5489C77.7832 61.9689 78.0035 62.8991 77.6322 63.6266C77.3832 64.1145 76.9311 64.3873 76.4664 64.3873Z" fill="#071328"/>
<path d="M81.8009 45.4871H77.4244C76.6446 45.4871 76.0126 44.8827 76.0126 44.1371C76.0126 43.3915 76.6446 42.7871 77.4244 42.7871H81.8008C82.5805 42.7871 83.2126 43.3915 83.2126 44.1371C83.2126 44.8827 82.5806 45.4871 81.8009 45.4871Z" fill="#071328"/>
<path d="M72.8588 30.187C72.394 30.187 71.9421 29.9597 71.6929 29.5531C71.3216 28.9468 71.542 28.1717 72.1851 27.8217L75.7953 25.8571C76.4385 25.507 77.2608 25.7147 77.6322 26.321C78.0035 26.9272 77.7831 27.7024 77.14 28.0524L73.5299 30.017C73.3181 30.1322 73.0869 30.187 72.8588 30.187Z" fill="#071328"/>
<path d="M61.079 18.487C60.864 18.487 60.6461 18.4289 60.4464 18.3067C59.8402 17.9353 59.6325 17.1129 59.9825 16.4697L61.9472 12.8596C62.2971 12.2164 63.0723 11.9961 63.6786 12.3674C64.2848 12.7387 64.4925 13.5612 64.1425 14.2043L62.1778 17.8144C61.9431 18.2458 61.5171 18.487 61.079 18.487Z" fill="#071328"/>
</svg>
