<svg width="90" height="90" viewBox="0 0 90 90" fill="none" xmlns="http://www.w3.org/2000/svg">
<path d="M63.0359 -0.000244141C63.8125 -0.000194659 64.4421 0.629424 64.4421 1.40601V53.0291C64.4421 53.8056 63.8124 54.4353 63.0359 54.4353H26.9636C26.187 54.4353 25.5574 53.8056 25.5574 53.0291V1.40601C25.5574 0.629398 26.187 -0.00023686 26.9636 -0.000244141H63.0359ZM28.3699 51.6228H61.6296V2.81226H28.3699V51.6228Z" fill="#071328"/>
<path d="M63.0359 -0.000244141C63.8125 -0.000194659 64.4421 0.629424 64.4421 1.40601V53.0291C64.4421 53.8056 63.8124 54.4353 63.0359 54.4353H26.9636C26.187 54.4353 25.5574 53.8056 25.5574 53.0291V1.40601C25.5574 0.629398 26.187 -0.00023686 26.9636 -0.000244141H63.0359ZM28.3699 51.6228H61.6296V2.81226H28.3699V51.6228Z" stroke="white"/>
<path d="M52.1789 37.1401C52.9555 37.1401 53.5851 37.7698 53.5851 38.5464C53.5851 39.323 52.9555 39.9526 52.1789 39.9526H37.8205C37.0436 39.9526 36.4142 39.323 36.4142 38.5464C36.4143 37.7698 37.0439 37.1401 37.8205 37.1401H52.1789Z" fill="#071328"/>
<path d="M52.1789 37.1401C52.9555 37.1401 53.5851 37.7698 53.5851 38.5464C53.5851 39.323 52.9555 39.9526 52.1789 39.9526H37.8205C37.0436 39.9526 36.4142 39.323 36.4142 38.5464C36.4143 37.7698 37.0439 37.1401 37.8205 37.1401H52.1789Z" stroke="white"/>
<path d="M55.0327 42.7598C55.8093 42.7598 56.4389 43.3894 56.4389 44.166C56.4389 44.9429 55.8095 45.5723 55.0327 45.5723H34.9662C34.1896 45.5723 33.56 44.9426 33.56 44.166C33.56 43.3894 34.1896 42.7598 34.9662 42.7598H55.0327Z" fill="#071328"/>
<path d="M55.0327 42.7598C55.8093 42.7598 56.4389 43.3894 56.4389 44.166C56.4389 44.9429 55.8095 45.5723 55.0327 45.5723H34.9662C34.1896 45.5723 33.56 44.9426 33.56 44.166C33.56 43.3894 34.1896 42.7598 34.9662 42.7598H55.0327Z" stroke="white"/>
<path d="M26.9644 9.96436C27.7408 9.9646 28.3706 10.5941 28.3706 11.3706C28.3706 12.1471 27.7408 12.7766 26.9644 12.7769H3.73096V70.1909H86.269V12.7769H63.0356C62.2592 12.7766 61.6294 12.1471 61.6294 11.3706C61.6294 10.5941 62.2592 9.96457 63.0356 9.96436H87.6753C88.4519 9.96439 89.0815 10.594 89.0815 11.3706V71.5972C89.0813 72.3737 88.4518 73.0033 87.6753 73.0034H2.32471C1.54809 73.0034 0.918457 72.3738 0.918457 71.5972V11.3706C0.918463 10.594 1.5481 9.96436 2.32471 9.96436H26.9644Z" fill="#071328"/>
<path d="M26.9644 9.96436C27.7408 9.9646 28.3706 10.5941 28.3706 11.3706C28.3706 12.1471 27.7408 12.7766 26.9644 12.7769H3.73096V70.1909H86.269V12.7769H63.0356C62.2592 12.7766 61.6294 12.1471 61.6294 11.3706C61.6294 10.5941 62.2592 9.96457 63.0356 9.96436H87.6753C88.4519 9.96439 89.0815 10.594 89.0815 11.3706V71.5972C89.0813 72.3737 88.4518 73.0033 87.6753 73.0034H2.32471C1.54809 73.0034 0.918457 72.3738 0.918457 71.5972V11.3706C0.918463 10.594 1.5481 9.96436 2.32471 9.96436H26.9644Z" stroke="white"/>
<path d="M87.6753 63.5952C88.4519 63.5953 89.0815 64.2249 89.0815 65.0015C89.0815 65.778 88.4518 66.4075 87.6753 66.4077H2.32471C1.54809 66.4077 0.918457 65.7781 0.918457 65.0015C0.918464 64.2249 1.5481 63.5952 2.32471 63.5952H87.6753Z" fill="#071328"/>
<path d="M87.6753 63.5952C88.4519 63.5953 89.0815 64.2249 89.0815 65.0015C89.0815 65.778 88.4518 66.4075 87.6753 66.4077H2.32471C1.54809 66.4077 0.918457 65.7781 0.918457 65.0015C0.918464 64.2249 1.5481 63.5952 2.32471 63.5952H87.6753Z" stroke="white"/>
<path d="M41.6547 70.1929C42.4313 70.1929 43.0609 70.8225 43.0609 71.5991V84.2554C43.0607 85.0318 42.4312 85.6616 41.6547 85.6616C40.8782 85.6616 40.2486 85.0318 40.2484 84.2554V71.5991C40.2484 70.8225 40.8781 70.1929 41.6547 70.1929Z" fill="#071328"/>
<path d="M41.6547 70.1929C42.4313 70.1929 43.0609 70.8225 43.0609 71.5991V84.2554C43.0607 85.0318 42.4312 85.6616 41.6547 85.6616C40.8782 85.6616 40.2486 85.0318 40.2484 84.2554V71.5991C40.2484 70.8225 40.8781 70.1929 41.6547 70.1929Z" stroke="white"/>
<path d="M48.345 70.1929C49.1216 70.1929 49.7512 70.8225 49.7512 71.5991V84.2554C49.751 85.0318 49.1215 85.6616 48.345 85.6616C47.5685 85.6616 46.9389 85.0318 46.9387 84.2554V71.5991C46.9387 70.8225 47.5684 70.1929 48.345 70.1929Z" fill="#071328"/>
<path d="M48.345 70.1929C49.1216 70.1929 49.7512 70.8225 49.7512 71.5991V84.2554C49.751 85.0318 49.1215 85.6616 48.345 85.6616C47.5685 85.6616 46.9389 85.0318 46.9387 84.2554V71.5991C46.9387 70.8225 47.5684 70.1929 48.345 70.1929Z" stroke="white"/>
<path d="M58.8897 82.8477C59.6661 82.8479 60.296 83.4774 60.296 84.2539V88.5938C60.2958 89.3701 59.6661 89.9998 58.8897 90H31.1104C30.3339 90 29.7043 89.3703 29.7042 88.5938V84.2539C29.7042 83.4773 30.3338 82.8477 31.1104 82.8477H58.8897ZM32.5167 87.1875H57.4835V85.6602H32.5167V87.1875Z" fill="#071328"/>
<path d="M58.8897 82.8477C59.6661 82.8479 60.296 83.4774 60.296 84.2539V88.5938C60.2958 89.3701 59.6661 89.9998 58.8897 90H31.1104C30.3339 90 29.7043 89.3703 29.7042 88.5938V84.2539C29.7042 83.4773 30.3338 82.8477 31.1104 82.8477H58.8897ZM32.5167 87.1875H57.4835V85.6602H32.5167V87.1875Z" stroke="white"/>
<path d="M48.8207 9.96558C49.8036 9.96559 50.7777 10.1802 51.7152 10.6042C54.3567 11.7986 56.0649 14.4621 56.0677 17.3894V17.4177C56.0677 18.5451 55.6427 19.5596 55.2679 20.4548C55.0334 21.015 54.8119 21.5445 54.7445 21.9832C54.6405 22.6594 54.5546 23.3338 54.4711 23.9861C54.1442 26.5417 53.8343 28.9556 52.5472 31.115L52.5228 31.157C51.9515 32.1103 50.944 32.6697 49.8607 32.6697C49.6809 32.6697 49.499 32.6545 49.3168 32.6228C48.0331 32.4006 47.0389 31.4324 46.7845 30.157C46.0619 26.5341 45.3805 24.9519 44.9994 24.2937C44.618 24.952 43.9368 26.5344 43.2142 30.158C42.9598 31.433 41.9661 32.4005 40.683 32.6228C40.501 32.6543 40.3188 32.6697 40.139 32.6697C39.0557 32.6697 38.0483 32.1103 37.476 31.156L37.4506 31.115C36.1637 28.9561 35.8549 26.542 35.5277 23.9861C35.4442 23.334 35.3583 22.6594 35.2543 21.9832C35.1869 21.5445 34.9654 21.0151 34.7308 20.4548C34.3561 19.5596 33.9311 18.5451 33.931 17.4177V17.3816C33.9327 15.8745 34.3832 14.4185 35.2338 13.1726C36.0885 11.9207 37.2853 10.9736 38.6937 10.4333C39.5031 10.1229 40.3389 9.96562 41.1781 9.96558C42.3744 9.96558 43.5775 10.3657 44.8558 11.1882C44.9415 11.2434 45.057 11.2433 45.1429 11.1882C46.4213 10.3657 47.6244 9.96558 48.8207 9.96558ZM41.1791 12.7781C40.6853 12.7781 40.1882 12.8727 39.7015 13.0593C37.9349 13.7368 36.7465 15.4765 36.7445 17.3875V17.4177C36.7445 17.98 37.0265 18.6548 37.3256 19.3689C37.6156 20.061 37.9149 20.7769 38.0345 21.5564C38.1439 22.2676 38.233 22.9602 38.3187 23.6296C38.62 25.9847 38.8798 28.0189 39.8676 29.6755L39.8881 29.7097C39.9151 29.755 39.996 29.8883 40.2035 29.8523C40.3442 29.8278 40.4289 29.7448 40.4564 29.6072C40.91 27.3332 41.4145 25.5004 41.9545 24.1599C42.4786 22.8589 43.3646 21.1296 45.0004 21.1296C46.636 21.1297 47.5221 22.8589 48.0463 24.1599C48.5863 25.5004 49.0897 27.3332 49.5433 29.6072C49.5707 29.7448 49.6565 29.8269 49.7972 29.8513C50.0055 29.8875 50.0856 29.7537 50.1117 29.7097L50.1342 29.6726C51.12 28.0188 51.3807 25.9848 51.682 23.6296C51.7677 22.9604 51.8561 22.2676 51.9652 21.5564C52.0851 20.777 52.3844 20.061 52.6742 19.3689C52.9733 18.6548 53.2562 17.98 53.2562 17.4177V17.3914C53.2545 15.5667 52.1949 13.9082 50.557 13.1677C49.986 12.9097 49.4021 12.7791 48.8217 12.7791C48.1818 12.7791 47.4768 13.0323 46.6664 13.5535C45.6547 14.2043 44.347 14.2042 43.3353 13.5535C42.5244 13.0315 41.8189 12.7781 41.1791 12.7781Z" fill="#071328"/>
<path d="M48.8207 9.96558C49.8036 9.96559 50.7777 10.1802 51.7152 10.6042C54.3567 11.7986 56.0649 14.4621 56.0677 17.3894V17.4177C56.0677 18.5451 55.6427 19.5596 55.2679 20.4548C55.0334 21.015 54.8119 21.5445 54.7445 21.9832C54.6405 22.6594 54.5546 23.3338 54.4711 23.9861C54.1442 26.5417 53.8343 28.9556 52.5472 31.115L52.5228 31.157C51.9515 32.1103 50.944 32.6697 49.8607 32.6697C49.6809 32.6697 49.499 32.6545 49.3168 32.6228C48.0331 32.4006 47.0389 31.4324 46.7845 30.157C46.0619 26.5341 45.3805 24.9519 44.9994 24.2937C44.618 24.952 43.9368 26.5344 43.2142 30.158C42.9598 31.433 41.9661 32.4005 40.683 32.6228C40.501 32.6543 40.3188 32.6697 40.139 32.6697C39.0557 32.6697 38.0483 32.1103 37.476 31.156L37.4506 31.115C36.1637 28.9561 35.8549 26.542 35.5277 23.9861C35.4442 23.334 35.3583 22.6594 35.2543 21.9832C35.1869 21.5445 34.9654 21.0151 34.7308 20.4548C34.3561 19.5596 33.9311 18.5451 33.931 17.4177V17.3816C33.9327 15.8745 34.3832 14.4185 35.2338 13.1726C36.0885 11.9207 37.2853 10.9736 38.6937 10.4333C39.5031 10.1229 40.3389 9.96562 41.1781 9.96558C42.3744 9.96558 43.5775 10.3657 44.8558 11.1882C44.9415 11.2434 45.057 11.2433 45.1429 11.1882C46.4213 10.3657 47.6244 9.96558 48.8207 9.96558ZM41.1791 12.7781C40.6853 12.7781 40.1882 12.8727 39.7015 13.0593C37.9349 13.7368 36.7465 15.4765 36.7445 17.3875V17.4177C36.7445 17.98 37.0265 18.6548 37.3256 19.3689C37.6156 20.061 37.9149 20.7769 38.0345 21.5564C38.1439 22.2676 38.233 22.9602 38.3187 23.6296C38.62 25.9847 38.8798 28.0189 39.8676 29.6755L39.8881 29.7097C39.9151 29.755 39.996 29.8883 40.2035 29.8523C40.3442 29.8278 40.4289 29.7448 40.4564 29.6072C40.91 27.3332 41.4145 25.5004 41.9545 24.1599C42.4786 22.8589 43.3646 21.1296 45.0004 21.1296C46.636 21.1297 47.5221 22.8589 48.0463 24.1599C48.5863 25.5004 49.0897 27.3332 49.5433 29.6072C49.5707 29.7448 49.6565 29.8269 49.7972 29.8513C50.0055 29.8875 50.0856 29.7537 50.1117 29.7097L50.1342 29.6726C51.12 28.0188 51.3807 25.9848 51.682 23.6296C51.7677 22.9604 51.8561 22.2676 51.9652 21.5564C52.0851 20.777 52.3844 20.061 52.6742 19.3689C52.9733 18.6548 53.2562 17.98 53.2562 17.4177V17.3914C53.2545 15.5667 52.1949 13.9082 50.557 13.1677C49.986 12.9097 49.4021 12.7791 48.8217 12.7791C48.1818 12.7791 47.4768 13.0323 46.6664 13.5535C45.6547 14.2043 44.347 14.2042 43.3353 13.5535C42.5244 13.0315 41.8189 12.7781 41.1791 12.7781Z" stroke="white"/>
</svg>
