<svg width="82" height="90" viewBox="0 0 82 90" fill="none" xmlns="http://www.w3.org/2000/svg">
<path d="M53.3282 64.8105L42.1065 71.7734L41.9883 71.8467V86.9473H77.9932V78.7373C77.9808 71.039 71.7503 64.7973 64.0528 64.7725H53.3887L53.3282 64.8105ZM51.21 54.3467C44.7753 57.5284 37.2247 57.5283 30.7901 54.3467L30.4287 54.168V62.6689L30.542 62.7432L40.5655 69.3193L40.6992 69.4072L40.835 69.3223L51.4532 62.6836L51.5713 62.6104V54.168L51.21 54.3467ZM61.3018 45.0791C60.323 46.6837 59.1658 48.173 57.8526 49.5166L57.8516 49.5176C56.8252 50.5838 55.6968 51.5471 54.4815 52.3916L54.3741 52.4658V55.3643H70.1035L69.4903 54.9131C67.2828 53.2886 65.3896 51.2774 63.9014 48.9766L63.8994 48.9746L63.5987 48.5088C62.9058 47.4164 62.2851 46.2791 61.7422 45.1045L61.5459 44.6797L61.3018 45.0791ZM61.2764 36.5488L45.583 41.1426C42.5907 42.0201 39.4094 42.0201 36.417 41.1426L20.7237 36.5488L20.3242 36.4316L20.4092 36.8398C21.2542 40.8863 23.2409 44.6069 26.1338 47.5605V47.5615C30.1305 51.6667 35.4112 53.9307 41 53.9307C46.4142 53.9307 51.5387 51.8055 55.4873 47.9404L55.8653 47.5615C58.7587 44.6077 60.7457 40.8868 61.5909 36.8398L61.6758 36.4316L61.2764 36.5488ZM19.9014 32.4482C19.9014 32.5888 19.9113 32.7273 19.9219 32.8564C19.9328 32.9885 19.9441 33.1094 19.9483 33.2305L19.9541 33.4111L20.128 33.4619L37.211 38.4541C39.6918 39.1803 42.3288 39.1802 44.8096 38.4541L61.875 33.4619L62.0489 33.4111L62.0547 33.2305C62.0589 33.109 62.0691 32.9873 62.0791 32.8555C62.0889 32.7262 62.0987 32.5885 62.0987 32.4492V21.6309H19.9014V32.4482ZM16.709 26.5576C15.8416 27.1405 15.0586 28.1662 15.0586 29.3193C15.0587 30.4733 15.8416 31.4992 16.709 32.082L17.0987 32.3438V26.2959L16.709 26.5576ZM64.9014 32.2959L65.291 32.0352C66.139 31.4664 66.664 30.5321 66.7149 29.5195L66.7188 29.3164C66.7307 28.2295 66.194 27.209 65.291 26.6035L64.9014 26.3428V32.2959ZM19.9453 3.05273C19.1578 3.05714 18.4043 3.37639 17.8535 3.93945C17.372 4.43122 17.0794 5.07368 17.0215 5.75391L17.0117 6.04395V18.8281H64.5752V6.04395C64.58 5.25505 64.2719 4.49574 63.7178 3.93457H63.7168C63.1615 3.37411 62.4057 3.05635 61.6162 3.05273H19.9453ZM39.1856 71.8281L39.0742 71.7539L28.5996 64.8145L28.5371 64.7725H17.9473C10.2497 64.7973 4.01929 71.0389 4.00687 78.7373V86.9473H39.1856V71.8281ZM27.626 52.4658L27.5186 52.3916C26.3041 51.5463 25.1759 50.5837 24.1504 49.5176L24.1485 49.5156L23.6602 49.0029C22.5373 47.7902 21.5366 46.4688 20.6739 45.0576L20.4297 44.6572L20.2334 45.084C19.613 46.4342 18.891 47.7358 18.0733 48.9756L18.0723 48.9775C16.5818 51.2783 14.6859 53.2885 12.4776 54.9131L11.8643 55.3643H27.626V52.4658ZM14.209 6.04297C14.1997 4.51281 14.7996 3.04157 15.876 1.95508C16.8851 0.93603 18.2357 0.333039 19.6612 0.257812L19.9473 0.25H61.6143L61.9112 0.258789C64.9647 0.421513 67.3854 2.95223 67.378 6.04395V20.3008C67.38 20.661 67.2358 21.006 66.9776 21.2568V21.2578C66.7518 21.4776 66.4562 21.6079 66.1446 21.6289L66.0098 21.6309H64.9014V23.3965L65.083 23.4482C67.7043 24.1916 69.5085 26.5932 69.4932 29.3174C69.4777 32.1206 67.5664 34.5575 64.8477 35.2393L64.6817 35.2812L64.6602 35.4512C64.4224 37.3873 63.9514 39.2874 63.2578 41.1104L63.2256 41.1924L63.2539 41.2773C63.6265 42.4121 64.7734 45.5114 67.042 48.5391C69.3117 51.5682 72.7184 54.5427 77.6084 55.3848V55.3857C78.3249 55.509 78.828 56.1603 78.7666 56.8848C78.7044 57.6102 78.098 58.1668 77.3701 58.167H54.3741V61.9697H64.0518C73.2763 61.9699 80.7959 69.512 80.7959 78.7383V88.3418C80.7905 89.1198 80.1586 89.7479 79.3799 89.75H2.62015C1.88965 89.7481 1.288 89.1951 1.21194 88.4844L1.20413 88.3408V78.7383C1.20413 69.512 8.7237 61.9698 17.9483 61.9697H27.626V58.167H4.59476C3.86601 58.1684 3.25765 57.6119 3.19534 56.8867C3.13242 56.1617 3.63608 55.5091 4.35355 55.3857L4.35452 55.3848C9.28219 54.5361 12.6999 51.5423 14.9688 48.502C17.2368 45.4626 18.3706 42.3597 18.7305 41.252L18.7578 41.168L18.7266 41.0859C18.0362 39.2719 17.5655 37.3819 17.3252 35.4561L17.3047 35.2842L17.1367 35.2441L16.8809 35.1758C14.2606 34.4225 12.2843 32.0367 12.2842 29.3193C12.2842 26.5766 14.328 24.1702 16.916 23.4414L17.0987 23.3896V21.6309H15.5518C15.2393 21.6409 14.9357 21.5385 14.6944 21.3447L14.5948 21.2559C14.3411 21.0048 14.2016 20.6606 14.209 20.3047V6.04297Z" fill="#071328" stroke="white" stroke-width="0.5"/>
<path d="M30.9451 33.3397C33.9712 33.3357 36.4233 30.8836 36.4273 27.8574C36.4273 26.9455 35.6879 26.2061 34.776 26.2061C33.8632 26.2061 33.1246 26.9455 33.1246 27.8574C33.1125 29.0524 32.1401 30.016 30.9451 30.016C29.7501 30.016 28.7776 29.0524 28.7663 27.8574C28.7663 26.9455 28.0269 26.2061 27.115 26.2061C26.203 26.2061 25.4636 26.9455 25.4636 27.8574C25.4668 30.8836 27.9189 33.3357 30.9451 33.3397Z" fill="#071328"/>
<path d="M50.0971 33.3397C53.1233 33.3357 55.5753 30.8836 55.5794 27.8574C55.5794 26.9455 54.8399 26.2061 53.928 26.2061C53.0152 26.2061 52.2766 26.9455 52.2766 27.8574C52.2766 29.0613 51.3009 30.037 50.0971 30.037C48.894 30.037 47.9184 29.0613 47.9184 27.8574C47.9184 26.9455 47.1789 26.2061 46.267 26.2061C45.355 26.2061 44.6156 26.9455 44.6156 27.8574C44.6188 30.8836 47.0709 33.3357 50.0971 33.3397Z" fill="#071328"/>
<path d="M43.6835 9.28969H42.445V7.84474C42.445 6.93277 41.7056 6.19336 40.7936 6.19336C39.8816 6.19336 39.1422 6.93277 39.1422 7.84474V9.28969H38.1101C37.1982 9.28969 36.4587 10.0291 36.4587 10.9411C36.4587 11.853 37.1982 12.5924 38.1101 12.5924H39.1422V13.4181C39.1422 14.3301 39.8816 15.0695 40.7936 15.0695C41.7056 15.0695 42.445 14.3301 42.445 13.4181V12.5924H43.6835C44.5955 12.5924 45.3349 11.853 45.3349 10.9411C45.3349 10.0291 44.5955 9.28969 43.6835 9.28969Z" fill="#071328"/>
</svg>
