<svg width="76" height="90" viewBox="0 0 76 90" fill="none" xmlns="http://www.w3.org/2000/svg">
<path d="M13.8127 34.2212C14.5709 33.5713 15.8499 33.7409 16.5881 34.7251L16.5978 34.7378L16.6086 34.7505C17.2572 35.5074 17.0891 36.7822 16.1096 37.521C9.11815 42.4335 5.25604 50.3192 5.25604 58.7847C5.25609 73.3557 17.1498 85.2485 31.7209 85.2485C39.2918 85.2485 46.4262 82.1329 51.3381 76.6323C52.1486 75.8317 53.4439 75.7972 54.4357 76.52C55.2419 77.3497 55.2391 78.6388 54.5363 79.4614C48.7996 85.9128 40.624 89.5005 31.8664 89.5005C15.0747 89.5003 1.29706 75.8647 1.29706 58.9302C1.29715 49.1726 6.03367 39.9857 13.7853 34.2437L13.799 34.2329L13.8127 34.2212Z" fill="#071328" stroke="white"/>
<path d="M27.0526 4.89746C23.7048 4.89771 21.1562 7.60955 21.1561 10.7939C21.1561 13.9873 23.8593 16.6912 27.0526 16.6914C30.2461 16.6914 32.9501 13.9874 32.9501 10.7939C32.95 7.60055 30.246 4.89746 27.0526 4.89746ZM24.7811 47.9609L23.1766 20.1006L23.1591 19.8066L22.8934 19.6787L22.5702 19.5166C19.2652 17.7888 17.0507 14.4033 17.0507 10.502C17.0509 4.94379 21.4944 0.500242 27.0526 0.5C32.611 0.5 37.0553 4.94364 37.0555 10.502C37.0555 15.7843 33.0251 20.0903 27.8876 20.5068L27.4052 20.5459L27.4286 21.0293L27.7206 27.0098L27.744 27.4854H49.5165C50.699 27.4854 51.6425 28.4288 51.6425 29.6113C51.6422 30.7937 50.6989 31.7363 49.5165 31.7363H27.9794L28.0126 32.2676L28.8876 46.416L28.9169 46.8857H60.3104C61.9244 46.8857 63.1859 48.122 63.3134 49.7793V49.7832L65.2098 72.1006L65.2518 72.5986L65.7499 72.5566L72.6063 71.9727L72.6132 71.9717C73.8109 71.8519 74.6893 72.6787 74.6893 73.6631V73.6875L74.6913 73.7119C74.8077 74.8758 74.0103 75.8132 72.8104 75.9355L64.2303 76.6631H64.1034C62.7482 76.6631 61.3663 75.538 61.1024 74.1885V73.9336L61.1005 73.9121L59.204 51.3037L59.1659 50.8447H27.7821C26.1484 50.8446 24.7812 49.4508 24.7811 47.9902V47.9609Z" fill="#071328" stroke="white"/>
</svg>
