<svg width="90" height="90" viewBox="0 0 90 90" fill="none" xmlns="http://www.w3.org/2000/svg">
<path d="M83.7445 30.8633C84.5211 30.8633 85.1508 31.4929 85.1508 32.2695V83.5742C85.1508 87.1169 82.2679 90 78.725 90C75.1822 89.9997 72.3002 87.117 72.3002 83.5742V32.2695C72.3002 31.4929 72.9298 30.8633 73.7064 30.8633H83.7445ZM75.1127 83.5742C75.1127 85.5662 76.7333 87.1872 78.725 87.1875C80.7172 87.1875 82.3383 85.5662 82.3383 83.5742V33.6758H75.1127V83.5742Z" fill="#071328"/>
<path d="M83.7445 30.8633C84.5211 30.8633 85.1508 31.4929 85.1508 32.2695V83.5742C85.1508 87.1169 82.2679 90 78.725 90C75.1822 89.9997 72.3002 87.117 72.3002 83.5742V32.2695C72.3002 31.4929 72.9298 30.8633 73.7064 30.8633H83.7445ZM75.1127 83.5742C75.1127 85.5662 76.7333 87.1872 78.725 87.1875C80.7172 87.1875 82.3383 85.5662 82.3383 83.5742V33.6758H75.1127V83.5742Z" stroke="white"/>
<path d="M83.7445 78.5259C84.5211 78.5259 85.1508 79.1555 85.1508 79.9321C85.1508 80.7087 84.5211 81.3384 83.7445 81.3384H73.7064C72.9298 81.3384 72.3002 80.7087 72.3002 79.9321C72.3002 79.1555 72.9298 78.5259 73.7064 78.5259H83.7445Z" fill="#071328"/>
<path d="M83.7445 78.5259C84.5211 78.5259 85.1508 79.1555 85.1508 79.9321C85.1508 80.7087 84.5211 81.3384 83.7445 81.3384H73.7064C72.9298 81.3384 72.3002 80.7087 72.3002 79.9321C72.3002 79.1555 72.9298 78.5259 73.7064 78.5259H83.7445Z" stroke="white"/>
<path d="M78.7256 16.6128C79.5022 16.6128 80.1318 17.2424 80.1318 18.019V32.269C80.1318 33.0456 79.5022 33.6753 78.7256 33.6753C77.949 33.6753 77.3193 33.0456 77.3193 32.269V18.019C77.3193 17.2424 77.949 16.6128 78.7256 16.6128Z" fill="#071328"/>
<path d="M78.7256 16.6128C79.5022 16.6128 80.1318 17.2424 80.1318 18.019V32.269C80.1318 33.0456 79.5022 33.6753 78.7256 33.6753C77.949 33.6753 77.3193 33.0456 77.3193 32.269V18.019C77.3193 17.2424 77.949 16.6128 78.7256 16.6128Z" stroke="white"/>
<path d="M82.5675 0.0759277C84.4145 -0.210147 86.2878 0.323741 87.7072 1.53979C89.1265 2.75606 89.9405 4.52596 89.9406 6.39526V13.7175C89.9406 15.5867 89.1266 17.3565 87.7072 18.573C86.5392 19.5741 85.064 20.113 83.549 20.113C83.2229 20.113 82.8948 20.0876 82.5675 20.0369L75.9083 19.0056C73.7741 18.6747 71.8245 17.5898 70.4191 15.95C69.0133 14.3098 68.2394 12.2163 68.2394 10.0564C68.2395 7.89664 69.0136 5.8036 70.4191 4.16382C71.8245 2.52389 73.7741 1.43905 75.9083 1.10815L82.5675 0.0759277ZM83.548 2.81323C83.3651 2.81323 83.1813 2.82764 82.9982 2.8562L76.339 3.88745C73.2755 4.36224 71.0519 6.95744 71.0519 10.0574C71.052 13.1574 73.2756 15.7515 76.339 16.2263L82.9982 17.2585C84.0327 17.4189 85.082 17.1195 85.8771 16.4382C86.672 15.7568 87.1281 14.7654 87.1281 13.7185V6.39624C87.1281 5.34913 86.672 4.35693 85.8771 3.67554C85.2229 3.11527 84.3966 2.81324 83.548 2.81323Z" fill="#071328"/>
<path d="M82.5675 0.0759277C84.4145 -0.210147 86.2878 0.323741 87.7072 1.53979C89.1265 2.75606 89.9405 4.52596 89.9406 6.39526V13.7175C89.9406 15.5867 89.1266 17.3565 87.7072 18.573C86.5392 19.5741 85.064 20.113 83.549 20.113C83.2229 20.113 82.8948 20.0876 82.5675 20.0369L75.9083 19.0056C73.7741 18.6747 71.8245 17.5898 70.4191 15.95C69.0133 14.3098 68.2394 12.2163 68.2394 10.0564C68.2395 7.89664 69.0136 5.8036 70.4191 4.16382C71.8245 2.52389 73.7741 1.43905 75.9083 1.10815L82.5675 0.0759277ZM83.548 2.81323C83.3651 2.81323 83.1813 2.82764 82.9982 2.8562L76.339 3.88745C73.2755 4.36224 71.0519 6.95744 71.0519 10.0574C71.052 13.1574 73.2756 15.7515 76.339 16.2263L82.9982 17.2585C84.0327 17.4189 85.082 17.1195 85.8771 16.4382C86.672 15.7568 87.1281 14.7654 87.1281 13.7185V6.39624C87.1281 5.34913 86.672 4.35693 85.8771 3.67554C85.2229 3.11527 84.3966 2.81324 83.548 2.81323Z" stroke="white"/>
<path d="M69.6454 8.65112C70.422 8.65112 71.0516 9.28077 71.0516 10.0574C71.0516 10.834 70.422 11.4636 69.6454 11.4636H58.9774C58.2008 11.4636 57.5712 10.834 57.5712 10.0574C57.5712 9.28077 58.2008 8.65112 58.9774 8.65112H69.6454Z" fill="#071328"/>
<path d="M69.6454 8.65112C70.422 8.65112 71.0516 9.28077 71.0516 10.0574C71.0516 10.834 70.422 11.4636 69.6454 11.4636H58.9774C58.2008 11.4636 57.5712 10.834 57.5712 10.0574C57.5712 9.28077 58.2008 8.65112 58.9774 8.65112H69.6454Z" stroke="white"/>
<path d="M43.3751 0.362305C43.9518 -0.157956 44.8412 -0.111813 45.3615 0.464844C45.8815 1.04151 45.8355 1.93001 45.2589 2.4502L37.171 9.74707L45.1583 15.7109C45.5138 15.9763 45.7238 16.3943 45.7238 16.8379V32.2686C45.7235 33.0456 45.094 33.6757 44.3175 33.6758C43.5409 33.6758 42.9113 33.0461 42.9113 32.2695V17.543L34.1163 10.9766C33.7792 10.7249 33.5724 10.3354 33.5529 9.91504C33.5333 9.49463 33.7032 9.08764 34.0157 8.80566L43.3751 0.362305Z" fill="#071328"/>
<path d="M43.3751 0.362305C43.9518 -0.157956 44.8412 -0.111813 45.3615 0.464844C45.8815 1.04151 45.8355 1.93001 45.2589 2.4502L37.171 9.74707L45.1583 15.7109C45.5138 15.9763 45.7238 16.3943 45.7238 16.8379V32.2686C45.7235 33.0456 45.094 33.6757 44.3175 33.6758C43.5409 33.6758 42.9113 33.0461 42.9113 32.2695V17.543L34.1163 10.9766C33.7792 10.7249 33.5724 10.3354 33.5529 9.91504C33.5333 9.49463 33.7032 9.08764 34.0157 8.80566L43.3751 0.362305Z" stroke="white"/>
<path d="M49.3363 30.8633C50.1129 30.8633 50.7426 31.4929 50.7426 32.2695V83.5742C50.7426 87.1169 47.8595 90 44.3168 90C40.774 89.9997 37.892 87.117 37.892 83.5742V32.2695C37.892 31.4929 38.5216 30.8633 39.2982 30.8633H49.3363ZM40.7045 83.5742C40.7045 85.5663 42.3249 87.1874 44.3168 87.1875C46.3087 87.1875 47.9301 85.5662 47.9301 83.5742V33.6758H40.7045V83.5742Z" fill="#071328"/>
<path d="M49.3363 30.8633C50.1129 30.8633 50.7426 31.4929 50.7426 32.2695V83.5742C50.7426 87.1169 47.8595 90 44.3168 90C40.774 89.9997 37.892 87.117 37.892 83.5742V32.2695C37.892 31.4929 38.5216 30.8633 39.2982 30.8633H49.3363ZM40.7045 83.5742C40.7045 85.5663 42.3249 87.1874 44.3168 87.1875C46.3087 87.1875 47.9301 85.5662 47.9301 83.5742V33.6758H40.7045V83.5742Z" stroke="white"/>
<path d="M49.3363 78.5259C50.1129 78.5259 50.7426 79.1555 50.7426 79.9321C50.7426 80.7087 50.1129 81.3384 49.3363 81.3384H39.2982C38.5216 81.3384 37.892 80.7087 37.892 79.9321C37.892 79.1555 38.5216 78.5259 39.2982 78.5259H49.3363Z" fill="#071328"/>
<path d="M49.3363 78.5259C50.1129 78.5259 50.7426 79.1555 50.7426 79.9321C50.7426 80.7087 50.1129 81.3384 49.3363 81.3384H39.2982C38.5216 81.3384 37.892 80.7087 37.892 79.9321C37.892 79.1555 38.5216 78.5259 39.2982 78.5259H49.3363Z" stroke="white"/>
<path d="M14.9277 78.5264C15.7043 78.5264 16.334 79.156 16.334 79.9326C16.3337 80.7092 15.7043 81.3389 14.9277 81.3389H4.88965C4.11304 81.3389 3.4834 80.7092 3.4834 79.9326C3.4834 79.156 4.11304 78.5264 4.88965 78.5264H14.9277Z" fill="#071328"/>
<path d="M14.9277 78.5264C15.7043 78.5264 16.334 79.156 16.334 79.9326C16.3337 80.7092 15.7043 81.3389 14.9277 81.3389H4.88965C4.11304 81.3389 3.4834 80.7092 3.4834 79.9326C3.4834 79.156 4.11304 78.5264 4.88965 78.5264H14.9277Z" stroke="white"/>
<path d="M9.90894 16.8877C10.6855 16.8877 11.3152 17.5173 11.3152 18.2939V32.2695C11.3152 33.0461 10.6855 33.6758 9.90894 33.6758C9.13232 33.6758 8.50269 33.0461 8.50269 32.2695V18.2939C8.50269 17.5173 9.13232 16.8877 9.90894 16.8877Z" fill="#071328"/>
<path d="M9.90894 16.8877C10.6855 16.8877 11.3152 17.5173 11.3152 18.2939V32.2695C11.3152 33.0461 10.6855 33.6758 9.90894 33.6758C9.13232 33.6758 8.50269 33.0461 8.50269 32.2695V18.2939C8.50269 17.5173 9.13232 16.8877 9.90894 16.8877Z" stroke="white"/>
<path d="M9.90857 0.000488281C15.3397 0.000488281 19.7581 4.41906 19.7582 9.8501C19.7582 15.2812 15.3397 19.6997 9.90857 19.6997C4.47753 19.6996 0.05896 15.2811 0.05896 9.8501C0.0590655 4.41914 4.47759 0.000615527 9.90857 0.000488281ZM9.90857 2.81299C6.02837 2.81312 2.87157 5.96991 2.87146 9.8501C2.87146 13.7304 6.02831 16.8871 9.90857 16.8872C13.7889 16.8872 16.9457 13.7304 16.9457 9.8501C16.9456 5.96959 13.7889 2.81299 9.90857 2.81299Z" fill="#071328"/>
<path d="M9.90857 0.000488281C15.3397 0.000488281 19.7581 4.41906 19.7582 9.8501C19.7582 15.2812 15.3397 19.6997 9.90857 19.6997C4.47753 19.6996 0.05896 15.2811 0.05896 9.8501C0.0590655 4.41914 4.47759 0.000615527 9.90857 0.000488281ZM9.90857 2.81299C6.02837 2.81312 2.87157 5.96991 2.87146 9.8501C2.87146 13.7304 6.02831 16.8871 9.90857 16.8872C13.7889 16.8872 16.9457 13.7304 16.9457 9.8501C16.9456 5.96959 13.7889 2.81299 9.90857 2.81299Z" stroke="white"/>
<path d="M14.9277 30.8635C15.7043 30.8635 16.334 31.4932 16.334 32.2698V83.5745C16.3337 87.1172 13.4512 90.0002 9.9082 90.0002C6.36546 90 3.4834 87.1173 3.4834 83.5745V32.2698C3.4834 31.4932 4.11304 30.8635 4.88965 30.8635H14.9277ZM6.2959 83.5745C6.2959 85.5666 7.91637 87.1876 9.9082 87.1877C11.9004 87.1877 13.5215 85.5664 13.5215 83.5745V33.676H6.2959V83.5745Z" fill="#071328"/>
<path d="M14.9277 30.8635C15.7043 30.8635 16.334 31.4932 16.334 32.2698V83.5745C16.3337 87.1172 13.4512 90.0002 9.9082 90.0002C6.36546 90 3.4834 87.1173 3.4834 83.5745V32.2698C3.4834 31.4932 4.11304 30.8635 4.88965 30.8635H14.9277ZM6.2959 83.5745C6.2959 85.5666 7.91637 87.1876 9.9082 87.1877C11.9004 87.1877 13.5215 85.5664 13.5215 83.5745V33.676H6.2959V83.5745Z" stroke="white"/>
</svg>
