<svg width="90" height="90" viewBox="0 0 90 90" fill="none" xmlns="http://www.w3.org/2000/svg">
<path fill-rule="evenodd" clip-rule="evenodd" d="M45.2527 40.4853C44.8928 40.4853 44.533 40.3481 44.2583 40.0735L40.9995 36.8146C40.4502 36.2653 40.4502 35.3749 40.9995 34.8259C41.5486 34.2768 42.439 34.2768 42.9883 34.8259L46.2471 38.0847C46.7962 38.634 46.7962 39.5244 46.2471 40.0735C45.9724 40.3479 45.6126 40.4853 45.2527 40.4853Z" fill="#071328"/>
<path fill-rule="evenodd" clip-rule="evenodd" d="M52.2843 37.4568C51.9244 37.4568 51.5646 37.3196 51.2899 37.0449L46.0294 31.7844C45.4803 31.2351 45.4803 30.3447 46.0294 29.7956C46.5787 29.2465 47.4688 29.2465 48.0181 29.7956L53.2787 35.0561C53.8278 35.6054 53.8278 36.4958 53.2787 37.0449C53.004 37.3193 52.6441 37.4568 52.2843 37.4568Z" fill="#071328"/>
<path fill-rule="evenodd" clip-rule="evenodd" d="M55.3125 30.4258C54.9526 30.4258 54.5927 30.2885 54.3181 30.0139L51.0593 26.7551C50.5102 26.2058 50.5102 25.3156 51.0593 24.7663C51.6086 24.2172 52.499 24.2172 53.048 24.7663L56.3069 28.0251C56.8559 28.5744 56.8559 29.4646 56.3069 30.0139C56.0322 30.2885 55.6723 30.4258 55.3125 30.4258Z" fill="#071328"/>
<path fill-rule="evenodd" clip-rule="evenodd" d="M62.3439 27.3972C61.984 27.3972 61.6241 27.26 61.3495 26.9853L56.0889 21.7248C55.5399 21.1757 55.5399 20.2851 56.0889 19.736C56.6383 19.1869 57.5284 19.1869 58.0777 19.736L63.3382 24.9966C63.8873 25.5459 63.8873 26.4363 63.3382 26.9853C63.0636 27.26 62.7037 27.3972 62.3439 27.3972Z" fill="#071328"/>
<path fill-rule="evenodd" clip-rule="evenodd" d="M65.372 20.3657C65.0122 20.3657 64.6523 20.2285 64.3776 19.9538L61.1188 16.695C60.5698 16.1457 60.5698 15.2553 61.1188 14.7062C61.6682 14.1572 62.5583 14.1572 63.1076 14.7062L66.3664 17.965C66.9155 18.5141 66.9155 19.4045 66.3664 19.9538C66.0918 20.2282 65.7319 20.3657 65.372 20.3657Z" fill="#071328"/>
<path fill-rule="evenodd" clip-rule="evenodd" d="M13.4158 34.5491H2.37152C1.80267 34.5491 1.28997 34.2066 1.07219 33.6812C0.854664 33.1558 0.975026 32.5508 1.37713 32.1487L10.021 23.5049H2.37152C1.5949 23.5049 0.965259 22.8753 0.965259 22.0986C0.965259 21.322 1.5949 20.6924 2.37152 20.6924H13.416C13.9849 20.6924 14.4976 21.0349 14.7153 21.5603C14.9331 22.0857 14.8128 22.6907 14.4104 23.0928L5.76631 31.7364H13.4158C14.1924 31.7364 14.822 32.366 14.822 33.1426C14.822 33.9195 14.1926 34.5491 13.4158 34.5491Z" fill="#071328"/>
<path fill-rule="evenodd" clip-rule="evenodd" d="M19.589 51.4105H13.4159C12.847 51.4105 12.3344 51.0677 12.1168 50.5423C11.899 50.0166 12.0194 49.4119 12.4215 49.0098L16.194 45.2373H13.4159C12.6393 45.2373 12.0096 44.6077 12.0096 43.8311C12.0096 43.0544 12.6393 42.4248 13.4159 42.4248H19.589C20.1579 42.4248 20.6706 42.7673 20.8884 43.2927C21.1059 43.8181 20.9858 44.4231 20.5837 44.8252L16.8114 48.5977H19.5893C20.3659 48.5977 20.9955 49.2273 20.9955 50.0039C20.9955 50.7806 20.3659 51.4105 19.589 51.4105Z" fill="#071328"/>
<path fill-rule="evenodd" clip-rule="evenodd" d="M40.8553 56.8752C38.4505 56.8752 36.2698 56.0058 34.6494 54.3857C32.856 52.5922 31.9824 50.112 32.1899 47.4013C32.3911 44.7716 33.5945 42.2306 35.5789 40.2464L66.1489 9.67645C66.6982 9.12738 67.5883 9.12738 68.1377 9.67645C68.6867 10.2255 68.6867 11.1162 68.1377 11.6652L37.5674 42.2352C34.5095 45.2931 34.0928 49.8515 36.6382 52.3969C37.8421 53.6008 39.5396 54.1843 41.4192 54.041C43.3795 53.891 45.2901 52.9772 46.7996 51.4677L77.3697 20.8977C77.919 20.3486 78.8091 20.3486 79.3584 20.8977C79.9075 21.447 79.9075 22.3374 79.3584 22.8865L48.7887 53.4565C46.8045 55.4409 44.2635 56.6442 41.6338 56.8454C41.3721 56.8654 41.1121 56.8752 40.8553 56.8752Z" fill="#071328"/>
<path fill-rule="evenodd" clip-rule="evenodd" d="M87.6288 11.2705C87.2689 11.2705 86.9091 11.1333 86.6344 10.8586L78.1763 2.40059C77.6273 1.85127 77.6273 0.960882 78.1763 0.411806C78.7254 -0.137269 79.616 -0.137269 80.1651 0.411806L88.6232 8.86986C89.1723 9.41918 89.1723 10.3096 88.6232 10.8586C88.3488 11.1331 87.9887 11.2705 87.6288 11.2705Z" fill="#071328"/>
<path fill-rule="evenodd" clip-rule="evenodd" d="M26.3745 64.0661C26.0147 64.0661 25.6548 63.9289 25.3801 63.6542C24.8308 63.1049 24.8308 62.2148 25.3801 61.6655L34.0604 52.9852C34.6097 52.4359 35.5001 52.4359 36.0491 52.9852C36.5985 53.5346 36.5985 54.4247 36.0491 54.974L27.3689 63.6542C27.0942 63.9289 26.7344 64.0661 26.3745 64.0661Z" fill="#071328"/>
<path fill-rule="evenodd" clip-rule="evenodd" d="M73.1473 17.2944C72.7874 17.2944 72.4276 17.1572 72.1529 16.8826C71.6038 16.3333 71.6038 15.4429 72.1529 14.8938L82.0118 5.03485C82.5612 4.48578 83.4513 4.48578 84.0006 5.03485C84.5497 5.58417 84.5497 6.47456 84.0006 7.02363L74.1417 16.8823C73.867 17.1572 73.5072 17.2944 73.1473 17.2944Z" fill="#071328"/>
<path fill-rule="evenodd" clip-rule="evenodd" d="M9.32708 89.9999C8.37688 89.9999 7.47086 89.5458 6.9025 88.7494C6.48258 88.161 6.07584 87.5378 5.69376 86.8969C3.99257 84.0431 3.57802 80.8021 3.13881 77.3709C3.02455 76.4784 2.90663 75.5555 2.76381 74.6268C2.66249 73.9666 2.34828 73.2166 2.016 72.4227C1.52332 71.2462 0.964966 69.9127 0.964966 68.4778V68.4312C0.966919 66.4773 1.55066 64.5908 2.65272 62.9771C3.75966 61.356 5.3085 60.1296 7.132 59.4304C8.17717 59.0295 9.25579 58.8262 10.3376 58.8262C11.7875 58.8262 13.28 59.3042 14.864 60.281C15.2829 60.5393 15.8144 60.5393 16.2334 60.281C17.8174 59.3042 19.3098 58.8262 20.76 58.8262C21.8418 58.8262 22.9202 59.0295 23.9656 59.4302C25.7891 60.1294 27.3377 61.356 28.4446 62.9768C29.5464 64.5906 30.1302 66.4771 30.1321 68.4322V68.4776C30.1321 69.9124 29.5738 71.2459 29.0811 72.4224C28.7486 73.2164 28.4346 73.9664 28.3333 74.6265C28.1905 75.5553 28.0725 76.4781 27.9583 77.3705C27.5193 80.8016 27.1045 84.0426 25.4033 86.8964C25.0213 87.537 24.6148 88.1601 24.1948 88.7487C23.4954 89.7292 22.2835 90.1908 21.1077 89.925C19.9272 89.6581 19.0286 88.7157 18.8179 87.5246C18.29 84.5382 17.6743 81.9564 17.0381 80.0582C16.3506 78.0074 15.801 77.2374 15.5486 76.9679C15.2961 77.2374 14.7468 78.0072 14.059 80.0582C13.4226 81.9564 12.8071 84.5382 12.2792 87.5248C12.0685 88.716 11.1699 89.6584 9.98968 89.9252C9.76898 89.9757 9.5468 89.9999 9.32708 89.9999ZM10.3378 61.6389C9.60149 61.6389 8.86174 61.7793 8.13933 62.0567C5.5336 63.0559 3.7809 65.6194 3.77797 68.4356V68.4781C3.77797 69.348 4.18252 70.314 4.61074 71.3367C4.99404 72.252 5.39053 73.1988 5.5441 74.2C5.69229 75.1637 5.81265 76.1046 5.92911 77.0143C6.34732 80.2831 6.70865 83.1058 8.11003 85.4569C8.45281 86.0316 8.81682 86.59 9.19231 87.1159C9.21526 87.1481 9.25799 87.2079 9.3698 87.1825C9.48919 87.1557 9.50408 87.0717 9.51018 87.0358C10.1254 83.5556 10.8559 80.6068 11.6223 78.5089C12.3215 76.5953 13.4892 74.0511 15.549 74.0511C17.6089 74.0511 18.7766 76.5953 19.4758 78.5089C20.2424 80.607 20.9729 83.5555 21.5881 87.0355C21.5945 87.0714 21.6094 87.1554 21.7285 87.1823C21.8403 87.2077 21.8831 87.1479 21.9058 87.1156C22.2813 86.5895 22.6453 86.0312 22.9881 85.4564C24.3894 83.1056 24.7505 80.2826 25.169 77.0138C25.2854 76.1041 25.4058 75.1634 25.5537 74.1998C25.7075 73.1986 26.1038 72.252 26.4871 71.3367C26.9153 70.3138 27.3199 69.348 27.3199 68.4781V68.4341C27.3167 65.6194 25.5642 63.0559 22.9587 62.0567C22.2361 61.7796 21.4963 61.6392 20.7603 61.6392C19.501 61.6392 18.0813 62.2759 16.4196 63.5855C15.9089 63.9881 15.1889 63.9881 14.6784 63.5855C13.0166 62.2757 11.5969 61.6389 10.3378 61.6389Z" fill="#071328"/>
<path fill-rule="evenodd" clip-rule="evenodd" d="M82.0174 26.9522C81.6575 26.9522 81.2977 26.815 81.023 26.5403L62.4951 8.0124C61.946 7.46308 61.946 6.5727 62.4951 6.02362C63.0441 5.47455 63.9345 5.47455 64.4838 6.02362L83.0118 24.5516C83.5609 25.1009 83.5609 25.9913 83.0118 26.5403C82.7371 26.8148 82.3773 26.9522 82.0174 26.9522Z" fill="#071328"/>
</svg>
