<svg width="196" height="60" viewBox="0 0 196 60" fill="none" xmlns="http://www.w3.org/2000/svg">
<g clip-path="url(#clip0_316_3135)">
<path d="M62.9854 18.0146C62.8741 19.1663 62.4289 19.6862 62.2106 19.4714C61.9923 19.2565 62.8056 17.4301 61.7782 15.3588C61.3672 14.5423 59.9545 14.8259 60.3912 15.8917C60.7936 16.7339 60.5325 18.9471 60.0359 18.3626C59.5179 17.7653 59.7191 16.2655 57.7199 15.0021C56.594 14.4048 55.9048 15.5694 56.9365 16.2999C57.9682 17.0262 58.6317 19.596 57.3432 20.1976C56.0546 20.8036 55.4681 19.2264 55.2584 18.4013C55.0486 17.5762 53.5203 17.284 53.8456 19.5659C54.0597 21.0872 54.7232 22.8491 57.2105 24.0481C56.3286 27.1937 53.0922 31.8478 49.0168 33.3605C48.8755 29.6862 48.3147 26.5319 47.3686 24.1555C45.6177 19.7507 42.9036 18.8311 40.9301 18.8311C38.353 18.8311 36.7091 20.2449 35.3906 21.388C34.2818 22.3463 33.4085 23.1026 32.197 23.1026C30.9855 23.1026 30.1122 22.3463 29.0077 21.388C27.6849 20.2492 26.0367 18.8311 23.4639 18.8311C21.4904 18.8311 18.7805 19.7507 17.0254 24.1555C16.075 26.5319 15.5142 29.6819 15.3772 33.3605C11.2975 31.8478 8.06537 27.1937 7.1835 24.0481C9.67072 22.8491 10.33 21.0872 10.5483 19.5659C10.8737 17.284 9.34109 17.5762 9.1356 18.4013C8.92584 19.2264 8.33935 20.8036 7.05079 20.1976C5.75795 19.596 6.42577 17.0262 7.45748 16.2999C8.49346 15.5737 7.80423 14.4048 6.67407 15.0021C4.67487 16.2655 4.87608 17.7653 4.35809 18.3626C3.8615 18.9471 3.60464 16.7339 4.00277 15.8917C4.43942 14.8216 3.02672 14.538 2.61575 15.3588C1.58832 17.4301 2.4017 19.2565 2.18337 19.4714C1.96504 19.6862 1.51983 19.1663 1.40424 18.0146C1.29294 16.8672 0.0343447 17.3528 -0.00846457 18.1607C-0.0812404 21.1645 2.15341 24.7485 4.97882 24.7013C6.09614 28.6291 10.1416 34.2629 15.343 35.7756C15.3943 40.7605 16.182 46.1752 17.4706 50.3609C19.0674 55.5435 21.1993 58.2852 23.648 58.2852C27.1027 58.2852 28.1344 56.0721 28.8964 54.4606C29.6199 52.9178 30.095 51.8993 32.197 51.8993C34.2989 51.8993 34.7741 52.9178 35.5019 54.4606C36.2553 56.0721 37.2956 58.2852 40.7503 58.2852C43.1947 58.2852 45.3309 55.5435 46.9234 50.3609C48.2119 46.1752 48.9996 40.7605 49.051 35.7756C54.2523 34.2629 58.2978 28.6248 59.4151 24.7013C62.2405 24.7485 64.4709 21.1645 64.4024 18.1607C64.3553 17.3528 63.101 16.8672 62.9854 18.0146ZM44.7315 49.6819C43.3017 54.3316 41.6964 55.9818 40.7546 55.9818C38.7511 55.9818 38.3102 55.0407 37.5824 53.4851C36.8204 51.8435 35.763 49.5959 32.2055 49.5959C28.6481 49.5959 27.595 51.8392 26.8244 53.4851C26.0967 55.0407 25.6514 55.9818 23.6565 55.9818C22.7104 55.9818 21.1051 54.3316 19.671 49.6819C18.3995 45.5521 17.6418 40.1417 17.6418 35.2212C17.6418 31.0399 18.1684 27.5075 19.1615 25.0107C20.189 22.4409 21.6359 21.1387 23.4724 21.1387C25.1977 21.1387 26.2765 22.067 27.5179 23.1413C28.0659 23.614 28.6438 24.1211 29.3031 24.5251C28.3998 24.7743 27.6763 25.1654 27.1369 25.7112C27.0042 25.853 27.0727 26.0936 27.2653 26.1366C28.8921 26.5019 31.5591 26.4933 34.6928 24.7614C34.7356 24.7442 34.7698 24.7185 34.8126 24.697C35.596 24.2586 36.2681 23.6828 36.9017 23.137C38.1432 22.0627 39.2177 21.1345 40.9429 21.1345C42.7794 21.1345 44.2264 22.4366 45.2495 25.0064C46.247 27.5032 46.7735 31.0399 46.7735 35.2169C46.7735 40.1374 46.0115 45.5435 44.7401 49.6776L44.7315 49.6819Z" fill="#002D82"/>
<path d="M29.1232 34.8731C27.7918 34.8173 26.6359 34.9462 25.8012 35.1611C25.7241 35.1783 25.6513 35.1095 25.6727 35.0322C25.7541 34.7399 26.0366 34.4778 26.4005 34.3016C26.1265 33.9664 25.9553 33.5023 25.9553 32.9909C25.9553 31.9681 26.6402 31.1387 27.4836 31.1387C28.3269 31.1387 29.0119 31.9681 29.0119 32.9909C29.0119 33.4335 28.8834 33.8418 28.6694 34.1598C28.9305 34.2629 29.1317 34.4434 29.2302 34.7313C29.2559 34.8044 29.2002 34.8774 29.1232 34.8731Z" fill="#002D82"/>
<path d="M39.5087 43.3733C39.4359 43.4851 39.269 43.4593 39.2347 43.3304C39.1577 43.0467 39.0635 42.776 38.9522 42.5182C37.7578 43.4808 35.018 44.8001 32.1883 44.8001C29.3586 44.8001 26.6188 43.4851 25.4244 42.5182C25.3131 42.7717 25.219 43.0467 25.1419 43.3304C25.1076 43.455 24.9364 43.4808 24.8679 43.3733C23.8191 41.7274 25.1547 39.7764 26.7729 40.1417C26.8885 40.1675 26.927 40.3093 26.85 40.3953C26.7044 40.5457 26.546 40.7262 26.3834 40.9281C27.4194 41.7661 29.8766 43.021 32.1926 43.021C34.5086 43.021 36.9615 41.7661 38.0018 40.9281C37.8391 40.7262 37.685 40.55 37.5352 40.3953C37.4539 40.3093 37.4967 40.1675 37.6122 40.1417C39.2304 39.7764 40.5661 41.7317 39.5173 43.3733H39.5087Z" fill="#002D82"/>
<path d="M35.2492 34.8731C36.5805 34.8173 37.7364 34.9462 38.5712 35.1611C38.6482 35.1783 38.721 35.1095 38.6996 35.0322C38.6183 34.7399 38.3357 34.4778 37.9718 34.3016C38.2458 33.9664 38.4171 33.5023 38.4171 32.9909C38.4171 31.9681 37.7321 31.1387 36.8888 31.1387C36.0454 31.1387 35.3605 31.9681 35.3605 32.9909C35.3605 33.4335 35.4889 33.8418 35.703 34.1598C35.4418 34.2629 35.2406 34.4434 35.1421 34.7313C35.1165 34.8044 35.1721 34.8774 35.2492 34.8731Z" fill="#002D82"/>
<path d="M51.5338 7.05197C52.7668 9.18776 55.9903 14.4263 57.5357 16.9316C57.998 17.6794 57.7412 18.6635 56.9706 19.0889C56.2001 19.5143 55.2368 19.2049 54.8558 18.4099C53.5801 15.7584 50.9088 10.2148 49.7744 8.02317C49.5389 7.56765 49.3591 7.09064 49.2778 6.58355C49.1965 6.07646 49.0252 5.59086 48.7812 5.14393L47.9593 3.63985C47.9036 3.54102 47.7966 3.48085 47.6853 3.49374C46.9019 3.57969 46.1056 3.12417 45.8316 2.27759C45.6176 1.6115 45.8316 0.859455 46.371 0.412529C46.4609 0.335176 46.5551 0.275013 46.6536 0.219147C46.752 0.163281 46.8591 0.11601 46.9704 0.0816312C47.6339 -0.133237 48.3831 0.0859285 48.8283 0.6231C49.3934 1.30638 49.3506 2.22602 48.854 2.84484C48.7855 2.93079 48.7726 3.05541 48.8283 3.15425L49.6502 4.65833C49.8942 5.10526 50.2153 5.51351 50.592 5.853C50.9688 6.19679 51.277 6.60504 51.5338 7.04767V7.05197Z" fill="#002D82"/>
<path d="M77.6946 46.3301L77.6732 38.5433L73.9102 44.8819H72.0695L68.3065 38.7109V46.3301H64.5008V31.6374H67.9084L73.0498 40.1161L78.067 31.6374H81.4747L81.5175 46.3301H77.6903H77.6946Z" fill="#002D82"/>
<path d="M94.737 43.4767H88.5467L87.3952 46.3301H83.1699L89.6298 31.6374H93.7053L100.187 46.3301H95.88L94.7284 43.4767H94.737ZM93.5255 40.4126L91.6419 35.7113L89.7582 40.4126H93.5212H93.5255Z" fill="#002D82"/>
<path d="M111.308 32.6855C112.477 33.3344 113.397 34.2412 114.057 35.4058C114.72 36.5661 115.05 37.8811 115.05 39.3508C115.05 40.8205 114.72 42.1354 114.057 43.2957C113.393 44.456 112.477 45.3628 111.308 46.016C110.14 46.6649 108.813 46.9915 107.336 46.9915C105.983 46.9915 104.767 46.7551 103.688 46.2781C102.61 45.8011 101.711 45.1178 101 44.2197L103.611 41.826C104.587 42.9734 105.756 43.545 107.126 43.545C108.004 43.545 108.753 43.3043 109.373 42.823C109.994 42.3417 110.422 41.6713 110.658 40.8205H105.366V37.7564H110.615C110.379 36.9442 109.951 36.3082 109.339 35.8484C108.727 35.3886 107.986 35.1565 107.122 35.1565C105.756 35.1565 104.583 35.7324 103.607 36.8798L100.996 34.4861C101.706 33.5923 102.601 32.9047 103.684 32.4277C104.763 31.9507 105.979 31.7143 107.331 31.7143C108.808 31.7143 110.131 32.0409 111.304 32.6898L111.308 32.6855Z" fill="#002D82"/>
<path d="M119.875 45.6511C118.655 45.0022 117.696 44.0955 116.998 42.9309C116.3 41.7706 115.953 40.4556 115.953 38.9859C115.953 37.5162 116.3 36.2012 116.998 35.0409C117.696 33.8806 118.655 32.9739 119.875 32.3207C121.095 31.6718 122.469 31.3452 124.006 31.3452C125.346 31.3452 126.549 31.5815 127.623 32.0585C128.698 32.5356 129.588 33.2188 130.299 34.117L127.666 36.5106C126.72 35.3632 125.568 34.7874 124.215 34.7874C123.419 34.7874 122.713 34.9636 122.092 35.3117C121.471 35.6597 120.992 36.1539 120.649 36.79C120.307 37.426 120.136 38.1565 120.136 38.9816C120.136 39.8067 120.307 40.5373 120.649 41.1733C120.992 41.8093 121.471 42.3035 122.092 42.6516C122.713 42.9997 123.419 43.1758 124.215 43.1758C125.568 43.1758 126.716 42.6043 127.666 41.4569L130.299 43.8505C129.588 44.7444 128.698 45.432 127.623 45.909C126.549 46.386 125.346 46.6223 124.006 46.6223C122.473 46.6223 121.095 46.2957 119.875 45.6468V45.6511Z" fill="#002D82"/>
<path d="M143.826 34.9335H139.353V46.3301H135.277V34.9335H130.782V31.6374H143.831V34.9335H143.826Z" fill="#002D82"/>
<path d="M155.869 32.3035C156.845 32.7461 157.598 33.3735 158.125 34.1943C158.656 35.0151 158.921 35.9735 158.921 37.0822C158.921 38.1909 158.656 39.1449 158.125 39.9571C157.594 40.7693 156.84 41.3967 155.869 41.8351C154.893 42.2777 153.741 42.4969 152.418 42.4969H149.867V46.3387H145.727V31.646H152.418C153.741 31.646 154.893 31.8652 155.869 32.3078V32.3035ZM154.092 38.6636C154.524 38.294 154.738 37.7655 154.738 37.0779C154.738 36.3903 154.52 35.8617 154.092 35.4836C153.66 35.1054 153.018 34.9163 152.17 34.9163H149.871V39.218H152.17C153.022 39.218 153.66 39.0332 154.092 38.6636Z" fill="#002D82"/>
<path d="M164.011 45.6382C162.778 44.9807 161.811 44.0697 161.104 42.9094C160.402 41.7491 160.047 40.4384 160.047 38.9859C160.047 37.5334 160.398 36.2227 161.104 35.0624C161.806 33.9021 162.778 32.9911 164.011 32.3336C165.244 31.6761 166.635 31.3452 168.181 31.3452C169.726 31.3452 171.117 31.6718 172.35 32.3336C173.583 32.9911 174.551 33.9021 175.257 35.0624C175.959 36.2227 176.314 37.5334 176.314 38.9859C176.314 40.4384 175.963 41.7491 175.257 42.9094C174.555 44.0697 173.583 44.9807 172.35 45.6382C171.117 46.2957 169.726 46.6266 168.181 46.6266C166.635 46.6266 165.244 46.3 164.011 45.6382ZM170.188 42.6559C170.788 42.3078 171.263 41.8136 171.61 41.1776C171.956 40.5416 172.132 39.811 172.132 38.9859C172.132 38.1608 171.956 37.4303 171.61 36.7943C171.263 36.1582 170.788 35.664 170.188 35.316C169.589 34.9679 168.921 34.7917 168.181 34.7917C167.44 34.7917 166.772 34.9679 166.173 35.316C165.574 35.664 165.098 36.1582 164.752 36.7943C164.405 37.4303 164.229 38.1608 164.229 38.9859C164.229 39.811 164.405 40.5416 164.752 41.1776C165.098 41.8136 165.574 42.3078 166.173 42.6559C166.772 43.004 167.44 43.1801 168.181 43.1801C168.921 43.1801 169.589 43.004 170.188 42.6559Z" fill="#002D82"/>
<path d="M64.5907 53.6313H65.6695V56.6825L68.2166 53.6313H69.2012V58.2596H68.1224V55.2085L65.5838 58.2596H64.5907V53.6313Z" fill="#002D82"/>
<path d="M71.4616 58.0147C71.0806 57.8127 70.7852 57.5291 70.5711 57.1681C70.3571 56.8071 70.2501 56.3989 70.2501 55.9433C70.2501 55.4878 70.3571 55.0796 70.5711 54.7229C70.7852 54.3662 71.0806 54.0826 71.4573 53.8806C71.834 53.6786 72.2664 53.5755 72.7458 53.5755C73.1996 53.5755 73.5977 53.67 73.9402 53.8548C74.2827 54.0396 74.5396 54.306 74.7108 54.6541L73.8803 55.1397C73.7476 54.9249 73.5806 54.7659 73.3837 54.6584C73.1868 54.551 72.9684 54.4994 72.733 54.4994C72.3306 54.4994 71.9967 54.6326 71.7313 54.8948C71.4658 55.1569 71.3331 55.5093 71.3331 55.9476C71.3331 56.386 71.4658 56.7384 71.727 57.0005C71.9881 57.2626 72.322 57.3958 72.733 57.3958C72.9684 57.3958 73.1868 57.3443 73.3837 57.2368C73.5806 57.1294 73.7476 56.9704 73.8803 56.7555L74.7108 57.2411C74.531 57.5892 74.2741 57.8557 73.9317 58.0447C73.5892 58.2338 73.1953 58.3284 72.7458 58.3284C72.2664 58.3284 71.8383 58.2252 71.4616 58.0233V58.0147Z" fill="#002D82"/>
<path d="M77.579 56.4032H76.74V58.2596H75.6612V53.6313H76.74V55.505H77.6047L78.9703 53.6313H80.1262L78.4523 55.8574L80.2375 58.2596H78.9703L77.579 56.4032Z" fill="#002D82"/>
<path d="M85.092 53.6314L82.9345 58.6292C82.7332 59.132 82.4892 59.4844 82.2024 59.6906C81.9156 59.8969 81.5646 60.0001 81.1579 60.0001C80.9267 60.0001 80.6998 59.9614 80.4772 59.8883C80.2546 59.811 80.0705 59.7078 79.925 59.5746L80.3573 58.7753C80.4601 58.8741 80.5842 58.9515 80.7255 59.0074C80.8668 59.0632 81.008 59.0933 81.1536 59.0933C81.3419 59.0933 81.5003 59.046 81.6245 58.9472C81.7486 58.8484 81.8599 58.6851 81.967 58.453L82.044 58.2725L80.032 53.6271H81.1536L82.6048 57.0521L84.0646 53.6271H85.1006L85.092 53.6314Z" fill="#002D82"/>
<path d="M86.5219 58.0147C86.1409 57.8127 85.8455 57.5291 85.6314 57.1681C85.4174 56.8071 85.3104 56.3989 85.3104 55.9433C85.3104 55.4878 85.4174 55.0796 85.6314 54.7229C85.8455 54.3662 86.1409 54.0826 86.5176 53.8806C86.8943 53.6786 87.3267 53.5755 87.8061 53.5755C88.2599 53.5755 88.658 53.67 89.0005 53.8548C89.343 54.0396 89.5999 54.306 89.7711 54.6541L88.9406 55.1397C88.8079 54.9249 88.6409 54.7659 88.444 54.6584C88.2471 54.551 88.0288 54.4994 87.7933 54.4994C87.3909 54.4994 87.057 54.6326 86.7916 54.8948C86.5262 55.1569 86.3934 55.5093 86.3934 55.9476C86.3934 56.386 86.5261 56.7384 86.7873 57.0005C87.0484 57.2626 87.3823 57.3958 87.7933 57.3958C88.0288 57.3958 88.2471 57.3443 88.444 57.2368C88.6409 57.1294 88.8079 56.9704 88.9406 56.7555L89.7711 57.2411C89.5913 57.5892 89.3344 57.8557 88.992 58.0447C88.6495 58.2338 88.2556 58.3284 87.8061 58.3284C87.3267 58.3284 86.8986 58.2252 86.5219 58.0233V58.0147Z" fill="#002D82"/>
<path d="M91.4706 58.0147C91.0896 57.8127 90.7942 57.5291 90.5802 57.1681C90.3661 56.8071 90.2591 56.3989 90.2591 55.9433C90.2591 55.4878 90.3661 55.0796 90.5802 54.7229C90.7942 54.3662 91.0896 54.0826 91.4664 53.8806C91.8431 53.6786 92.2754 53.5755 92.7549 53.5755C93.2087 53.5755 93.6068 53.67 93.9493 53.8548C94.2918 54.0396 94.5486 54.306 94.7199 54.6541L93.8894 55.1397C93.7566 54.9249 93.5897 54.7659 93.3928 54.6584C93.1958 54.551 92.9775 54.4994 92.7421 54.4994C92.3397 54.4994 92.0057 54.6326 91.7403 54.8948C91.4749 55.1569 91.3422 55.5093 91.3422 55.9476C91.3422 56.386 91.4749 56.7384 91.736 57.0005C91.9972 57.2626 92.3311 57.3958 92.7421 57.3958C92.9775 57.3958 93.1958 57.3443 93.3928 57.2368C93.5897 57.1294 93.7566 56.9704 93.8894 56.7555L94.7199 57.2411C94.5401 57.5892 94.2832 57.8557 93.9407 58.0447C93.5983 58.2338 93.2044 58.3284 92.7549 58.3284C92.2754 58.3284 91.8474 58.2252 91.4706 58.0233V58.0147Z" fill="#002D82"/>
<path d="M99.2833 54.551H97.6694V58.2596H96.5906V54.551H94.9681V53.6313H99.2833V54.551Z" fill="#002D82"/>
<path d="M104.262 56.9575C104.262 57.3744 104.108 57.6924 103.795 57.9201C103.483 58.1436 103.025 58.2596 102.413 58.2596H100.067V53.6313H102.319C102.884 53.6313 103.325 53.7345 103.641 53.9451C103.958 54.1513 104.117 54.4478 104.117 54.8303C104.117 55.0667 104.057 55.2729 103.932 55.4448C103.808 55.6167 103.633 55.7542 103.41 55.8531C103.98 56.025 104.266 56.3946 104.266 56.9618L104.262 56.9575ZM101.094 55.5609H102.224C102.781 55.5609 103.063 55.3675 103.063 54.9807C103.063 54.594 102.785 54.4178 102.224 54.4178H101.094V55.5609ZM103.218 56.8845C103.218 56.6825 103.149 56.5321 103.012 56.4289C102.875 56.3301 102.657 56.2785 102.366 56.2785H101.098V57.4646H102.331C102.922 57.4646 103.222 57.2712 103.222 56.8845H103.218Z" fill="#002D82"/>
<path d="M106.206 58.0147C105.833 57.8127 105.538 57.5291 105.328 57.1681C105.118 56.8071 105.011 56.3989 105.011 55.9433C105.011 55.4878 105.118 55.0796 105.328 54.7229C105.538 54.3662 105.829 54.0826 106.206 53.8806C106.578 53.6786 107.002 53.5755 107.464 53.5755C107.927 53.5755 108.359 53.6786 108.731 53.8806C109.104 54.0826 109.399 54.3619 109.609 54.7229C109.819 55.0796 109.926 55.4878 109.926 55.9433C109.926 56.3989 109.819 56.8071 109.609 57.1681C109.399 57.5291 109.108 57.8127 108.731 58.0147C108.359 58.2166 107.935 58.3198 107.464 58.3198C106.993 58.3198 106.578 58.2166 106.206 58.0147ZM108.449 56.9919C108.706 56.7255 108.838 56.3774 108.838 55.9433C108.838 55.5093 108.71 55.1612 108.449 54.8948C108.192 54.6283 107.862 54.4951 107.464 54.4951C107.066 54.4951 106.741 54.6283 106.484 54.8948C106.227 55.1612 106.099 55.5093 106.099 55.9433C106.099 56.3774 106.227 56.7255 106.484 56.9919C106.741 57.2583 107.066 57.3916 107.464 57.3916C107.862 57.3916 108.188 57.2583 108.449 56.9919Z" fill="#002D82"/>
<path d="M114.181 58.0147C113.8 57.8127 113.505 57.5291 113.291 57.1681C113.077 56.8071 112.969 56.3989 112.969 55.9433C112.969 55.4878 113.077 55.0796 113.291 54.7229C113.505 54.3662 113.8 54.0826 114.177 53.8806C114.553 53.6786 114.986 53.5755 115.465 53.5755C115.919 53.5755 116.317 53.67 116.66 53.8548C117.002 54.0396 117.259 54.306 117.43 54.6541L116.6 55.1397C116.467 54.9249 116.3 54.7659 116.103 54.6584C115.906 54.551 115.688 54.4994 115.452 54.4994C115.05 54.4994 114.716 54.6326 114.451 54.8948C114.185 55.1569 114.053 55.5093 114.053 55.9476C114.053 56.386 114.185 56.7384 114.446 57.0005C114.708 57.2626 115.041 57.3958 115.452 57.3958C115.688 57.3958 115.906 57.3443 116.103 57.2368C116.3 57.1294 116.467 56.9704 116.6 56.7555L117.43 57.2411C117.25 57.5892 116.994 57.8557 116.651 58.0447C116.309 58.2338 115.915 58.3284 115.465 58.3284C114.986 58.3284 114.558 58.2252 114.181 58.0233V58.0147Z" fill="#002D82"/>
<path d="M121.994 54.551H120.38V58.2596H119.301V54.551H117.678V53.6313H121.994V54.551Z" fill="#002D82"/>
<path d="M123.376 58.0147C123.004 57.8127 122.709 57.5291 122.499 57.1681C122.289 56.8071 122.182 56.3989 122.182 55.9433C122.182 55.4878 122.289 55.0796 122.499 54.7229C122.709 54.3662 123 54.0826 123.376 53.8806C123.749 53.6786 124.173 53.5755 124.635 53.5755C125.097 53.5755 125.53 53.6786 125.902 53.8806C126.275 54.0826 126.57 54.3619 126.78 54.7229C126.99 55.0796 127.097 55.4878 127.097 55.9433C127.097 56.3989 126.99 56.8071 126.78 57.1681C126.57 57.5291 126.279 57.8127 125.902 58.0147C125.53 58.2166 125.106 58.3198 124.635 58.3198C124.164 58.3198 123.749 58.2166 123.376 58.0147ZM125.62 56.9919C125.876 56.7255 126.009 56.3774 126.009 55.9433C126.009 55.5093 125.881 55.1612 125.62 54.8948C125.363 54.6283 125.033 54.4951 124.635 54.4951C124.237 54.4951 123.912 54.6283 123.655 54.8948C123.398 55.1612 123.269 55.5093 123.269 55.9433C123.269 56.3774 123.398 56.7255 123.655 56.9919C123.912 57.2583 124.237 57.3916 124.635 57.3916C125.033 57.3916 125.358 57.2583 125.62 56.9919Z" fill="#002D82"/>
<path d="M132.687 58.2596V55.1913L131.133 57.774H130.667L129.139 55.1827V58.2596H128.154V53.6313H129.284L130.924 56.5235L132.64 53.6313H133.651L133.659 58.2596H132.683H132.687Z" fill="#002D82"/>
<path d="M138.39 54.0697C138.749 54.3963 138.929 54.8905 138.929 55.548V58.2596H137.91V57.6967C137.777 57.8986 137.589 58.0533 137.345 58.1608C137.101 58.2682 136.806 58.3198 136.459 58.3198C136.112 58.3198 135.813 58.2596 135.551 58.1436C135.29 58.0276 135.093 57.86 134.952 57.6494C134.811 57.4388 134.742 57.1982 134.742 56.936C134.742 56.5192 134.896 56.1883 135.205 55.9347C135.513 55.6855 135.997 55.5566 136.66 55.5566H137.85V55.4878C137.85 55.1655 137.756 54.9163 137.559 54.7444C137.366 54.5725 137.08 54.4865 136.699 54.4865C136.442 54.4865 136.185 54.5252 135.937 54.6069C135.688 54.6885 135.474 54.8002 135.303 54.9463L134.879 54.1556C135.119 53.9708 135.41 53.829 135.753 53.7302C136.091 53.6314 136.45 53.5841 136.831 53.5841C137.512 53.5841 138.03 53.7474 138.39 54.074V54.0697ZM137.405 57.3443C137.615 57.2197 137.765 57.0435 137.85 56.8114V56.2742H136.737C136.116 56.2742 135.804 56.4805 135.804 56.8888C135.804 57.0864 135.881 57.2411 136.035 57.3572C136.189 57.4732 136.408 57.5291 136.682 57.5291C136.956 57.5291 137.191 57.4689 137.401 57.3443H137.405Z" fill="#002D82"/>
<path d="M143.921 54.551H142.307V58.2596H141.228V54.551H139.605V53.6313H143.921V54.551Z" fill="#002D82"/>
<path d="M145.303 58.0147C144.931 57.8127 144.635 57.5291 144.426 57.1681C144.216 56.8071 144.109 56.3989 144.109 55.9433C144.109 55.4878 144.216 55.0796 144.426 54.7229C144.635 54.3662 144.927 54.0826 145.303 53.8806C145.676 53.6786 146.1 53.5755 146.562 53.5755C147.024 53.5755 147.457 53.6786 147.829 53.8806C148.202 54.0826 148.497 54.3619 148.707 54.7229C148.916 55.0796 149.023 55.4878 149.023 55.9433C149.023 56.3989 148.916 56.8071 148.707 57.1681C148.497 57.5291 148.206 57.8127 147.829 58.0147C147.457 58.2166 147.033 58.3198 146.562 58.3198C146.091 58.3198 145.676 58.2166 145.303 58.0147ZM147.547 56.9919C147.803 56.7255 147.936 56.3774 147.936 55.9433C147.936 55.5093 147.808 55.1612 147.547 54.8948C147.29 54.6283 146.96 54.4951 146.562 54.4951C146.164 54.4951 145.838 54.6283 145.582 54.8948C145.325 55.1612 145.196 55.5093 145.196 55.9433C145.196 56.3774 145.325 56.7255 145.582 56.9919C145.838 57.2583 146.164 57.3916 146.562 57.3916C146.96 57.3916 147.285 57.2583 147.547 56.9919Z" fill="#002D82"/>
<path d="M154.212 53.6313V58.2596H153.133V54.551H151.408L151.365 55.4706C151.335 56.0851 151.28 56.5965 151.198 57.0091C151.117 57.4216 150.976 57.7482 150.774 57.9889C150.577 58.2295 150.303 58.3499 149.957 58.3499C149.794 58.3499 149.597 58.3198 149.362 58.2553L149.413 57.3443C149.494 57.3615 149.563 57.3701 149.619 57.3701C149.837 57.3701 150 57.2841 150.111 57.1079C150.222 56.9317 150.291 56.7212 150.321 56.4762C150.351 56.2313 150.381 55.8789 150.402 55.4234L150.479 53.6399H154.208L154.212 53.6313Z" fill="#002D82"/>
<path d="M156.455 58.0147C156.083 57.8127 155.787 57.5291 155.578 57.1681C155.368 56.8071 155.261 56.3989 155.261 55.9433C155.261 55.4878 155.368 55.0796 155.578 54.7229C155.787 54.3662 156.078 54.0826 156.455 53.8806C156.828 53.6786 157.251 53.5755 157.714 53.5755C158.176 53.5755 158.608 53.6786 158.981 53.8806C159.353 54.0826 159.649 54.3619 159.859 54.7229C160.068 55.0796 160.175 55.4878 160.175 55.9433C160.175 56.3989 160.068 56.8071 159.859 57.1681C159.649 57.5291 159.358 57.8127 158.981 58.0147C158.608 58.2166 158.185 58.3198 157.714 58.3198C157.243 58.3198 156.828 58.2166 156.455 58.0147ZM158.698 56.9919C158.955 56.7255 159.088 56.3774 159.088 55.9433C159.088 55.5093 158.959 55.1612 158.698 54.8948C158.442 54.6283 158.112 54.4951 157.714 54.4951C157.316 54.4951 156.99 54.6283 156.733 54.8948C156.477 55.1612 156.348 55.5093 156.348 55.9433C156.348 56.3774 156.477 56.7255 156.733 56.9919C156.99 57.2583 157.316 57.3916 157.714 57.3916C158.112 57.3916 158.437 57.2583 158.698 56.9919Z" fill="#002D82"/>
<path d="M164.777 54.551H162.316V58.2596H161.237V53.6313H164.777V54.551Z" fill="#002D82"/>
<path d="M165.561 53.6313H166.64V56.6825L169.187 53.6313H170.171V58.2596H169.092V55.2085L166.554 58.2596H165.561V53.6313Z" fill="#002D82"/>
<path d="M171.622 53.6313H172.701V56.6825L175.248 53.6313H176.233V58.2596H175.154V55.2085L172.616 58.2596H171.622V53.6313Z" fill="#002D82"/>
</g>
<defs>
<clipPath id="clip0_316_3135">
<rect width="196" height="60" fill="white"/>
</clipPath>
</defs>
</svg>
