<svg width="158" height="24" viewBox="0 0 158 24" fill="none" xmlns="http://www.w3.org/2000/svg">
<path d="M8.84815 7.77652H2.81758V17.9568H0V5.16992H11.6657V17.9568H8.84815V7.77652Z" fill="#FF4A37"/>
<path d="M14.4076 5.17008H17.2252V6.57172C17.8019 6.03074 18.4197 5.61271 19.0788 5.31762C19.7379 5.02254 20.4794 4.875 21.3032 4.875C22.226 4.875 23.0746 5.04713 23.849 5.39139C24.6399 5.71926 25.3154 6.18647 25.8756 6.79303C26.4358 7.38319 26.8725 8.08815 27.1856 8.90775C27.4986 9.71107 27.6551 10.5881 27.6551 11.5389C27.6551 12.5225 27.4822 13.4242 27.1361 14.2439C26.8066 15.0471 26.3534 15.7438 25.7767 16.334C25.2001 16.9078 24.5081 17.3586 23.7007 17.6865C22.9098 18.0143 22.0612 18.1783 21.1549 18.1783C20.3476 18.1783 19.6226 18.0553 18.98 17.8094C18.3374 17.5635 17.7525 17.2193 17.2252 16.7767V22.875H14.4076V5.17008ZM20.7348 15.5717C21.295 15.5717 21.814 15.4816 22.2919 15.3012C22.7862 15.1209 23.2146 14.8586 23.5771 14.5144C23.9396 14.1537 24.2197 13.7275 24.4174 13.2356C24.6316 12.7274 24.7388 12.1537 24.7388 11.5144C24.7388 10.9242 24.6481 10.3832 24.4669 9.89138C24.2856 9.38318 24.022 8.95695 23.6759 8.6127C23.3464 8.25202 22.951 7.97333 22.4896 7.77668C22.0282 7.57995 21.5174 7.48156 20.9572 7.48156C20.1004 7.48156 19.3425 7.68645 18.6834 8.09633C18.0408 8.50613 17.5547 8.99797 17.2252 9.57172V13.457C17.5547 14.1455 18.0243 14.6701 18.6339 15.0308C19.2436 15.3914 19.9439 15.5717 20.7348 15.5717Z" fill="#FF4A37"/>
<path d="M29.1191 11.5389C29.1191 10.5717 29.2839 9.68648 29.6135 8.88323C29.943 8.06355 30.4126 7.3586 31.0223 6.76844C31.6319 6.17827 32.3569 5.71926 33.1973 5.39139C34.0376 5.04713 34.9685 4.875 35.9901 4.875C36.9952 4.875 37.9179 5.04713 38.7583 5.39139C39.6151 5.71926 40.3483 6.17827 40.9579 6.76844C41.5676 7.3586 42.0372 8.06355 42.3668 8.88323C42.7128 9.68648 42.8858 10.5717 42.8858 11.5389C42.8858 12.5062 42.7128 13.3996 42.3668 14.2192C42.0372 15.0226 41.5676 15.7192 40.9579 16.3094C40.3483 16.8996 39.6151 17.3586 38.7583 17.6865C37.9179 18.0143 36.9952 18.1783 35.9901 18.1783C34.985 18.1783 34.0623 18.0143 33.222 17.6865C32.3816 17.3586 31.6566 16.8996 31.047 16.3094C30.4373 15.7192 29.9595 15.0226 29.6135 14.2192C29.2839 13.3996 29.1191 12.5062 29.1191 11.5389ZM32.0356 11.5389C32.0356 12.1127 32.1263 12.6455 32.3075 13.1373C32.5052 13.6291 32.7771 14.0553 33.1231 14.416C33.4691 14.7767 33.881 15.0635 34.3589 15.2767C34.8532 15.4733 35.3969 15.5717 35.9901 15.5717C36.5833 15.5717 37.1188 15.4816 37.5966 15.3012C38.0909 15.1045 38.5111 14.834 38.8571 14.4898C39.2032 14.1291 39.475 13.7029 39.6727 13.2111C39.8704 12.7192 39.9693 12.1618 39.9693 11.5389C39.9693 10.9159 39.8622 10.3586 39.648 9.86677C39.4503 9.35857 39.1702 8.93235 38.8077 8.5881C38.4452 8.22742 38.025 7.95698 37.5472 7.77668C37.0693 7.57995 36.5503 7.48156 35.9901 7.48156C35.4299 7.48156 34.9026 7.57995 34.4083 7.77668C33.9305 7.95698 33.5103 8.22742 33.1478 8.5881C32.8018 8.93235 32.5299 9.35857 32.3322 9.86677C32.1345 10.3586 32.0356 10.9159 32.0356 11.5389Z" fill="#FF4A37"/>
<path d="M43.6381 15.3502H45.126C45.7046 14.6125 46.0932 13.7683 46.2916 12.8175C46.49 11.8666 46.5891 10.7929 46.5891 9.59617V5.16992H56.9551V15.3502H58.7654V20.8831H56.1367V17.9568H46.2667V20.8831H43.6381V15.3502ZM54.128 15.3502V7.77652H49.2674V11.047C49.2674 11.8339 49.1599 12.6208 48.945 13.4076C48.7301 14.1781 48.4325 14.8257 48.0523 15.3502H54.128Z" fill="#3981F1"/>
<path d="M59.3391 11.5389C59.3391 10.5717 59.5044 9.68648 59.8351 8.88323C60.1657 8.06355 60.6369 7.3586 61.2486 6.76844C61.8603 6.17827 62.5877 5.71926 63.4309 5.39139C64.2741 5.04713 65.2081 4.875 66.2332 4.875C67.2416 4.875 68.1675 5.04713 69.0106 5.39139C69.8703 5.71926 70.606 6.17827 71.2177 6.76844C71.8294 7.3586 72.3006 8.06355 72.6312 8.88323C72.9784 9.68648 73.152 10.5717 73.152 11.5389C73.152 12.5062 72.9784 13.3996 72.6312 14.2192C72.3006 15.0226 71.8294 15.7192 71.2177 16.3094C70.606 16.8996 69.8703 17.3586 69.0106 17.6865C68.1675 18.0143 67.2416 18.1783 66.2332 18.1783C65.2247 18.1783 64.2988 18.0143 63.4557 17.6865C62.6125 17.3586 61.8851 16.8996 61.2734 16.3094C60.6616 15.7192 60.1822 15.0226 59.8351 14.2192C59.5044 13.3996 59.3391 12.5062 59.3391 11.5389ZM62.2653 11.5389C62.2653 12.1127 62.3562 12.6455 62.5381 13.1373C62.7365 13.6291 63.0093 14.0553 63.3564 14.416C63.7037 14.7767 64.117 15.0635 64.5965 15.2767C65.0924 15.4733 65.638 15.5717 66.2332 15.5717C66.8283 15.5717 67.3656 15.4816 67.8451 15.3012C68.341 15.1045 68.7626 14.834 69.1098 14.4898C69.457 14.1291 69.7298 13.7029 69.9282 13.2111C70.1265 12.7192 70.2258 12.1618 70.2258 11.5389C70.2258 10.9159 70.1183 10.3586 69.9034 9.86677C69.705 9.35857 69.424 8.93235 69.0602 8.5881C68.6965 8.22742 68.2749 7.95698 67.7955 7.77668C67.316 7.57995 66.7953 7.48156 66.2332 7.48156C65.6711 7.48156 65.142 7.57995 64.646 7.77668C64.1666 7.95698 63.745 8.22742 63.3813 8.5881C63.0341 8.93235 62.7613 9.35857 62.5629 9.86677C62.3645 10.3586 62.2653 10.9159 62.2653 11.5389Z" fill="#3981F1"/>
<path d="M74.9015 5.16992H77.7285V10.3585L83.3081 5.16992H87.0031L80.729 10.9486L87.2265 17.9568H83.6061L78.6712 12.6945L77.7285 13.6043V17.9568H74.9015V5.16992Z" fill="#3981F1"/>
<path d="M88.1189 5.16992H100.271V7.77652H95.6081V17.9568H92.7814V7.77652H88.1189V5.16992Z" fill="#3981F1"/>
<path d="M100.888 11.5389C100.888 10.5717 101.054 9.68648 101.385 8.88323C101.715 8.06355 102.186 7.3586 102.798 6.76844C103.41 6.17827 104.137 5.71926 104.981 5.39139C105.823 5.04713 106.758 4.875 107.782 4.875C108.791 4.875 109.717 5.04713 110.56 5.39139C111.42 5.71926 112.155 6.17827 112.767 6.76844C113.379 7.3586 113.85 8.06355 114.181 8.88323C114.528 9.68648 114.701 10.5717 114.701 11.5389C114.701 12.5062 114.528 13.3996 114.181 14.2192C113.85 15.0226 113.379 15.7192 112.767 16.3094C112.155 16.8996 111.42 17.3586 110.56 17.6865C109.717 18.0143 108.791 18.1783 107.782 18.1783C106.774 18.1783 105.848 18.0143 105.005 17.6865C104.162 17.3586 103.434 16.8996 102.823 16.3094C102.211 15.7192 101.732 15.0226 101.385 14.2192C101.054 13.3996 100.888 12.5062 100.888 11.5389ZM103.815 11.5389C103.815 12.1127 103.906 12.6455 104.087 13.1373C104.286 13.6291 104.558 14.0553 104.906 14.416C105.253 14.7767 105.667 15.0635 106.146 15.2767C106.642 15.4733 107.187 15.5717 107.782 15.5717C108.378 15.5717 108.915 15.4816 109.395 15.3012C109.891 15.1045 110.312 14.834 110.659 14.4898C111.006 14.1291 111.279 13.7029 111.477 13.2111C111.676 12.7192 111.775 12.1618 111.775 11.5389C111.775 10.9159 111.668 10.3586 111.452 9.86677C111.255 9.35857 110.973 8.93235 110.61 8.5881C110.246 8.22742 109.824 7.95698 109.345 7.77668C108.866 7.57995 108.344 7.48156 107.782 7.48156C107.22 7.48156 106.691 7.57995 106.196 7.77668C105.716 7.95698 105.294 8.22742 104.931 8.5881C104.583 8.93235 104.311 9.35857 104.112 9.86677C103.914 10.3586 103.815 10.9159 103.815 11.5389Z" fill="#3981F1"/>
<path d="M116.429 5.17008H119.255V6.57172C119.834 6.03074 120.454 5.61271 121.115 5.31762C121.777 5.02254 122.521 4.875 123.348 4.875C124.273 4.875 125.125 5.04713 125.902 5.39139C126.695 5.71926 127.373 6.18647 127.935 6.79303C128.497 7.38319 128.936 8.08815 129.249 8.90775C129.564 9.71107 129.72 10.5881 129.72 11.5389C129.72 12.5225 129.547 13.4242 129.2 14.2439C128.869 15.0471 128.415 15.7438 127.836 16.334C127.257 16.9078 126.563 17.3586 125.753 17.6865C124.959 18.0143 124.108 18.1783 123.199 18.1783C122.388 18.1783 121.661 18.0553 121.016 17.8094C120.371 17.5635 119.784 17.2193 119.255 16.7767V22.875H116.429V5.17008ZM122.777 15.5717C123.339 15.5717 123.86 15.4816 124.339 15.3012C124.835 15.1209 125.265 14.8586 125.629 14.5144C125.992 14.1537 126.274 13.7275 126.472 13.2356C126.687 12.7274 126.794 12.1537 126.794 11.5144C126.794 10.9242 126.703 10.3832 126.522 9.89138C126.34 9.38318 126.075 8.95695 125.728 8.6127C125.397 8.25202 125.001 7.97333 124.538 7.77668C124.074 7.57995 123.562 7.48156 123 7.48156C122.141 7.48156 121.38 7.68645 120.719 8.09633C120.074 8.50613 119.586 8.99797 119.255 9.57172V13.457C119.586 14.1455 120.057 14.6701 120.669 15.0308C121.281 15.3914 121.984 15.5717 122.777 15.5717Z" fill="#3981F1"/>
<path d="M131.123 11.5389C131.123 10.5717 131.288 9.68648 131.619 8.88323C131.95 8.06355 132.421 7.3586 133.032 6.76844C133.644 6.17827 134.371 5.71926 135.214 5.39139C136.058 5.04713 136.992 4.875 138.017 4.875C139.025 4.875 139.951 5.04713 140.795 5.39139C141.654 5.71926 142.39 6.17827 143.001 6.76844C143.613 7.3586 144.084 8.06355 144.415 8.88323C144.762 9.68648 144.936 10.5717 144.936 11.5389C144.936 12.5062 144.762 13.3996 144.415 14.2192C144.084 15.0226 143.613 15.7192 143.001 16.3094C142.39 16.8996 141.654 17.3586 140.795 17.6865C139.951 18.0143 139.025 18.1783 138.017 18.1783C137.009 18.1783 136.082 18.0143 135.239 17.6865C134.396 17.3586 133.669 16.8996 133.057 16.3094C132.445 15.7192 131.966 15.0226 131.619 14.2192C131.288 13.3996 131.123 12.5062 131.123 11.5389ZM134.049 11.5389C134.049 12.1127 134.14 12.6455 134.322 13.1373C134.52 13.6291 134.793 14.0553 135.14 14.416C135.487 14.7767 135.9 15.0635 136.38 15.2767C136.876 15.4733 137.422 15.5717 138.017 15.5717C138.612 15.5717 139.149 15.4816 139.628 15.3012C140.125 15.1045 140.546 14.834 140.893 14.4898C141.241 14.1291 141.513 13.7029 141.712 13.2111C141.91 12.7192 142.01 12.1618 142.01 11.5389C142.01 10.9159 141.902 10.3586 141.687 9.86677C141.488 9.35857 141.208 8.93235 140.843 8.5881C140.48 8.22742 140.059 7.95698 139.579 7.77668C139.099 7.57995 138.579 7.48156 138.017 7.48156C137.455 7.48156 136.926 7.57995 136.43 7.77668C135.95 7.95698 135.529 8.22742 135.165 8.5881C134.818 8.93235 134.545 9.35857 134.347 9.86677C134.148 10.3586 134.049 10.9159 134.049 11.5389Z" fill="#3981F1"/>
<path d="M146.692 5.16992H152.197C153.999 5.16992 155.355 5.42402 156.264 5.93222C157.173 6.44041 157.628 7.31746 157.628 8.56334C157.628 9.15352 157.496 9.65354 157.231 10.0633C156.967 10.4732 156.619 10.8421 156.19 11.1699C156.801 11.3995 157.256 11.7847 157.554 12.3256C157.851 12.8503 158 13.4568 158 14.1454C158 15.424 157.545 16.3831 156.636 17.0224C155.727 17.6453 154.446 17.9568 152.792 17.9568H146.692V5.16992ZM149.519 12.6699V15.424H152.52C153.362 15.424 153.999 15.3175 154.429 15.1043C154.859 14.8912 155.074 14.547 155.074 14.0716C155.074 13.5634 154.867 13.2027 154.454 12.9896C154.057 12.7765 153.437 12.6699 152.594 12.6699H149.519ZM149.519 7.70272V10.2355H152.842C153.42 10.2355 153.875 10.129 154.206 9.91582C154.537 9.70274 154.701 9.37484 154.701 8.93219C154.701 8.40764 154.479 8.07157 154.032 7.92404C153.602 7.77652 152.966 7.70272 152.122 7.70272H149.519Z" fill="#3981F1"/>
</svg>
