<svg width="34" height="40" viewBox="0 0 34 40" fill="none" xmlns="http://www.w3.org/2000/svg">
<path d="M12.5109 16.3637C12.6906 16.6699 12.5918 17.0657 12.2897 17.248C11.8328 17.524 11.3227 17.6598 10.8152 17.6598C10.1451 17.6598 9.47963 17.4234 8.94459 16.9611C8.00474 16.1491 7.67917 14.8213 8.13402 13.6574C8.26338 13.3261 8.63283 13.1635 8.96014 13.2955C9.28666 13.4267 9.44648 13.8018 9.31696 14.1329C9.06243 14.7834 9.24435 15.5252 9.76952 15.979C10.2945 16.4328 11.0459 16.4976 11.6388 16.1393C11.9413 15.9574 12.3315 16.0576 12.5109 16.3637ZM33.3341 7.3116C33.3341 8.40852 32.4541 9.3007 31.3725 9.3007C30.2905 9.3007 29.4109 8.40852 29.4109 7.3116C29.4109 6.21485 30.2905 5.32235 31.3725 5.32235C32.4541 5.32235 33.3341 6.21485 33.3341 7.3116ZM32.0616 7.3116C32.0616 6.9263 31.7523 6.61279 31.3726 6.61279C30.9924 6.61279 30.6832 6.9263 30.6832 7.3116C30.6832 7.69682 30.9924 8.01041 31.3726 8.01041C31.7523 8.01041 32.0616 7.69682 32.0616 7.3116ZM16.4347 23.0208C16.4347 24.1176 15.5551 25.0099 14.4731 25.0099C13.3919 25.0099 12.5116 24.1176 12.5116 23.0208C12.5116 21.924 13.3918 21.0317 14.4731 21.0317C15.5551 21.0317 16.4347 21.924 16.4347 23.0208ZM15.1624 23.0208C15.1624 22.6355 14.853 22.3219 14.4732 22.3219C14.0932 22.3219 13.7842 22.6355 13.7842 23.0208C13.7842 23.4062 14.0932 23.7198 14.4732 23.7198C14.853 23.7198 15.1624 23.4062 15.1624 23.0208ZM1.6329 2.78323C1.6329 1.68639 2.51253 0.793974 3.59437 0.793974C4.67589 0.793974 5.55607 1.68639 5.55607 2.78323C5.55607 3.87999 4.67589 4.77225 3.59437 4.77225C2.51245 4.77225 1.6329 3.87999 1.6329 2.78323ZM2.90511 2.78323C2.90511 3.16845 3.21465 3.48204 3.59429 3.48204C3.97424 3.48204 4.28363 3.16845 4.28363 2.78323C4.28363 2.39777 3.97424 2.08418 3.59429 2.08418C3.21465 2.08418 2.90511 2.39777 2.90511 2.78323ZM33.5 3.95114C33.5 4.30755 33.2153 4.59632 32.8638 4.59632H27.9665C28.6161 5.69596 28.7519 7.02387 28.3332 8.23876C29.2433 9.43756 29.4306 11.0434 28.794 12.441C28.498 13.0909 28.0519 13.6303 27.5108 14.0312C28.4656 17.8207 28.0293 21.5024 26.2313 24.7042L26.1393 24.867C25.8347 25.4032 25.7877 25.4856 25.8818 26.0614C26.8425 31.9742 25.038 36.5854 20.5181 39.7674C20.1161 40.0471 19.6019 40.0762 19.1736 39.8457C18.7452 39.6153 18.4804 39.1672 18.4832 38.6764V31.6048C18.4832 29.6436 16.9096 28.0479 14.9758 28.0479C13.0418 28.0479 11.4679 29.6436 11.4679 31.6048V38.68C11.4705 39.1672 11.2059 39.6154 10.7773 39.8458C10.5852 39.949 10.3762 39.9999 10.1681 39.9999C9.91159 40.0002 9.65619 39.9226 9.43622 39.7693C4.91306 36.5854 3.10826 31.9739 4.06942 26.0616C4.16326 25.4856 4.11646 25.4032 3.81181 24.867L3.71915 24.704C2.82413 23.1102 2.26723 21.3906 2.05058 19.5888C1.16574 19.3968 0.5 18.5982 0.5 17.6441C0.5 16.6709 1.19352 15.8601 2.10519 15.6895C2.2632 14.5434 2.57938 13.165 3.38616 11.8611C3.10471 11.3694 2.91781 10.8138 2.85523 10.2162C2.66052 8.35337 3.70905 6.61992 5.3893 5.93463C5.55654 4.87621 6.13199 3.92177 6.97318 3.27754C6.83443 2.97996 6.75416 2.64885 6.75416 2.29812C6.75416 1.03089 7.77112 0 9.02052 0H32.8637C33.2152 0 33.4999 0.288776 33.4999 0.645184C33.4999 1.00159 33.2152 1.29037 32.8637 1.29037H9.0206C8.4723 1.29037 8.0266 1.7425 8.0266 2.2982C8.0266 2.8539 8.47222 3.3062 9.0206 3.3062H32.8638C33.2152 3.30612 33.5 3.59489 33.5 3.95114ZM17.5528 6.30345V9.52248H18.955L19.7185 6.63456C19.7928 6.35275 20.0447 6.1565 20.3328 6.1565C20.6207 6.1565 20.8728 6.35259 20.9472 6.63456L21.7105 9.52248H21.8723V4.59632H9.65698V9.52248H11.9311V6.30345C11.9311 5.9472 12.216 5.65842 12.5676 5.65842C12.9191 5.65842 13.2038 5.9472 13.2038 6.30345V9.52248H16.2803V6.30345C16.2803 5.9472 16.5651 5.65842 16.9167 5.65842C17.268 5.65842 17.5528 5.9472 17.5528 6.30345ZM2.46162 18.3431C2.84133 18.3431 3.1508 18.0296 3.1508 17.6441C3.1508 17.2588 2.84126 16.9453 2.46162 16.9453C2.08175 16.9453 1.77244 17.2588 1.77244 17.6441C1.77236 18.0296 2.08175 18.3431 2.46162 18.3431ZM26.3477 14.6227C26.1503 14.6856 25.9489 14.7388 25.7412 14.7702C25.8573 15.6786 25.6841 16.6029 25.2439 17.417C25.3335 17.6443 25.3838 17.8912 25.3838 18.1505C25.3838 19.2473 24.5038 20.1397 23.4221 20.1397C22.9194 20.1397 22.4624 19.9455 22.1146 19.6295C20.5498 19.8682 19.0068 19.2227 18.0664 17.9585C16.9778 18.4694 15.7388 18.4913 14.6307 18.0175C13.5982 19.2865 12.2384 19.797 10.9319 19.797C10.0979 19.797 9.28587 19.5891 8.59369 19.2382C6.85945 18.3586 5.3818 16.3266 5.89466 13.7932C5.27509 13.6315 4.71417 13.3272 4.24566 12.9166C3.81078 13.7293 3.5347 14.6651 3.36595 15.8807C3.99349 16.2128 4.42301 16.8781 4.42301 17.6441C4.42301 18.431 3.96934 19.1109 3.31355 19.4332C3.50944 21.0645 4.01449 22.6218 4.82498 24.0656L4.91424 24.2229C5.29435 24.8918 5.48535 25.2868 5.32521 26.2714C4.43856 31.7257 6.01952 35.7935 10.1589 38.7074C10.1589 38.7061 10.1958 38.6811 10.1958 38.68V31.6047C10.1958 28.932 12.3401 26.7575 14.9759 26.7575C17.6116 26.7575 19.7555 28.9319 19.7555 31.6047V38.68L20.1555 39.2374L19.7928 38.7074C23.9317 35.7937 25.5129 31.7258 24.6264 26.2712C24.4661 25.2868 24.6569 24.8918 25.0372 24.2229L25.1258 24.0657C26.7137 21.2378 27.1321 17.9859 26.3477 14.6227ZM23.4221 17.4516C23.0422 17.4516 22.7328 17.7651 22.7328 18.1505C22.7328 18.5359 23.0422 18.8495 23.4221 18.8495C23.802 18.8495 24.1113 18.5359 24.1113 18.1505C24.1114 17.7651 23.802 17.4516 23.4221 17.4516ZM26.3456 4.59632H23.1446V10.1677C23.1446 10.524 22.8598 10.8128 22.5082 10.8128H21.2222C20.9343 10.8128 20.6824 10.6167 20.6078 10.3346L20.3328 9.29438L20.0582 10.3345C19.9838 10.6167 19.7315 10.8128 19.4436 10.8128H9.0206C8.6693 10.8128 8.38453 10.5241 8.38453 10.1677V4.50252C8.18288 4.44241 7.99346 4.35445 7.81895 4.24336C7.11138 4.74487 6.65756 5.55966 6.61454 6.44335C6.60081 6.71964 6.4151 6.95655 6.15227 7.03211C4.83027 7.41221 3.97566 8.69417 4.12057 10.0802C4.265 11.4663 5.36609 12.5381 6.7379 12.6283C6.93617 12.6416 7.11746 12.7481 7.22701 12.9164C7.33679 13.0846 7.36252 13.2952 7.2967 13.4857C6.55495 15.6322 7.69922 17.3419 9.16274 18.0843C10.6256 18.8261 12.6615 18.7299 13.9106 16.8404C14.0982 16.557 14.4708 16.4702 14.761 16.6433C15.7528 17.2344 16.9665 17.2037 17.9284 16.5639C18.0767 16.4653 18.2595 16.4337 18.4316 16.4775C18.6041 16.5212 18.7505 16.636 18.8354 16.7941C19.3748 17.7952 20.3893 18.3866 21.4756 18.3871C21.4667 18.3094 21.4605 18.2306 21.4605 18.1505C21.4605 17.0536 22.3402 16.1613 23.4221 16.1613C23.7443 16.1613 24.0474 16.242 24.3162 16.3821C24.5499 15.7387 24.5672 15.0312 24.3513 14.3678C24.286 14.1655 24.3225 13.9433 24.45 13.7741C24.5773 13.6047 24.7768 13.5097 24.9889 13.5212C26.1316 13.5842 27.1629 12.9455 27.6386 11.9004C28.1149 10.855 27.9179 9.63958 27.1372 8.80366C26.9587 8.61221 26.9128 8.3296 27.0218 8.09013C27.4964 7.0458 27.3554 5.83587 26.6533 4.93288C26.5605 4.81331 26.456 4.70093 26.3456 4.59632Z" fill="#002D82"/>
</svg>
