<svg width="279" height="348" viewBox="0 0 279 348" fill="none" xmlns="http://www.w3.org/2000/svg">
<g clip-path="url(#clip0_348_3793)">
<path d="M32.0862 175.246C34.1878 180.858 37.1161 182.861 37.9222 181.493C38.7284 180.125 32.204 172.081 34.5767 160.339C35.5419 155.703 43.002 155.225 42.2422 161.142C41.3544 165.896 45.6297 176.617 47.335 173.026C49.1304 169.343 46.1117 162.11 54.4375 153.105C59.2794 148.605 64.2946 153.505 60.1033 158.545C55.9062 163.564 56.0253 177.31 63.2896 178.59C70.5596 179.89 71.3849 171.213 71.3302 166.804C71.2755 162.395 78.5431 158.881 79.9712 170.733C80.9376 178.63 79.9738 188.335 69.1158 197.673C77.7519 212.225 100.21 231.161 122.662 233.255C118.445 214.685 117.028 198.153 118.584 184.994C121.455 160.608 133.824 152.363 143.715 149.713C156.63 146.252 166.764 151.117 174.904 155.065C181.745 158.37 187.136 160.981 193.208 159.354C199.279 157.727 202.642 152.771 206.893 146.494C211.996 139.02 218.355 129.713 231.249 126.258C241.14 123.608 255.953 124.569 270.654 144.247C278.602 154.859 285.635 169.863 291.252 188.081C309.671 175.036 319.631 147.414 319.834 130.493C305.762 127.836 300.096 119.907 296.963 112.59C292.274 101.612 300.346 101.016 302.482 104.867C304.639 108.713 309.692 115.815 315.338 111.054C321.011 106.308 314.219 94.3492 308.075 92.1016C301.91 89.8597 303.797 83.0869 310.262 84.5574C321.975 88.1929 322.977 95.9657 326.373 98.2582C329.645 100.515 327.966 89.0989 324.842 85.4201C321.219 80.6536 327.919 77.3377 331.079 80.8918C339.004 89.8739 337.376 100.102 338.758 100.884C340.141 101.666 341.675 98.4668 340.71 92.5503C339.73 86.661 346.689 87.4001 347.986 91.3841C352.377 106.313 345.982 127.243 331.759 130.8C331.424 151.949 318.701 185.565 294.661 200.117C301.086 225.123 304.396 253.267 303.548 275.936C302.493 304.006 295.483 320.584 283.211 323.872C265.897 328.512 257.76 318.826 251.781 311.788C246.088 305.042 242.341 300.585 231.807 303.408C221.273 306.23 220.256 311.963 218.677 320.658C217.061 329.731 214.814 342.199 197.5 346.839C185.25 350.121 170.869 339.274 155.941 315.487C143.873 296.279 132.667 270.25 125.728 245.382C97.6329 244.8 69.801 222.028 58.9423 203.901C44.8456 207.932 28.8637 192.998 25.1806 177.88C24.3337 173.775 29.969 169.661 32.0862 175.246ZM166.015 309.147C179.414 330.487 189.671 336.586 194.391 335.322C204.432 332.631 205.38 327.331 206.942 318.572C208.561 309.337 210.848 296.674 228.676 291.896C246.505 287.119 254.79 296.927 260.858 304.125C266.59 310.93 270.083 315.04 280.081 312.361C284.822 311.091 290.656 300.68 291.611 275.494C292.447 253.128 288.992 225.045 282.397 200.431C276.792 179.514 269.418 162.55 261.094 151.394C252.501 139.918 243.504 135.347 234.3 137.814C225.653 140.13 221.491 146.222 216.709 153.264C214.597 156.364 212.38 159.677 209.618 162.583C214.479 162.617 218.629 163.602 222.063 165.608C222.919 166.139 222.898 167.435 221.99 167.908C214.327 171.92 200.949 175.459 182.923 171.003C182.685 170.975 182.479 170.892 182.236 170.842C177.722 169.701 173.582 167.723 169.675 165.844C162.013 162.136 155.384 158.936 146.738 161.253C137.534 163.719 132.027 172.176 130.344 186.405C128.692 200.234 130.794 218.634 136.393 239.529C142.988 264.144 154.053 290.164 165.967 309.137L166.015 309.147Z" fill="white"/>
<path d="M224.389 214.107C230.987 212.04 236.952 211.133 241.424 211.087C241.833 211.069 242.106 210.628 241.895 210.269C241.095 208.917 239.328 207.985 237.268 207.592C238.192 205.547 238.428 202.996 237.743 200.437C236.372 195.321 231.827 192.092 227.601 193.224C223.374 194.357 221.053 199.426 222.424 204.542C223.017 206.756 224.208 208.626 225.707 209.929C224.537 210.796 223.77 211.969 223.663 213.542C223.632 213.942 224.009 214.232 224.389 214.107Z" fill="white"/>
<path d="M183.734 270.576C184.248 271.037 185.051 270.684 185.049 269.993C185.055 268.471 185.165 266.99 185.377 265.55C192.653 268.762 208.152 271.682 222.334 267.882C236.515 264.083 248.484 253.825 253.173 247.384C254.071 248.503 254.912 249.753 255.678 251.068C256.017 251.645 256.909 251.544 257.109 250.915C260.159 241.273 250.85 233.307 243.23 237.307C242.685 237.591 242.682 238.353 243.183 238.679C244.114 239.236 245.15 239.926 246.236 240.718C242.167 246.301 231.534 255.878 219.928 258.988C208.321 262.098 194.345 259.115 188.008 256.32C188.553 255.091 189.089 254.003 189.633 253.028C189.925 252.489 189.521 251.837 188.907 251.863C180.307 252.209 176.234 263.784 183.691 270.587L183.734 270.576Z" fill="white"/>
<path d="M193.688 222.334C186.94 223.842 181.321 226.039 177.425 228.235C177.062 228.425 176.605 228.179 176.608 227.763C176.624 226.192 177.689 224.501 179.276 223.131C177.454 221.822 175.974 219.73 175.288 217.172C173.917 212.056 176.238 206.987 180.465 205.854C184.692 204.722 189.236 207.951 190.607 213.068C191.2 215.282 191.104 217.497 190.457 219.375C191.904 219.54 193.155 220.173 194.034 221.481C194.261 221.812 194.08 222.252 193.688 222.334Z" fill="white"/>
<path d="M74.783 105.028C71.4669 117.368 62.3333 147.902 57.9464 162.51C56.6315 166.872 59.2379 171.45 63.67 172.543C68.1021 173.637 72.5146 170.795 73.3584 166.307C76.1979 151.33 82.1549 120.011 84.9026 107.524C85.472 104.929 85.7337 102.301 85.4617 99.6555C85.1896 97.0096 85.3969 94.3504 86.0208 91.787L88.124 83.1592C88.2704 82.59 88.7261 82.1454 89.3012 82.0604C93.3426 81.4383 96.7226 78.0903 96.9609 73.4874C97.1408 69.8679 95.06 66.3933 91.7577 64.8819C91.2035 64.6157 90.6508 64.4412 90.0825 64.294C89.5141 64.1467 88.9144 64.054 88.3105 64.0315C84.697 63.8476 81.2363 65.95 79.725 69.2351C77.8089 73.412 79.2561 77.9549 82.5743 80.3837C83.0328 80.7217 83.2642 81.3278 83.1178 81.897L81.0146 90.5248C80.3907 93.0882 79.3288 95.5616 77.8959 97.7658C76.4687 99.9915 75.4712 102.448 74.7772 105.007L74.783 105.028Z" fill="white"/>
</g>
<defs>
<clipPath id="clip0_348_3793">
<rect width="334.171" height="301.832" fill="white" transform="matrix(-0.965926 0.258819 0.258819 0.965926 323.606 0.569336)"/>
</clipPath>
</defs>
</svg>
