<svg width="24" height="24" viewBox="0 0 24 24" fill="none" xmlns="http://www.w3.org/2000/svg">
<path d="M0 12C0 5.3724 5.3712 0 12 0C18.6264 0 24 5.3724 24 12C24 18.6276 18.6264 24 12 24C5.3712 24 0 18.6276 0 12Z" fill="#FC3F1D"/>
<path d="M13.5359 6.79878H12.4271C10.3943 6.79878 9.32512 7.82838 9.32512 9.34638C9.32512 11.0624 10.0643 11.8664 11.5823 12.8972L12.8363 13.742L9.23272 19.1264H6.53992L9.77392 14.3096C7.91392 12.9764 6.86992 11.6816 6.86992 9.49158C6.86992 6.74598 8.78392 4.87158 12.4139 4.87158H16.0175V19.1132H13.5359V6.79878Z" fill="white"/>
</svg>
