<svg width="84" height="24" viewBox="0 0 84 24" fill="none" xmlns="http://www.w3.org/2000/svg">
<path fill-rule="evenodd" clip-rule="evenodd" d="M10.2324 2.78733H8.60962C5.63457 2.78733 4.07943 4.26494 4.07943 6.45898C4.07943 8.94407 5.16126 10.0971 7.38128 11.5859L9.20688 12.7948L3.92166 20.5859H0L4.74431 13.6232C2.01718 11.6978 0.484573 9.8284 0.484573 6.66047C0.484573 2.68658 3.27932 0 8.58708 0H13.861V20.5859H10.2324V2.78733Z" fill="#E63F0C"/>
<path fill-rule="evenodd" clip-rule="evenodd" d="M39.7351 17.8097H34.6978C35.6895 15.5597 35.9599 11.4963 35.9599 8.92165V8.47388H39.7463V17.8097H39.7351ZM43.3074 5.69775H32.8947V6.97388C32.8947 10.612 32.6581 15.3247 31.3959 17.8097H30.2803V24.0001H33.5821V20.5971H41.5945V24.0001H44.8963V17.8097H43.3074V5.69775Z" fill="#071328"/>
<path fill-rule="evenodd" clip-rule="evenodd" d="M25.209 11.5858H20.4422V5.69775H16.8699V20.5971H20.4422V14.3732H25.209V20.5971H28.7814V5.69775H25.209V11.5858Z" fill="#071328"/>
<path fill-rule="evenodd" clip-rule="evenodd" d="M80.4955 8.18332C81.8816 8.18332 83.2226 8.65348 83.9438 9.10124V6.11242C83.1888 5.69824 81.8703 5.396 80.1011 5.396C75.5371 5.396 73.1705 8.61989 73.1705 13.1535C73.1705 18.1349 75.4807 20.8886 80.2588 20.8886C81.9154 20.8886 83.0761 20.5975 83.9551 19.9707V17.0938C83.0536 17.7207 81.9717 18.1013 80.4729 18.1013C77.9261 18.1013 76.8668 16.1423 76.8668 13.0639C76.8668 9.84004 78.1628 8.18332 80.4955 8.18332Z" fill="#071328"/>
<path fill-rule="evenodd" clip-rule="evenodd" d="M72.6972 5.69775H69.0911L64.0538 12.5709V5.69775H60.4814V20.5971H64.0538V13.2761L69.339 20.5971H73.3846L67.6486 12.5709L72.6972 5.69775Z" fill="#071328"/>
<path fill-rule="evenodd" clip-rule="evenodd" d="M54.4411 11.799H49.4602C49.5503 9.42586 50.418 8.18332 52.1309 8.18332C53.9002 8.18332 54.4411 9.63855 54.4411 11.4968V11.799ZM52.1986 5.396C47.8487 5.396 45.7751 8.68706 45.7751 13.1871C45.7751 18.3699 48.3558 20.8886 52.9198 20.8886C55.1961 20.8886 56.8865 20.2953 57.9345 19.5901V16.7132C56.8189 17.452 54.9595 18.1013 53.224 18.1013C50.6096 18.1013 49.6179 16.8923 49.4714 14.396H58.081V12.5266C58.081 7.35496 55.7709 5.396 52.1986 5.396Z" fill="#071328"/>
</svg>
