<svg width="90" height="90" fill="none" xmlns="http://www.w3.org/2000/svg"><path d="M45 0a44.72 44.72 0 0117.517 3.537 44.847 44.847 0 0114.302 9.644 44.849 44.849 0 019.644 14.302A44.719 44.719 0 0190 45a44.72 44.72 0 01-3.537 17.517 44.846 44.846 0 01-9.644 14.302 44.846 44.846 0 01-14.302 9.644A44.719 44.719 0 0145 90a44.72 44.72 0 01-17.517-3.537 44.846 44.846 0 01-14.302-9.644 44.846 44.846 0 01-9.644-14.302A44.72 44.72 0 010 45a44.72 44.72 0 013.537-17.517 44.847 44.847 0 019.644-14.302 44.848 44.848 0 0114.302-9.644A44.72 44.72 0 0145 0zm0 2.813C21.738 2.813 2.812 21.738 2.812 45c0 23.262 18.926 42.188 42.188 42.188 23.262 0 42.188-18.926 42.188-42.188C87.188 21.738 68.261 2.812 45 2.812zm0 3c5.29 0 10.422 1.036 15.254 3.08A39.057 39.057 0 0172.71 17.29a39.055 39.055 0 018.397 12.456A38.942 38.942 0 0184.187 45c0 5.29-1.036 10.422-3.08 15.254A39.057 39.057 0 0172.71 72.71a39.055 39.055 0 01-12.456 8.397A38.942 38.942 0 0145 84.187a38.944 38.944 0 01-15.254-3.08A39.057 39.057 0 0117.29 72.71a39.057 39.057 0 01-8.397-12.456A38.944 38.944 0 015.813 45c0-5.29 1.036-10.422 3.08-15.254A39.057 39.057 0 0117.29 17.29a39.057 39.057 0 0112.456-8.397A38.943 38.943 0 0145 5.813zm0 2.812C24.943 8.625 8.625 24.943 8.625 45S24.943 81.375 45 81.375 81.375 65.057 81.375 45 65.057 8.625 45 8.625zm0 32.063A4.317 4.317 0 0149.313 45a4.282 4.282 0 01-1.264 3.05A4.282 4.282 0 0145 49.313 4.317 4.317 0 0140.687 45c0-1.153.45-2.236 1.264-3.05A4.281 4.281 0 0145 40.687zm0 2.812c-.4 0-.777.156-1.06.44-.284.283-.44.66-.44 1.06a1.502 1.502 0 002.56 1.062A1.502 1.502 0 0045 43.5z" fill="#071328"/><path d="M45 0a44.72 44.72 0 0117.517 3.537 44.847 44.847 0 0114.302 9.644 44.849 44.849 0 019.644 14.302A44.719 44.719 0 0190 45a44.72 44.72 0 01-3.537 17.517 44.846 44.846 0 01-9.644 14.302 44.846 44.846 0 01-14.302 9.644A44.719 44.719 0 0145 90a44.72 44.72 0 01-17.517-3.537 44.846 44.846 0 01-14.302-9.644 44.846 44.846 0 01-9.644-14.302A44.72 44.72 0 010 45a44.72 44.72 0 013.537-17.517 44.847 44.847 0 019.644-14.302 44.848 44.848 0 0114.302-9.644A44.72 44.72 0 0145 0zm0 2.813C21.738 2.813 2.812 21.738 2.812 45c0 23.262 18.926 42.188 42.188 42.188 23.262 0 42.188-18.926 42.188-42.188C87.188 21.738 68.261 2.812 45 2.812zm0 3c5.29 0 10.422 1.036 15.254 3.08A39.057 39.057 0 0172.71 17.29a39.055 39.055 0 018.397 12.456A38.942 38.942 0 0184.187 45c0 5.29-1.036 10.422-3.08 15.254A39.057 39.057 0 0172.71 72.71a39.055 39.055 0 01-12.456 8.397A38.942 38.942 0 0145 84.187a38.944 38.944 0 01-15.254-3.08A39.057 39.057 0 0117.29 72.71a39.057 39.057 0 01-8.397-12.456A38.944 38.944 0 015.813 45c0-5.29 1.036-10.422 3.08-15.254A39.057 39.057 0 0117.29 17.29a39.057 39.057 0 0112.456-8.397A38.943 38.943 0 0145 5.813zm0 2.812C24.943 8.625 8.625 24.943 8.625 45S24.943 81.375 45 81.375 81.375 65.057 81.375 45 65.057 8.625 45 8.625zm0 32.063A4.317 4.317 0 0149.313 45a4.282 4.282 0 01-1.264 3.05A4.282 4.282 0 0145 49.313 4.317 4.317 0 0140.687 45c0-1.153.45-2.236 1.264-3.05A4.281 4.281 0 0145 40.687zm0 2.812c-.4 0-.777.156-1.06.44-.284.283-.44.66-.44 1.06a1.502 1.502 0 002.56 1.062A1.502 1.502 0 0045 43.5z" stroke="#fff"/><path d="M24.483 24.482c.549-.55 1.44-.55 1.989 0L43.11 41.12a4.318 4.318 0 016.202 3.879 4.288 4.288 0 01-1.263 3.05l-.18.17a4.297 4.297 0 01-1.463.859v23.53c0 .777-.63 1.406-1.406 1.406a28.918 28.918 0 01-20.517-8.498 28.92 28.92 0 01-6.217-9.222 28.836 28.836 0 01-2.282-11.295 28.92 28.92 0 018.498-20.517zm1.02 3.009c-4.335 4.815-6.706 10.98-6.706 17.508 0 13.976 11 25.432 24.797 26.166v-23.26c0-.777.63-1.407 1.406-1.407.4 0 .778-.155 1.06-.438h.002A1.502 1.502 0 0045 43.5a1.476 1.476 0 00-1.06.438 1.407 1.407 0 01-.996.412l-.14-.007a1.407 1.407 0 01-.854-.404L25.503 27.491z" fill="#071328"/><path d="M24.483 24.482c.549-.55 1.44-.55 1.989 0L43.11 41.12a4.318 4.318 0 016.202 3.879 4.288 4.288 0 01-1.263 3.05l-.18.17a4.297 4.297 0 01-1.463.859v23.53c0 .777-.63 1.406-1.406 1.406a28.918 28.918 0 01-20.517-8.498 28.92 28.92 0 01-6.217-9.222 28.836 28.836 0 01-2.282-11.295 28.92 28.92 0 018.498-20.517zm1.02 3.009c-4.335 4.815-6.706 10.98-6.706 17.508 0 13.976 11 25.432 24.797 26.166v-23.26c0-.777.63-1.407 1.406-1.407.4 0 .778-.155 1.06-.438h.002A1.502 1.502 0 0045 43.5a1.476 1.476 0 00-1.06.438 1.407 1.407 0 01-.996.412l-.14-.007a1.407 1.407 0 01-.854-.404L25.503 27.491z" stroke="#fff"/><path d="M45 24.703c.777 0 1.406.63 1.406 1.406v15.984a1.406 1.406 0 11-2.812 0V26.11c0-.777.63-1.406 1.406-1.406z" fill="#071328"/><path d="M45 24.703c.777 0 1.406.63 1.406 1.406v15.984a1.406 1.406 0 11-2.812 0V26.11c0-.777.63-1.406 1.406-1.406z" stroke="#fff"/><path d="M46.06 46.062c.55-.55 1.44-.55 1.99 0l15.382 15.381a1.407 1.407 0 01-1.99 1.99L46.062 48.05c-.55-.55-.55-1.44 0-1.988z" fill="#071328"/><path d="M46.06 46.062c.55-.55 1.44-.55 1.99 0l15.382 15.381a1.407 1.407 0 01-1.99 1.99L46.062 48.05c-.55-.55-.55-1.44 0-1.988z" stroke="#fff"/><path d="M45.863 13.987c-.746 0-1.35-.632-1.35-1.412V8.2c0-.78.604-1.412 1.35-1.412.745 0 1.35.632 1.35 1.412v4.376c0 .78-.605 1.412-1.35 1.412zm-16.37 4.5c-.526 0-1.037-.241-1.319-.673l-2.357-3.61c-.42-.643-.171-1.465.556-1.837.728-.37 1.658-.15 2.078.493l2.357 3.61c.42.643.171 1.465-.556 1.837a1.67 1.67 0 01-.76.18zm-12.427 11.7c-.228 0-.459-.055-.67-.17l-3.61-1.965c-.644-.35-.864-1.125-.493-1.731.371-.606 1.194-.814 1.837-.464l3.61 1.965c.643.35.864 1.125.492 1.731a1.36 1.36 0 01-1.166.634zm-4.566 15.3H8.125c-.78 0-1.411-.604-1.411-1.35 0-.745.632-1.35 1.411-1.35h4.377c.78 0 1.412.605 1.412 1.35 0 .746-.633 1.35-1.412 1.35zm.959 18.9c-.465 0-.917-.272-1.166-.76-.371-.728-.151-1.658.492-2.078l3.61-2.358c.643-.42 1.466-.17 1.837.557.372.728.151 1.658-.492 2.078l-3.61 2.357a1.22 1.22 0 01-.671.204zm13.673 13.5a1.67 1.67 0 01-.759-.18c-.727-.371-.976-1.194-.556-1.837l2.357-3.61c.42-.643 1.35-.864 2.078-.492.727.371.977 1.194.556 1.837l-2.357 3.61c-.282.431-.793.672-1.319.672zm18.731 5.4c-.746 0-1.35-.632-1.35-1.411v-4.377c0-.78.604-1.412 1.35-1.412.745 0 1.35.632 1.35 1.412v4.377c0 .78-.605 1.411-1.35 1.411zm17.183-5.4c-.438 0-.864-.24-1.099-.672l-1.965-3.61c-.35-.643-.142-1.466.464-1.837.607-.372 1.382-.151 1.732.492l1.965 3.61c.35.643.142 1.466-.464 1.837-.2.122-.418.18-.633.18zm13.42-13.5a1.22 1.22 0 01-.67-.204l-3.61-2.357c-.644-.42-.864-1.35-.493-2.078.371-.727 1.194-.977 1.837-.557l3.61 2.358c.643.42.864 1.35.492 2.078-.249.488-.7.76-1.166.76zm5.334-18.9h-4.376c-.78 0-1.411-.604-1.411-1.35 0-.745.632-1.35 1.411-1.35h4.377c.78 0 1.412.605 1.412 1.35 0 .746-.632 1.35-1.412 1.35zm-8.941-15.3a1.36 1.36 0 01-1.166-.634c-.371-.606-.151-1.381.492-1.731l3.61-1.965c.644-.35 1.466-.142 1.837.464s.151 1.381-.492 1.731l-3.61 1.965c-.212.115-.443.17-.671.17zm-11.78-11.7a1.21 1.21 0 01-.633-.18c-.606-.372-.813-1.194-.463-1.837l1.964-3.61c.35-.644 1.125-.864 1.732-.493.606.372.814 1.194.463 1.837l-1.964 3.61c-.235.432-.66.673-1.099.673z" fill="#071328"/></svg>