<svg width="82" height="90" fill="none" xmlns="http://www.w3.org/2000/svg"><path d="M53.328 64.81l-11.222 6.963-.118.074v15.1h36.005v-8.21c-.012-7.698-6.243-13.94-13.94-13.965H53.389l-.06.038zM51.21 54.348a23.036 23.036 0 01-20.42 0l-.361-.179v8.5l.113.075 10.023 6.576.134.088.136-.085 10.618-6.638.118-.074v-8.442l-.361.179zm10.092-9.268a24.902 24.902 0 01-3.45 4.438h0a22.506 22.506 0 01-3.37 2.875l-.108.074v2.898h15.73l-.614-.45a22.63 22.63 0 01-5.589-5.937l-.002-.002-.3-.466a29.334 29.334 0 01-1.857-3.404l-.196-.425-.244.4zm-.026-8.53l-15.693 4.594a16.286 16.286 0 01-9.166 0L20.724 36.55l-.4-.117.085.408a21.645 21.645 0 005.725 10.72v.002C30.13 51.666 35.41 53.93 41 53.93c5.414 0 10.539-2.125 14.487-5.99l.378-.38a21.647 21.647 0 005.726-10.721l.085-.408-.4.117zm-41.375-4.1c0 .14.01.278.02.407.012.133.023.253.027.374l.006.181.174.05 17.083 4.993c2.48.726 5.118.726 7.599 0l17.065-4.992.174-.05.006-.181c.004-.122.014-.244.024-.376.01-.129.02-.266.02-.406V21.631H19.9v10.817zm-3.192-5.891c-.867.582-1.65 1.608-1.65 2.761 0 1.154.783 2.18 1.65 2.763l.39.262v-6.048l-.39.262zm48.192 5.738l.39-.26a3.224 3.224 0 001.424-2.517l.004-.203a3.224 3.224 0 00-1.428-2.712l-.39-.261v5.953zM19.945 3.053a2.95 2.95 0 00-2.924 2.7l-.01.29v12.785h47.564V6.044a2.977 2.977 0 00-.857-2.11h-.001a2.977 2.977 0 00-2.1-.881H19.944zm19.24 68.775l-.11-.074-10.475-6.94-.063-.041h-10.59c-7.697.024-13.928 6.266-13.94 13.964v8.21h35.179V71.828zM27.627 52.466l-.107-.074a22.539 22.539 0 01-3.369-2.874l-.002-.002-.488-.513a24.998 24.998 0 01-2.986-3.945l-.244-.4-.197.426a29.25 29.25 0 01-2.16 3.892v.002a22.674 22.674 0 01-5.595 5.935l-.614.451h15.762v-2.898zM14.209 6.043A5.759 5.759 0 0119.661.258l.286-.008h41.667l.297.009a5.78 5.78 0 015.467 5.785V20.3c.002.36-.142.705-.4.956v0a1.32 1.32 0 01-.833.372l-.135.002H64.9v1.765l.182.052a6.066 6.066 0 014.41 5.87 6.14 6.14 0 01-4.645 5.921l-.166.042-.022.17a24.216 24.216 0 01-1.402 5.66l-.032.081.028.085c.373 1.135 1.52 4.234 3.788 7.262 2.27 3.03 5.676 6.004 10.566 6.846v0a1.401 1.401 0 01-.238 2.782H54.374v3.803h9.678c9.224 0 16.744 7.542 16.744 16.768v9.604a1.419 1.419 0 01-1.416 1.408H2.62a1.42 1.42 0 01-1.408-1.266l-.008-.143v-9.603c0-9.226 7.52-16.768 16.744-16.768h9.678v-3.803H4.595a1.401 1.401 0 01-.241-2.781v-.001c4.928-.849 8.346-3.843 10.615-6.883 2.268-3.04 3.402-6.142 3.761-7.25l.028-.084-.031-.082a24.279 24.279 0 01-1.402-5.63l-.02-.172-.168-.04-.256-.068c-2.62-.754-4.597-3.14-4.597-5.857 0-2.742 2.044-5.149 4.632-5.878l.183-.051v-1.76h-1.547a1.302 1.302 0 01-.858-.285l-.1-.09a1.301 1.301 0 01-.385-.95V6.043z" fill="#071328" stroke="#fff" stroke-width=".5"/><path d="M30.945 33.34a5.49 5.49 0 005.482-5.483 1.651 1.651 0 00-3.302 0 2.18 2.18 0 01-4.358 0 1.651 1.651 0 00-3.303 0 5.488 5.488 0 005.481 5.483zm19.152 0a5.49 5.49 0 005.482-5.483 1.651 1.651 0 00-3.302 0 2.18 2.18 0 11-4.359 0 1.651 1.651 0 00-3.302 0 5.488 5.488 0 005.481 5.483zM43.684 9.29h-1.239V7.845a1.651 1.651 0 00-3.303 0V9.29H38.11a1.652 1.652 0 000 3.302h1.032v.826a1.651 1.651 0 003.303 0v-.826h1.239a1.651 1.651 0 000-3.302z" fill="#071328"/></svg>