<svg width="90" height="90" fill="none" xmlns="http://www.w3.org/2000/svg"><path d="M63.036 0c.776 0 1.406.63 1.406 1.406v51.623c0 .777-.63 1.406-1.406 1.406H26.964c-.777 0-1.407-.63-1.407-1.406V1.406c0-.777.63-1.406 1.407-1.406h36.072zM28.37 51.623h33.26V2.813H28.37v48.81z" fill="#071328"/><path d="M63.036 0c.776 0 1.406.63 1.406 1.406v51.623c0 .777-.63 1.406-1.406 1.406H26.964c-.777 0-1.407-.63-1.407-1.406V1.406c0-.777.63-1.406 1.407-1.406h36.072zM28.37 51.623h33.26V2.813H28.37v48.81z" stroke="#fff"/><path d="M52.179 37.14a1.406 1.406 0 010 2.813H37.82a1.406 1.406 0 110-2.813h14.358z" fill="#071328"/><path d="M52.179 37.14a1.406 1.406 0 010 2.813H37.82a1.406 1.406 0 110-2.813h14.358z" stroke="#fff"/><path d="M55.033 42.76a1.406 1.406 0 010 2.812H34.966a1.406 1.406 0 010-2.812h20.067z" fill="#071328"/><path d="M55.033 42.76a1.406 1.406 0 010 2.812H34.966a1.406 1.406 0 010-2.812h20.067z" stroke="#fff"/><path d="M26.964 9.964a1.407 1.407 0 010 2.813H3.731V70.19h82.538V12.777H63.036a1.407 1.407 0 010-2.813h24.64c.776 0 1.406.63 1.406 1.407v60.226c0 .777-.63 1.406-1.407 1.406H2.325c-.777 0-1.407-.63-1.407-1.406V11.371c0-.777.63-1.407 1.407-1.407h24.64z" fill="#071328"/><path d="M26.964 9.964a1.407 1.407 0 010 2.813H3.731V70.19h82.538V12.777H63.036a1.407 1.407 0 010-2.813h24.64c.776 0 1.406.63 1.406 1.407v60.226c0 .777-.63 1.406-1.407 1.406H2.325c-.777 0-1.407-.63-1.407-1.406V11.371c0-.777.63-1.407 1.407-1.407h24.64z" stroke="#fff"/><path d="M87.675 63.595a1.406 1.406 0 010 2.813H2.325a1.406 1.406 0 010-2.813h85.35z" fill="#071328"/><path d="M87.675 63.595a1.406 1.406 0 010 2.813H2.325a1.406 1.406 0 010-2.813h85.35z" stroke="#fff"/><path d="M41.655 70.193c.776 0 1.406.63 1.406 1.406v12.656a1.407 1.407 0 01-2.813 0V71.6c0-.776.63-1.406 1.407-1.406z" fill="#071328"/><path d="M41.655 70.193c.776 0 1.406.63 1.406 1.406v12.656a1.407 1.407 0 01-2.813 0V71.6c0-.776.63-1.406 1.407-1.406z" stroke="#fff"/><path d="M48.345 70.193c.777 0 1.406.63 1.406 1.406v12.656a1.407 1.407 0 01-2.812 0V71.6c0-.776.63-1.406 1.406-1.406z" fill="#071328"/><path d="M48.345 70.193c.777 0 1.406.63 1.406 1.406v12.656a1.407 1.407 0 01-2.812 0V71.6c0-.776.63-1.406 1.406-1.406z" stroke="#fff"/><path d="M58.89 82.848c.776 0 1.406.63 1.406 1.406v4.34c0 .776-.63 1.406-1.406 1.406H31.11c-.776 0-1.406-.63-1.406-1.406v-4.34c0-.777.63-1.406 1.406-1.406h27.78zm-26.373 4.34h24.966V85.66H32.517v1.528z" fill="#071328"/><path d="M58.89 82.848c.776 0 1.406.63 1.406 1.406v4.34c0 .776-.63 1.406-1.406 1.406H31.11c-.776 0-1.406-.63-1.406-1.406v-4.34c0-.777.63-1.406 1.406-1.406h27.78zm-26.373 4.34h24.966V85.66H32.517v1.528z" stroke="#fff"/><path d="M48.82 9.966c.984 0 1.958.214 2.895.638 2.642 1.195 4.35 3.858 4.353 6.785v.029c0 1.127-.425 2.142-.8 3.037-.235.56-.456 1.09-.523 1.528-.104.676-.19 1.35-.274 2.003-.327 2.556-.637 4.97-1.924 7.129l-.024.042a3.091 3.091 0 01-3.206 1.466 3.104 3.104 0 01-2.532-2.466c-.723-3.623-1.404-5.205-1.786-5.863-.381.658-1.062 2.24-1.785 5.864a3.103 3.103 0 01-2.531 2.465 3.093 3.093 0 01-3.207-1.467l-.025-.041c-1.287-2.159-1.596-4.573-1.923-7.129-.084-.652-.17-1.327-.274-2.003-.067-.439-.289-.968-.523-1.528-.375-.895-.8-1.91-.8-3.037v-.036a7.452 7.452 0 011.303-4.21 7.369 7.369 0 013.46-2.739 6.918 6.918 0 012.484-.467c1.196 0 2.4.4 3.678 1.222a.27.27 0 00.287 0c1.278-.822 2.481-1.222 3.678-1.222zm-7.64 2.812c-.495 0-.992.095-1.478.281-1.767.678-2.956 2.418-2.957 4.329v.03c0 .562.282 1.237.58 1.95.29.693.59 1.409.71 2.188.109.712.198 1.404.284 2.074.301 2.355.56 4.389 1.549 6.046l.02.034a.28.28 0 00.316.142.288.288 0 00.252-.245c.454-2.274.958-4.107 1.498-5.447.525-1.301 1.41-3.03 3.046-3.03s2.522 1.729 3.046 3.03c.54 1.34 1.044 3.173 1.497 5.447.028.138.114.22.254.244a.278.278 0 00.315-.141l.022-.037c.986-1.654 1.247-3.688 1.548-6.043.086-.67.174-1.362.283-2.074.12-.779.42-1.495.71-2.187.298-.714.581-1.389.581-1.951v-.027c-.002-1.824-1.061-3.483-2.699-4.223a4.199 4.199 0 00-1.735-.389c-.64 0-1.345.253-2.156.774a3.083 3.083 0 01-3.33 0c-.812-.522-1.517-.775-2.157-.775z" fill="#071328"/><path d="M48.82 9.966c.984 0 1.958.214 2.895.638 2.642 1.195 4.35 3.858 4.353 6.785v.029c0 1.127-.425 2.142-.8 3.037-.235.56-.456 1.09-.523 1.528-.104.676-.19 1.35-.274 2.003-.327 2.556-.637 4.97-1.924 7.129l-.024.042a3.091 3.091 0 01-3.206 1.466 3.104 3.104 0 01-2.532-2.466c-.723-3.623-1.404-5.205-1.786-5.863-.381.658-1.062 2.24-1.785 5.864a3.103 3.103 0 01-2.531 2.465 3.093 3.093 0 01-3.207-1.467l-.025-.041c-1.287-2.159-1.596-4.573-1.923-7.129-.084-.652-.17-1.327-.274-2.003-.067-.439-.289-.968-.523-1.528-.375-.895-.8-1.91-.8-3.037v-.036a7.452 7.452 0 011.303-4.21 7.369 7.369 0 013.46-2.739 6.918 6.918 0 012.484-.467c1.196 0 2.4.4 3.678 1.222a.27.27 0 00.287 0c1.278-.822 2.481-1.222 3.678-1.222zm-7.64 2.812c-.495 0-.992.095-1.478.281-1.767.678-2.956 2.418-2.957 4.329v.03c0 .562.282 1.237.58 1.95.29.693.59 1.409.71 2.188.109.712.198 1.404.284 2.074.301 2.355.56 4.389 1.549 6.046l.02.034a.28.28 0 00.316.142.288.288 0 00.252-.245c.454-2.274.958-4.107 1.498-5.447.525-1.301 1.41-3.03 3.046-3.03s2.522 1.729 3.046 3.03c.54 1.34 1.044 3.173 1.497 5.447.028.138.114.22.254.244a.278.278 0 00.315-.141l.022-.037c.986-1.654 1.247-3.688 1.548-6.043.086-.67.174-1.362.283-2.074.12-.779.42-1.495.71-2.187.298-.714.581-1.389.581-1.951v-.027c-.002-1.824-1.061-3.483-2.699-4.223a4.199 4.199 0 00-1.735-.389c-.64 0-1.345.253-2.156.774a3.083 3.083 0 01-3.33 0c-.812-.522-1.517-.775-2.157-.775z" stroke="#fff"/></svg>