<svg width="90" height="90" fill="none" xmlns="http://www.w3.org/2000/svg"><path d="M83.745 30.863c.776 0 1.406.63 1.406 1.407v51.304A6.434 6.434 0 0178.725 90a6.433 6.433 0 01-6.425-6.426V32.27c0-.777.63-1.407 1.406-1.407h10.038zm-8.632 52.711a3.617 3.617 0 003.612 3.614 3.618 3.618 0 003.613-3.614V33.676h-7.225v49.898z" fill="#071328"/><path d="M83.745 30.863c.776 0 1.406.63 1.406 1.407v51.304A6.434 6.434 0 0178.725 90a6.433 6.433 0 01-6.425-6.426V32.27c0-.777.63-1.407 1.406-1.407h10.038zm-8.632 52.711a3.617 3.617 0 003.612 3.614 3.618 3.618 0 003.613-3.614V33.676h-7.225v49.898z" stroke="#fff"/><path d="M83.745 78.526a1.406 1.406 0 010 2.812H73.706a1.406 1.406 0 010-2.812h10.038z" fill="#071328"/><path d="M83.745 78.526a1.406 1.406 0 010 2.812H73.706a1.406 1.406 0 010-2.812h10.038z" stroke="#fff"/><path d="M78.726 16.613c.776 0 1.406.63 1.406 1.406v14.25a1.406 1.406 0 01-2.813 0v-14.25c0-.777.63-1.406 1.407-1.406z" fill="#071328"/><path d="M78.726 16.613c.776 0 1.406.63 1.406 1.406v14.25a1.406 1.406 0 01-2.813 0v-14.25c0-.777.63-1.406 1.407-1.406z" stroke="#fff"/><path d="M82.567.076a6.388 6.388 0 015.14 1.464 6.388 6.388 0 012.234 4.855v7.322c0 1.87-.814 3.64-2.234 4.856a6.386 6.386 0 01-5.14 1.464l-6.659-1.031a9.063 9.063 0 01-5.489-3.056 9.063 9.063 0 01-2.18-5.894c0-2.16.775-4.252 2.18-5.892a9.062 9.062 0 015.49-3.056L82.566.076zm.981 2.737a3.64 3.64 0 00-.55.043L76.34 3.887a6.211 6.211 0 00-5.287 6.17 6.21 6.21 0 005.287 6.17L83 17.259a3.577 3.577 0 002.878-.82 3.578 3.578 0 001.251-2.72V6.396a3.58 3.58 0 00-3.58-3.583z" fill="#071328"/><path d="M82.567.076a6.388 6.388 0 015.14 1.464 6.388 6.388 0 012.234 4.855v7.322c0 1.87-.814 3.64-2.234 4.856a6.386 6.386 0 01-5.14 1.464l-6.659-1.031a9.063 9.063 0 01-5.489-3.056 9.063 9.063 0 01-2.18-5.894c0-2.16.775-4.252 2.18-5.892a9.062 9.062 0 015.49-3.056L82.566.076zm.981 2.737a3.64 3.64 0 00-.55.043L76.34 3.887a6.211 6.211 0 00-5.287 6.17 6.21 6.21 0 005.287 6.17L83 17.259a3.577 3.577 0 002.878-.82 3.578 3.578 0 001.251-2.72V6.396a3.58 3.58 0 00-3.58-3.583z" stroke="#fff"/><path d="M69.645 8.651a1.406 1.406 0 010 2.813H58.977a1.406 1.406 0 010-2.813h10.668z" fill="#071328"/><path d="M69.645 8.651a1.406 1.406 0 010 2.813H58.977a1.406 1.406 0 010-2.813h10.668z" stroke="#fff"/><path d="M43.375.362A1.407 1.407 0 0145.26 2.45l-8.09 7.297 7.987 5.964c.356.265.566.683.566 1.127v15.43a1.407 1.407 0 01-2.813.002V17.543l-8.795-6.566a1.406 1.406 0 01-.1-2.171l9.36-8.444z" fill="#071328"/><path d="M43.375.362A1.407 1.407 0 0145.26 2.45l-8.09 7.297 7.987 5.964c.356.265.566.683.566 1.127v15.43a1.407 1.407 0 01-2.813.002V17.543l-8.795-6.566a1.406 1.406 0 01-.1-2.171l9.36-8.444z" stroke="#fff"/><path d="M49.336 30.863c.777 0 1.407.63 1.407 1.407v51.304A6.434 6.434 0 0144.317 90a6.433 6.433 0 01-6.425-6.426V32.27c0-.777.63-1.407 1.406-1.407h10.038zm-8.631 52.711a3.617 3.617 0 003.612 3.614 3.618 3.618 0 003.613-3.614V33.676h-7.225v49.898z" fill="#071328"/><path d="M49.336 30.863c.777 0 1.407.63 1.407 1.407v51.304A6.434 6.434 0 0144.317 90a6.433 6.433 0 01-6.425-6.426V32.27c0-.777.63-1.407 1.406-1.407h10.038zm-8.631 52.711a3.617 3.617 0 003.612 3.614 3.618 3.618 0 003.613-3.614V33.676h-7.225v49.898z" stroke="#fff"/><path d="M49.336 78.526a1.406 1.406 0 010 2.812H39.298a1.406 1.406 0 010-2.812h10.038z" fill="#071328"/><path d="M49.336 78.526a1.406 1.406 0 010 2.812H39.298a1.406 1.406 0 010-2.812h10.038z" stroke="#fff"/><path d="M14.928 78.526a1.406 1.406 0 010 2.813H4.89a1.406 1.406 0 010-2.813h10.038z" fill="#071328"/><path d="M14.928 78.526a1.406 1.406 0 010 2.813H4.89a1.406 1.406 0 010-2.813h10.038z" stroke="#fff"/><path d="M9.909 16.888c.776 0 1.406.63 1.406 1.406V32.27a1.406 1.406 0 01-2.812 0V18.294c0-.777.63-1.406 1.406-1.406z" fill="#071328"/><path d="M9.909 16.888c.776 0 1.406.63 1.406 1.406V32.27a1.406 1.406 0 01-2.812 0V18.294c0-.777.63-1.406 1.406-1.406z" stroke="#fff"/><path d="M9.909 0c5.43 0 9.85 4.42 9.85 9.85 0 5.431-4.42 9.85-9.85 9.85-5.431 0-9.85-4.419-9.85-9.85C.059 4.42 4.478 0 9.909 0zm0 2.813A7.045 7.045 0 002.87 9.85a7.045 7.045 0 007.038 7.037 7.045 7.045 0 007.037-7.037 7.045 7.045 0 00-7.037-7.037z" fill="#071328"/><path d="M9.909 0c5.43 0 9.85 4.42 9.85 9.85 0 5.431-4.42 9.85-9.85 9.85-5.431 0-9.85-4.419-9.85-9.85C.059 4.42 4.478 0 9.909 0zm0 2.813A7.045 7.045 0 002.87 9.85a7.045 7.045 0 007.038 7.037 7.045 7.045 0 007.037-7.037 7.045 7.045 0 00-7.037-7.037z" stroke="#fff"/><path d="M14.928 30.863c.776 0 1.406.63 1.406 1.407v51.304A6.434 6.434 0 019.908 90a6.433 6.433 0 01-6.425-6.425V32.27c0-.777.63-1.407 1.407-1.407h10.038zM6.296 83.576a3.617 3.617 0 003.612 3.613 3.618 3.618 0 003.614-3.614V33.676H6.295v49.898z" fill="#071328"/><path d="M14.928 30.863c.776 0 1.406.63 1.406 1.407v51.304A6.434 6.434 0 019.908 90a6.433 6.433 0 01-6.425-6.425V32.27c0-.777.63-1.407 1.407-1.407h10.038zM6.296 83.576a3.617 3.617 0 003.612 3.613 3.618 3.618 0 003.614-3.614V33.676H6.295v49.898z" stroke="#fff"/></svg>