<svg width="76" height="90" fill="none" xmlns="http://www.w3.org/2000/svg"><path d="M13.813 34.221c.758-.65 2.037-.48 2.775.504l.01.013.01.013c.65.756.481 2.031-.498 2.77C9.118 42.434 5.256 50.319 5.256 58.785c0 14.57 11.894 26.464 26.465 26.464 7.57 0 14.705-3.116 19.617-8.617.81-.8 2.106-.835 3.098-.112.806.83.803 2.119.1 2.941-5.736 6.452-13.912 10.04-22.67 10.04-16.791 0-30.569-13.636-30.569-30.57 0-9.758 4.737-18.945 12.488-24.687l.014-.011.014-.012z" fill="#071328" stroke="#fff"/><path d="M27.053 4.897c-3.348 0-5.897 2.713-5.897 5.897 0 3.193 2.703 5.897 5.897 5.897 3.193 0 5.897-2.704 5.897-5.897s-2.704-5.897-5.897-5.897zM24.78 47.961L23.177 20.1l-.018-.294-.266-.128-.323-.162c-3.305-1.728-5.52-5.114-5.52-9.015A9.959 9.959 0 0127.054.5a9.96 9.96 0 0110.003 10.002c0 5.282-4.03 9.588-9.168 10.005l-.483.039.024.483.292 5.98.023.476h21.773c1.182 0 2.125.944 2.125 2.126a2.115 2.115 0 01-2.126 2.125H27.98l.034.532.875 14.148.029.47H60.31c1.614 0 2.876 1.236 3.003 2.893v.004l1.897 22.318.042.498.498-.042 6.856-.584.007-.001c1.198-.12 2.076.707 2.076 1.691v.025l.002.024c.117 1.164-.68 2.101-1.88 2.224l-8.58.727h-.128c-1.355 0-2.737-1.125-3-2.474v-.255l-.003-.022-1.896-22.608-.038-.46H27.782c-1.634 0-3-1.393-3-2.854v-.03z" fill="#071328" stroke="#fff"/></svg>