<svg width="196" height="60" fill="none" xmlns="http://www.w3.org/2000/svg"><g clip-path="url(#clip0_316_3135)" fill="#002D82"><path d="M62.985 18.015c-.11 1.151-.556 1.671-.774 1.456-.219-.215.595-2.04-.433-4.112-.41-.817-1.823-.533-1.387.533.403.842.142 3.055-.355 2.47-.518-.597-.317-2.096-2.316-3.36-1.126-.597-1.815.567-.783 1.298 1.031.726 1.695 3.296.406 3.898-1.288.606-1.875-.972-2.085-1.797-.21-.825-1.738-1.117-1.412 1.165.214 1.521.877 3.283 3.365 4.482-.882 3.146-4.119 7.8-8.194 9.313-.142-3.675-.702-6.83-1.648-9.205-1.751-4.405-4.465-5.325-6.439-5.325-2.577 0-4.22 1.414-5.54 2.557-1.108.958-1.982 1.715-3.193 1.715-1.212 0-2.085-.757-3.19-1.715-1.322-1.139-2.97-2.557-5.543-2.557-1.974 0-4.683.92-6.439 5.325-.95 2.376-1.51 5.526-1.648 9.205-4.08-1.513-7.312-6.167-8.194-9.313 2.488-1.199 3.147-2.96 3.365-4.482.326-2.282-1.207-1.99-1.412-1.165-.21.825-.797 2.403-2.085 1.797-1.293-.602-.625-3.172.406-3.898 1.036-.726.347-1.895-.783-1.298-2 1.263-1.798 2.763-2.316 3.36-.496.585-.753-1.628-.355-2.47.436-1.07-.976-1.354-1.387-.533-1.028 2.071-.214 3.897-.433 4.112-.218.215-.663-.305-.779-1.456-.111-1.148-1.37-.662-1.412.146-.073 3.003 2.161 6.587 4.987 6.54 1.117 3.928 5.163 9.562 10.364 11.075.051 4.984.839 10.4 2.128 14.585 1.596 5.183 3.728 7.924 6.177 7.924 3.455 0 4.486-2.213 5.248-3.824.724-1.543 1.199-2.562 3.301-2.562 2.102 0 2.577 1.019 3.305 2.562.753 1.611 1.794 3.824 5.248 3.824 2.445 0 4.58-2.741 6.173-7.924 1.289-4.186 2.077-9.6 2.128-14.585 5.201-1.513 9.247-7.151 10.364-11.075 2.825.047 5.056-3.537 4.987-6.54-.047-.808-1.301-1.294-1.417-.146zM44.731 49.682c-1.43 4.65-3.035 6.3-3.976 6.3-2.004 0-2.445-.941-3.173-2.497-.762-1.642-1.819-3.89-5.377-3.89-3.557 0-4.61 2.244-5.38 3.89-.728 1.556-1.174 2.497-3.168 2.497-.947 0-2.552-1.65-3.986-6.3-1.271-4.13-2.03-9.54-2.03-14.46 0-4.182.527-7.715 1.52-10.211 1.028-2.57 2.475-3.872 4.311-3.872 1.726 0 2.804.928 4.046 2.002.548.473 1.126.98 1.785 1.384-.903.25-1.627.64-2.166 1.186a.257.257 0 00.128.426c1.627.365 4.294.356 7.428-1.376.043-.017.077-.043.12-.064.783-.438 1.455-1.014 2.089-1.56 1.241-1.074 2.316-2.003 4.04-2.003 1.837 0 3.284 1.303 4.307 3.872.998 2.497 1.524 6.034 1.524 10.21 0 4.921-.762 10.328-2.033 14.462l-.009.004z"/><path d="M29.123 34.873c-1.331-.056-2.487.073-3.322.288-.077.017-.15-.052-.128-.129.081-.292.364-.554.728-.73a2.076 2.076 0 01-.446-1.311c0-1.023.685-1.852 1.529-1.852.843 0 1.528.83 1.528 1.852a2.1 2.1 0 01-.343 1.169.916.916 0 01.561.571.106.106 0 01-.107.142zm10.386 8.5a.15.15 0 01-.274-.043 6.033 6.033 0 00-.283-.812c-1.194.963-3.934 2.282-6.764 2.282s-5.57-1.315-6.764-2.282a5.844 5.844 0 00-.282.812c-.034.125-.206.15-.274.043-1.049-1.646.287-3.597 1.905-3.231.116.025.154.167.077.253a7.89 7.89 0 00-.467.533c1.036.838 3.494 2.093 5.81 2.093 2.316 0 4.769-1.255 5.809-2.093a7.803 7.803 0 00-.467-.533.152.152 0 01.077-.253c1.618-.366 2.954 1.59 1.905 3.231h-.008zm-4.259-8.5c1.33-.056 2.486.073 3.321.288.077.017.15-.052.129-.129-.082-.292-.364-.554-.728-.73.274-.336.445-.8.445-1.311 0-1.023-.685-1.852-1.528-1.852-.844 0-1.529.83-1.529 1.852 0 .443.129.85.343 1.169a.916.916 0 00-.56.571.106.106 0 00.106.142zM51.534 7.052c1.233 2.136 4.456 7.374 6.002 9.88a1.54 1.54 0 01-.565 2.157 1.524 1.524 0 01-2.115-.68c-1.276-2.65-3.947-8.194-5.082-10.386a4.785 4.785 0 01-.496-1.44 4.49 4.49 0 00-.497-1.44L47.96 3.64a.281.281 0 00-.274-.146 1.745 1.745 0 01-1.853-1.216A1.748 1.748 0 0146.97.082a1.75 1.75 0 011.884 2.763.28.28 0 00-.026.31l.822 1.503c.244.447.565.856.942 1.195.377.344.685.752.942 1.195v.004zM77.695 46.33l-.022-7.787-3.763 6.339h-1.84l-3.763-6.171v7.62H64.5V31.636h3.407l5.142 8.48 5.017-8.48h3.408l.043 14.693H77.69h.005zm17.042-2.853h-6.19l-1.152 2.853H83.17l6.46-14.693h4.075l6.482 14.693H95.88l-1.152-2.853h.009zm-1.212-3.064l-1.883-4.702-1.884 4.702h3.767zm17.783-7.728a7.017 7.017 0 012.749 2.72c.663 1.161.993 2.476.993 3.946 0 1.47-.33 2.784-.993 3.945a7.1 7.1 0 01-2.749 2.72c-1.168.649-2.495.976-3.972.976-1.353 0-2.569-.237-3.648-.714A6.958 6.958 0 01101 44.22l2.611-2.394c.976 1.147 2.145 1.719 3.515 1.719.878 0 1.627-.24 2.247-.722.621-.481 1.049-1.152 1.285-2.002h-5.292v-3.065h5.249c-.236-.812-.664-1.448-1.276-1.908-.612-.46-1.353-.691-2.217-.691-1.366 0-2.539.575-3.515 1.723l-2.611-2.394a6.955 6.955 0 012.688-2.058c1.079-.477 2.295-.714 3.647-.714 1.477 0 2.8.327 3.973.976l.004-.005zm8.567 12.966a7.263 7.263 0 01-2.877-2.72c-.698-1.16-1.045-2.475-1.045-3.945 0-1.47.347-2.785 1.045-3.945a7.323 7.323 0 012.877-2.72c1.22-.65 2.594-.976 4.131-.976 1.34 0 2.543.236 3.617.714a6.941 6.941 0 012.676 2.058l-2.633 2.394c-.946-1.148-2.098-1.724-3.451-1.724-.796 0-1.502.177-2.123.525a3.63 3.63 0 00-1.443 1.478c-.342.636-.513 1.367-.513 2.192 0 .825.171 1.555.513 2.191.343.636.822 1.13 1.443 1.479.621.348 1.327.524 2.123.524 1.353 0 2.501-.572 3.451-1.72l2.633 2.394a6.982 6.982 0 01-2.676 2.059c-1.074.477-2.277.713-3.617.713-1.533 0-2.911-.326-4.131-.975v.004zm23.951-10.717h-4.473V46.33h-4.076V34.934h-4.495v-3.297h13.049v3.297h-.005zm12.043-2.631c.976.443 1.729 1.07 2.256 1.891.531.821.796 1.78.796 2.888 0 1.109-.265 2.063-.796 2.875-.531.812-1.285 1.44-2.256 1.878-.976.443-2.128.662-3.451.662h-2.551v3.842h-4.14V31.646h6.691c1.323 0 2.475.22 3.451.662v-.005zm-1.777 6.36c.432-.369.646-.897.646-1.585s-.218-1.216-.646-1.594c-.432-.379-1.074-.568-1.922-.568h-2.299v4.302h2.299c.852 0 1.49-.185 1.922-.554zm9.919 6.975a7.429 7.429 0 01-2.907-2.729c-.702-1.16-1.057-2.47-1.057-3.923 0-1.453.351-2.763 1.057-3.924.702-1.16 1.674-2.07 2.907-2.728 1.233-.658 2.624-.989 4.17-.989 1.545 0 2.936.327 4.169.989a7.422 7.422 0 012.907 2.728c.702 1.16 1.057 2.471 1.057 3.924 0 1.452-.351 2.763-1.057 3.923-.702 1.16-1.674 2.072-2.907 2.73-1.233.657-2.624.988-4.169.988-1.546 0-2.937-.327-4.17-.989zm6.177-2.982a3.743 3.743 0 001.422-1.478c.346-.636.522-1.367.522-2.192 0-.825-.176-1.556-.522-2.192a3.742 3.742 0 00-1.422-1.478 3.92 3.92 0 00-2.007-.524 3.92 3.92 0 00-2.008.524 3.74 3.74 0 00-1.421 1.478c-.347.636-.523 1.367-.523 2.192 0 .825.176 1.556.523 2.192a3.74 3.74 0 001.421 1.478 3.92 3.92 0 002.008.524 3.92 3.92 0 002.007-.524zM64.59 53.631h1.08v3.051l2.547-3.05h.984v4.628h-1.079v-3.051l-2.538 3.05h-.993v-4.628zm6.872 4.384a2.229 2.229 0 01-.89-.847 2.356 2.356 0 01-.322-1.225 2.265 2.265 0 011.207-2.063c.377-.201.81-.304 1.289-.304.454 0 .852.094 1.194.279.343.185.6.451.77.8l-.83.485a1.331 1.331 0 00-.496-.482 1.34 1.34 0 00-.651-.159c-.402 0-.736.134-1.002.396-.265.262-.398.614-.398 1.053 0 .438.133.79.394 1.053.261.262.595.395 1.006.395.235 0 .454-.052.65-.16a1.33 1.33 0 00.497-.48l.83.485a1.875 1.875 0 01-.778.804 2.41 2.41 0 01-1.186.283c-.48 0-.908-.103-1.284-.305v-.008zm6.117-1.612h-.839v1.857h-1.079v-4.63h1.079v1.874h.865l1.365-1.874h1.156l-1.674 2.226 1.785 2.403H78.97l-1.391-1.857z"/><path d="M85.092 53.631l-2.157 4.998c-.202.503-.446.855-.733 1.062-.286.206-.637.31-1.044.31a2.17 2.17 0 01-.68-.113 1.564 1.564 0 01-.553-.313l.432-.8c.103.1.227.177.368.232.142.056.283.086.429.086a.734.734 0 00.47-.146c.125-.099.236-.262.343-.494l.077-.18-2.012-4.646h1.122l1.45 3.425 1.46-3.425h1.037l-.009.004zm1.43 4.384a2.229 2.229 0 01-.89-.847 2.356 2.356 0 01-.322-1.225 2.265 2.265 0 011.207-2.063c.377-.201.81-.304 1.29-.304.453 0 .851.094 1.194.279.342.185.599.451.77.8l-.83.485a1.331 1.331 0 00-.497-.482 1.339 1.339 0 00-.65-.159c-.403 0-.737.134-1.002.396-.266.262-.399.614-.399 1.053 0 .438.133.79.394 1.053.261.262.595.395 1.006.395.236 0 .454-.052.651-.16a1.33 1.33 0 00.497-.48l.83.485c-.18.348-.437.615-.779.804a2.41 2.41 0 01-1.186.283c-.48 0-.907-.103-1.284-.305v-.008zm4.948 0a2.228 2.228 0 01-.89-.847 2.355 2.355 0 01-.32-1.225c0-.455.106-.863.32-1.22.214-.357.51-.64.886-.842a2.692 2.692 0 011.289-.306c.454 0 .852.095 1.194.28.343.185.6.451.77.8l-.83.485a1.332 1.332 0 00-.496-.482 1.34 1.34 0 00-.65-.159c-.403 0-.737.134-1.003.396-.265.262-.398.614-.398 1.053 0 .438.133.79.394 1.053.261.262.595.395 1.006.395.236 0 .454-.052.65-.16a1.33 1.33 0 00.497-.48l.83.485a1.875 1.875 0 01-.778.804 2.413 2.413 0 01-1.186.283c-.48 0-.908-.103-1.284-.305v-.008zm7.813-3.464H97.67v3.709h-1.078v-3.71h-1.623v-.92h4.315v.92zm4.979 2.407c0 .416-.154.734-.467.962-.312.224-.77.34-1.382.34h-2.346v-4.63h2.252c.565 0 1.006.103 1.322.314a.996.996 0 01.476.885c0 .237-.06.443-.185.615-.124.172-.299.31-.522.408.57.172.856.542.856 1.109l-.004-.005zm-3.168-1.397h1.13c.557 0 .839-.194.839-.58 0-.387-.278-.563-.839-.563h-1.13v1.143zm2.124 1.324c0-.203-.069-.353-.206-.456-.137-.099-.355-.15-.646-.15h-1.268v1.186h1.233c.591 0 .891-.194.891-.58h-.004zm2.988 1.13a2.221 2.221 0 01-.878-.847 2.392 2.392 0 01-.317-1.225c0-.455.107-.863.317-1.22.21-.357.501-.64.878-.842a2.607 2.607 0 011.258-.306c.463 0 .895.104 1.267.306.373.202.668.48.878.842.21.357.317.765.317 1.22 0 .456-.107.864-.317 1.225-.21.361-.501.645-.878.847a2.619 2.619 0 01-1.267.305c-.471 0-.886-.103-1.258-.305zm2.243-1.023c.257-.267.389-.615.389-1.049 0-.434-.128-.782-.389-1.048-.257-.267-.587-.4-.985-.4s-.723.133-.98.4c-.257.266-.385.614-.385 1.048 0 .434.128.782.385 1.049.257.266.582.4.98.4s.724-.134.985-.4zm5.732 1.023a2.227 2.227 0 01-.89-.847 2.356 2.356 0 01-.322-1.225c0-.455.108-.863.322-1.22.214-.357.509-.64.886-.842a2.69 2.69 0 011.288-.306c.454 0 .852.095 1.195.28.342.185.599.451.77.8l-.83.485a1.334 1.334 0 00-.497-.482 1.339 1.339 0 00-.651-.159c-.402 0-.736.134-1.001.396-.266.262-.398.614-.398 1.053 0 .438.132.79.393 1.053.262.262.595.395 1.006.395.236 0 .454-.052.651-.16.197-.107.364-.266.497-.48l.83.485c-.18.348-.436.615-.779.804a2.408 2.408 0 01-1.186.283c-.479 0-.907-.103-1.284-.305v-.008zm7.813-3.464h-1.614v3.709h-1.079v-3.71h-1.623v-.92h4.316v.92zm1.382 3.464a2.225 2.225 0 01-.877-.847 2.392 2.392 0 01-.317-1.225c0-.455.107-.863.317-1.22.21-.357.501-.64.877-.842a2.614 2.614 0 011.259-.306c.462 0 .895.104 1.267.306.373.202.668.48.878.842.21.357.317.765.317 1.22 0 .456-.107.864-.317 1.225-.21.361-.501.645-.878.847a2.619 2.619 0 01-1.267.305 2.59 2.59 0 01-1.259-.305zm2.244-1.023c.256-.267.389-.615.389-1.049 0-.434-.128-.782-.389-1.048-.257-.267-.587-.4-.985-.4s-.723.133-.98.4c-.257.266-.386.614-.386 1.048 0 .434.129.782.386 1.049.257.266.582.4.98.4s.723-.134.985-.4zm7.067 1.268v-3.07l-1.554 2.583h-.466l-1.528-2.591v3.077h-.985V53.63h1.13l1.64 2.892 1.716-2.892h1.011l.008 4.629h-.976.004zm5.703-4.19c.359.326.539.82.539 1.478v2.712h-1.019v-.563a1.269 1.269 0 01-.565.464c-.244.107-.539.159-.886.159s-.646-.06-.908-.176a1.373 1.373 0 01-.599-.495 1.258 1.258 0 01-.21-.713c0-.417.154-.748.463-1.001.308-.25.792-.378 1.455-.378h1.19v-.07c0-.322-.094-.57-.291-.743-.193-.172-.479-.258-.86-.258-.257 0-.514.04-.762.12a1.855 1.855 0 00-.634.34l-.424-.79c.24-.185.531-.327.874-.426a3.823 3.823 0 011.078-.146c.681 0 1.199.163 1.559.49v-.004zm-.985 3.274a1 1 0 00.445-.533v-.537h-1.113c-.621 0-.933.206-.933.615 0 .197.077.352.231.468.154.116.373.172.647.172s.509-.06.719-.185h.004zm6.516-2.793h-1.614v3.709h-1.079v-3.71h-1.623v-.92h4.316v.92zm1.382 3.464a2.219 2.219 0 01-.877-.847 2.392 2.392 0 01-.317-1.225c0-.455.107-.863.317-1.22.209-.357.501-.64.877-.842a2.614 2.614 0 011.259-.306c.462 0 .895.104 1.267.306.373.202.668.48.878.842.209.357.316.765.316 1.22a2.4 2.4 0 01-.316 1.225c-.21.361-.501.645-.878.847a2.619 2.619 0 01-1.267.305 2.59 2.59 0 01-1.259-.305zm2.244-1.023c.256-.267.389-.615.389-1.049 0-.434-.128-.782-.389-1.048-.257-.267-.587-.4-.985-.4s-.724.133-.98.4c-.257.266-.386.614-.386 1.048 0 .434.129.782.386 1.049.256.266.582.4.98.4s.723-.134.985-.4zm6.665-3.361v4.629h-1.079v-3.71h-1.725l-.043.92a10.78 10.78 0 01-.167 1.538c-.081.413-.222.74-.424.98-.197.24-.471.36-.817.36-.163 0-.36-.03-.595-.094l.051-.91c.081.017.15.025.206.025a.542.542 0 00.492-.262c.111-.176.18-.387.21-.632s.06-.597.081-1.053l.077-1.783h3.729l.004-.009zm2.243 4.384a2.219 2.219 0 01-.877-.847 2.392 2.392 0 01-.317-1.225c0-.455.107-.863.317-1.22.209-.357.5-.64.877-.842a2.611 2.611 0 011.259-.306c.462 0 .894.104 1.267.306.372.202.668.48.878.842.209.357.316.765.316 1.22a2.4 2.4 0 01-.316 1.225c-.21.361-.501.645-.878.847a2.622 2.622 0 01-1.267.305 2.59 2.59 0 01-1.259-.305zm2.243-1.023c.257-.267.39-.615.39-1.049 0-.434-.129-.782-.39-1.048-.256-.267-.586-.4-.984-.4s-.724.133-.981.4c-.256.266-.385.614-.385 1.048 0 .434.129.782.385 1.049.257.266.583.4.981.4s.723-.134.984-.4zm6.079-2.441h-2.461v3.709h-1.079v-4.63h3.54v.92zm.784-.92h1.079v3.051l2.547-3.05h.984v4.628h-1.079v-3.051l-2.538 3.05h-.993v-4.628zm6.061 0h1.079v3.051l2.547-3.05h.985v4.628h-1.079v-3.051l-2.538 3.05h-.994v-4.628z"/></g><defs><clipPath id="clip0_316_3135"><path fill="#fff" d="M0 0h196v60H0z"/></clipPath></defs></svg>