<svg width="158" height="24" fill="none" xmlns="http://www.w3.org/2000/svg"><path d="M8.848 7.777h-6.03v10.18H0V5.17h11.666v12.787H8.848V7.777zm5.56-2.607h2.817v1.402a6.726 6.726 0 011.854-1.254c.659-.295 1.4-.443 2.224-.443.923 0 1.772.172 2.546.516.79.328 1.466.795 2.027 1.402.56.59.996 1.295 1.31 2.115.313.803.47 1.68.47 2.63 0 .985-.174 1.886-.52 2.706-.33.803-.783 1.5-1.36 2.09a6.224 6.224 0 01-2.075 1.352 6.581 6.581 0 01-2.546.492c-.807 0-1.532-.123-2.175-.369a6.104 6.104 0 01-1.755-1.032v6.098h-2.817V5.17zm6.327 10.402c.56 0 1.079-.09 1.557-.27a3.666 3.666 0 001.285-.788 3.76 3.76 0 00.84-1.278c.215-.509.322-1.082.322-1.722 0-.59-.09-1.13-.272-1.623a3.369 3.369 0 00-.791-1.278 3.376 3.376 0 00-1.186-.836 3.868 3.868 0 00-1.533-.295c-.857 0-1.614.204-2.274.614-.642.41-1.128.902-1.458 1.476v3.885c.33.688.8 1.213 1.409 1.574.61.36 1.31.54 2.1.54zm8.385-4.033c0-.967.164-1.853.493-2.656.33-.82.8-1.524 1.41-2.115a6.464 6.464 0 012.174-1.377c.84-.344 1.771-.516 2.793-.516 1.005 0 1.928.172 2.768.516.857.328 1.59.787 2.2 1.377a6.04 6.04 0 011.409 2.115c.346.803.519 1.689.519 2.656 0 .967-.173 1.86-.52 2.68a6.07 6.07 0 01-1.408 2.09 6.414 6.414 0 01-2.2 1.377c-.84.328-1.763.492-2.768.492s-1.928-.164-2.768-.492a6.465 6.465 0 01-2.175-1.377 6.397 6.397 0 01-1.434-2.09c-.33-.82-.494-1.713-.494-2.68zm2.916 0c0 .574.09 1.107.271 1.598.198.492.47.918.816 1.279.346.36.758.647 1.236.86a4.376 4.376 0 001.631.296 4.52 4.52 0 001.607-.27 3.703 3.703 0 001.26-.812c.346-.36.618-.787.816-1.279.197-.492.296-1.05.296-1.672 0-.623-.107-1.18-.321-1.672a3.467 3.467 0 00-.84-1.279 3.54 3.54 0 00-1.26-.811 4.05 4.05 0 00-1.558-.295c-.56 0-1.087.098-1.582.295a3.54 3.54 0 00-1.26.811 3.63 3.63 0 00-.816 1.279c-.197.492-.296 1.049-.296 1.672z" fill="#FF4A37"/><path d="M43.638 15.35h1.488a6.045 6.045 0 001.166-2.532c.198-.951.297-2.025.297-3.222V5.17h10.366v10.18h1.81v5.533h-2.628v-2.926h-9.87v2.926h-2.629V15.35zm10.49 0V7.777h-4.86v3.27c0 .787-.108 1.574-.323 2.36-.215.771-.513 1.419-.893 1.943h6.076zm5.212-3.811c0-.967.164-1.853.495-2.656.33-.82.802-1.524 1.414-2.115a6.49 6.49 0 012.182-1.377c.843-.344 1.777-.516 2.802-.516 1.009 0 1.934.172 2.778.516a6.44 6.44 0 012.207 1.377 6.038 6.038 0 011.413 2.115c.347.803.521 1.689.521 2.656a6.8 6.8 0 01-.52 2.68 6.09 6.09 0 01-1.414 2.09 6.44 6.44 0 01-2.207 1.377c-.843.328-1.77.492-2.778.492s-1.934-.164-2.777-.492a6.49 6.49 0 01-2.183-1.377 6.395 6.395 0 01-1.438-2.09 7.112 7.112 0 01-.496-2.68zm2.925 0c0 .574.091 1.107.273 1.598.199.492.471.918.818 1.279a3.9 3.9 0 001.24.86 4.404 4.404 0 001.637.296 4.55 4.55 0 001.612-.27 3.718 3.718 0 001.265-.812c.347-.36.62-.787.818-1.279.198-.492.298-1.05.298-1.672 0-.623-.108-1.18-.323-1.672a3.466 3.466 0 00-.843-1.279 3.552 3.552 0 00-1.264-.811c-.48-.197-1-.295-1.563-.295a4.26 4.26 0 00-1.587.295c-.48.18-.901.45-1.265.811a3.62 3.62 0 00-.818 1.279c-.199.492-.298 1.049-.298 1.672zM74.901 5.17h2.828v5.188l5.58-5.188h3.694l-6.274 5.779 6.498 7.008h-3.62l-4.936-5.263-.943.91v4.353h-2.826V5.17zm13.218 0h12.152v2.607h-4.663v10.18h-2.827V7.777H88.12V5.17zm12.769 6.369c0-.967.166-1.853.497-2.656a6.03 6.03 0 011.413-2.115 6.488 6.488 0 012.183-1.377c.842-.344 1.777-.516 2.801-.516 1.009 0 1.935.172 2.778.516a6.44 6.44 0 012.207 1.377 6.04 6.04 0 011.414 2.115c.347.803.52 1.689.52 2.656 0 .967-.173 1.86-.52 2.68a6.093 6.093 0 01-1.414 2.09 6.44 6.44 0 01-2.207 1.377c-.843.328-1.769.492-2.778.492-1.008 0-1.934-.164-2.777-.492a6.484 6.484 0 01-2.182-1.377 6.39 6.39 0 01-1.438-2.09 7.092 7.092 0 01-.497-2.68zm2.927 0c0 .574.091 1.107.272 1.598.199.492.471.918.819 1.279.347.36.761.647 1.24.86a4.4 4.4 0 001.636.296c.596 0 1.133-.09 1.613-.27a3.712 3.712 0 001.264-.812c.347-.36.62-.787.818-1.279.199-.492.298-1.05.298-1.672 0-.623-.107-1.18-.323-1.672a3.456 3.456 0 00-.842-1.279 3.56 3.56 0 00-1.265-.811 4.078 4.078 0 00-1.563-.295 4.25 4.25 0 00-1.586.295c-.48.18-.902.45-1.265.811a3.63 3.63 0 00-.819 1.279c-.198.492-.297 1.049-.297 1.672zm12.614-6.369h2.826v1.402a6.76 6.76 0 011.86-1.254c.662-.295 1.406-.443 2.233-.443.925 0 1.777.172 2.554.516a5.704 5.704 0 012.033 1.402 6.273 6.273 0 011.314 2.115c.315.803.471 1.68.471 2.63 0 .985-.173 1.886-.52 2.706a6.466 6.466 0 01-1.364 2.09 6.253 6.253 0 01-2.083 1.352 6.625 6.625 0 01-2.554.492c-.811 0-1.538-.123-2.183-.369a6.126 6.126 0 01-1.761-1.032v6.098h-2.826V5.17zm6.348 10.402c.562 0 1.083-.09 1.562-.27a3.687 3.687 0 001.29-.788c.363-.36.645-.787.843-1.278.215-.509.322-1.082.322-1.722 0-.59-.091-1.13-.272-1.623a3.372 3.372 0 00-.794-1.278 3.395 3.395 0 00-1.19-.836A3.899 3.899 0 00123 7.482c-.859 0-1.62.204-2.281.614-.645.41-1.133.902-1.464 1.476v3.885c.331.688.802 1.213 1.414 1.574.612.36 1.315.54 2.108.54zm8.346-4.033c0-.967.165-1.853.496-2.656a6.051 6.051 0 011.413-2.115 6.493 6.493 0 012.182-1.377c.844-.344 1.778-.516 2.803-.516 1.008 0 1.934.172 2.778.516a6.435 6.435 0 012.206 1.377 6.04 6.04 0 011.414 2.115c.347.803.521 1.689.521 2.656 0 .967-.174 1.86-.521 2.68a6.093 6.093 0 01-1.414 2.09 6.435 6.435 0 01-2.206 1.377c-.844.328-1.77.492-2.778.492s-1.935-.164-2.778-.492a6.493 6.493 0 01-2.182-1.377 6.39 6.39 0 01-1.438-2.09c-.331-.82-.496-1.713-.496-2.68zm2.926 0c0 .574.091 1.107.273 1.598.198.492.471.918.818 1.279.347.36.76.647 1.24.86a4.406 4.406 0 001.637.296c.595 0 1.132-.09 1.611-.27a3.707 3.707 0 001.265-.812c.348-.36.62-.787.819-1.279.198-.492.298-1.05.298-1.672 0-.623-.108-1.18-.323-1.672a3.46 3.46 0 00-.844-1.279 3.538 3.538 0 00-1.264-.811c-.48-.197-1-.295-1.562-.295s-1.091.098-1.587.295c-.48.18-.901.45-1.265.811a3.62 3.62 0 00-.818 1.279c-.199.492-.298 1.049-.298 1.672zm12.643-6.369h5.505c1.802 0 3.158.254 4.067.762.909.508 1.364 1.385 1.364 2.631 0 .59-.132 1.09-.397 1.5-.264.41-.612.78-1.041 1.107.611.23 1.066.615 1.364 1.156.297.524.446 1.13.446 1.82 0 1.278-.455 2.237-1.364 2.876-.909.623-2.19.935-3.844.935h-6.1V5.17zm2.827 7.5v2.754h3.001c.842 0 1.479-.106 1.909-.32.43-.213.645-.557.645-1.032 0-.509-.207-.87-.62-1.082-.397-.213-1.017-.32-1.86-.32h-3.075zm0-4.967v2.532h3.323c.578 0 1.033-.106 1.364-.32.331-.212.495-.54.495-.983 0-.524-.222-.86-.669-1.008-.43-.147-1.066-.221-1.91-.221h-2.603z" fill="#3981F1"/></svg>