<svg width="34" height="40" fill="none" xmlns="http://www.w3.org/2000/svg"><path d="M12.51 16.364a.65.65 0 01-.22.884 2.848 2.848 0 01-3.345-.287 2.951 2.951 0 01-.811-3.304.633.633 0 01.826-.361.648.648 0 01.357.837 1.648 1.648 0 00.453 1.846 1.593 1.593 0 001.869.16.631.631 0 01.872.225zm20.824-9.052c0 1.097-.88 1.989-1.962 1.989-1.081 0-1.961-.892-1.961-1.99 0-1.096.88-1.989 1.961-1.989 1.082 0 1.962.893 1.962 1.99zm-1.272 0a.695.695 0 00-.69-.7.695.695 0 00-.689.7c0 .385.31.698.69.698.38 0 .689-.313.689-.698zM16.435 23.02c0 1.097-.88 1.989-1.962 1.989-1.081 0-1.961-.892-1.961-1.99 0-1.096.88-1.988 1.961-1.988 1.082 0 1.962.892 1.962 1.989zm-1.273 0a.695.695 0 00-.689-.7.695.695 0 00-.689.7c0 .385.31.699.69.699a.695.695 0 00.688-.7zM1.632 2.783c0-1.097.88-1.989 1.962-1.989 1.082 0 1.962.892 1.962 1.99 0 1.096-.88 1.988-1.962 1.988-1.082 0-1.961-.892-1.961-1.989zm1.273 0c0 .385.31.699.69.699.38 0 .689-.314.689-.699a.696.696 0 00-.69-.699.695.695 0 00-.689.7zM33.5 3.951a.64.64 0 01-.636.645h-4.897a4.36 4.36 0 01.366 3.643 4.113 4.113 0 01.461 4.202 4.074 4.074 0 01-1.283 1.59c.955 3.79.518 7.471-1.28 10.673l-.092.163c-.304.536-.351.619-.257 1.194.96 5.913-.844 10.524-5.364 13.706a1.28 1.28 0 01-1.344.079 1.315 1.315 0 01-.69-1.17v-7.071c0-1.961-1.574-3.557-3.508-3.557s-3.508 1.596-3.508 3.557v7.075c.002.487-.262.935-.69 1.166a1.285 1.285 0 01-1.342-.077c-4.523-3.184-6.328-7.795-5.367-13.707.094-.576.047-.659-.257-1.195l-.093-.163a13.735 13.735 0 01-1.668-5.115A1.986 1.986 0 01.5 17.644c0-.973.694-1.784 1.605-1.954.158-1.147.474-2.525 1.281-3.829a4.18 4.18 0 01-.53-1.645c-.195-1.863.853-3.596 2.533-4.281a4.18 4.18 0 011.584-2.657 2.31 2.31 0 01-.219-.98C6.754 1.031 7.771 0 9.021 0h23.843a.64.64 0 01.636.645.64.64 0 01-.636.645H9.02c-.549 0-.994.452-.994 1.008s.445 1.008.994 1.008h23.843a.64.64 0 01.636.645zM17.553 6.303v3.22h1.402l.764-2.888a.637.637 0 01.614-.478c.288 0 .54.196.614.478l.764 2.887h.161V4.596H9.657v4.926h2.274V6.303a.64.64 0 01.637-.645.64.64 0 01.636.645v3.22h3.076v-3.22a.64.64 0 01.637-.645.64.64 0 01.636.645zM2.462 18.343c.38 0 .689-.313.689-.699a.695.695 0 00-.69-.699.695.695 0 00-.689.7c0 .385.31.698.69.698zm23.886-3.72a3.937 3.937 0 01-.607.147 4.391 4.391 0 01-.497 2.647c.09.227.14.474.14.733 0 1.097-.88 1.99-1.962 1.99-.503 0-.96-.195-1.307-.51a4.234 4.234 0 01-4.049-1.671 4.18 4.18 0 01-3.435.058c-1.033 1.27-2.393 1.78-3.7 1.78a5.216 5.216 0 01-2.337-.559c-1.735-.88-3.212-2.911-2.7-5.445a4.054 4.054 0 01-1.648-.876c-.435.812-.711 1.748-.88 2.964a1.993 1.993 0 011.057 1.763c0 .787-.454 1.467-1.11 1.79a12.44 12.44 0 001.512 4.632l.09.157c.38.669.57 1.064.41 2.048-.886 5.455.695 9.523 4.834 12.436l.037-.027v-7.075c0-2.673 2.144-4.848 4.78-4.848s4.78 2.175 4.78 4.848v7.075l.4.557-.363-.53c4.139-2.913 5.72-6.981 4.833-12.436-.16-.984.03-1.38.411-2.048l.089-.157c1.588-2.828 2.006-6.08 1.222-9.443zm-2.926 2.829c-.38 0-.69.313-.69.698 0 .386.31.7.69.7.38 0 .69-.314.69-.7a.695.695 0 00-.69-.698zm2.924-12.856h-3.201v5.572a.64.64 0 01-.637.645h-1.286a.638.638 0 01-.614-.478l-.275-1.04-.275 1.04a.638.638 0 01-.614.478H9.02a.64.64 0 01-.636-.645V4.503a2.249 2.249 0 01-.566-.26 2.88 2.88 0 00-1.204 2.2.644.644 0 01-.463.59A2.848 2.848 0 004.12 10.08a2.827 2.827 0 002.617 2.548c.198.014.38.12.489.288.11.169.136.38.07.57-.742 2.146.402 3.856 1.866 4.598 1.463.742 3.498.646 4.748-1.244a.63.63 0 01.85-.197c.992.591 2.206.56 3.167-.08a.629.629 0 01.907.231 2.995 2.995 0 002.64 1.593 2.075 2.075 0 01-.015-.236c0-1.097.88-1.99 1.962-1.99.322 0 .625.081.894.221.234-.643.251-1.35.035-2.014a.654.654 0 01.099-.594.629.629 0 01.539-.253c1.143.063 2.174-.576 2.65-1.62a2.813 2.813 0 00-.502-3.097.652.652 0 01-.115-.714 3.064 3.064 0 00-.676-3.494z" fill="#002D82"/></svg>